G04 EAGLE Gerber RS-274X export*
G75*
%MOMM*%
%FSLAX34Y34*%
%LPD*%
%INCopper Layer 15*%
%IPPOS*%
%AMOC8*
5,1,8,0,0,1.08239X$1,22.5*%
G01*
%ADD10C,1.244600*%
%ADD11C,1.400000*%
%ADD12C,1.960000*%
%ADD13C,4.016000*%
%ADD14C,1.288000*%
%ADD15C,3.220000*%
%ADD16C,4.191000*%
%ADD17C,0.609600*%
%ADD18C,0.654800*%

G36*
X147902Y2558D02*
X147902Y2558D01*
X148041Y2571D01*
X148060Y2578D01*
X148080Y2581D01*
X148209Y2632D01*
X148340Y2679D01*
X148357Y2690D01*
X148375Y2698D01*
X148488Y2779D01*
X148603Y2857D01*
X148616Y2873D01*
X148633Y2884D01*
X148722Y2992D01*
X148813Y3096D01*
X148823Y3114D01*
X148836Y3129D01*
X148895Y3255D01*
X148958Y3379D01*
X148963Y3399D01*
X148971Y3417D01*
X148997Y3553D01*
X149028Y3689D01*
X149027Y3710D01*
X149031Y3729D01*
X149022Y3868D01*
X149018Y4007D01*
X149012Y4027D01*
X149011Y4047D01*
X148968Y4179D01*
X148930Y4313D01*
X148919Y4330D01*
X148913Y4349D01*
X148839Y4467D01*
X148768Y4587D01*
X148750Y4608D01*
X148743Y4618D01*
X148728Y4632D01*
X148662Y4707D01*
X145849Y7520D01*
X143559Y13048D01*
X143559Y19032D01*
X145849Y24560D01*
X150080Y28791D01*
X155608Y31081D01*
X161592Y31081D01*
X167120Y28791D01*
X171351Y24560D01*
X173641Y19032D01*
X173641Y13048D01*
X171351Y7520D01*
X168538Y4707D01*
X168453Y4598D01*
X168364Y4491D01*
X168356Y4472D01*
X168343Y4456D01*
X168288Y4328D01*
X168229Y4203D01*
X168225Y4183D01*
X168217Y4164D01*
X168195Y4026D01*
X168169Y3890D01*
X168170Y3870D01*
X168167Y3850D01*
X168180Y3711D01*
X168189Y3573D01*
X168195Y3554D01*
X168197Y3534D01*
X168244Y3402D01*
X168287Y3271D01*
X168298Y3253D01*
X168305Y3234D01*
X168383Y3119D01*
X168457Y3002D01*
X168472Y2988D01*
X168483Y2971D01*
X168587Y2879D01*
X168689Y2784D01*
X168706Y2774D01*
X168722Y2761D01*
X168846Y2697D01*
X168967Y2630D01*
X168987Y2625D01*
X169005Y2616D01*
X169141Y2586D01*
X169275Y2551D01*
X169303Y2549D01*
X169315Y2546D01*
X169336Y2547D01*
X169436Y2541D01*
X329438Y2541D01*
X329507Y2549D01*
X329577Y2548D01*
X329664Y2569D01*
X329754Y2581D01*
X329818Y2606D01*
X329886Y2623D01*
X329966Y2665D01*
X330049Y2698D01*
X330106Y2739D01*
X330167Y2771D01*
X330234Y2832D01*
X330307Y2884D01*
X330351Y2938D01*
X330403Y2985D01*
X330452Y3060D01*
X330509Y3129D01*
X330539Y3193D01*
X330577Y3251D01*
X330607Y3336D01*
X330645Y3417D01*
X330658Y3486D01*
X330681Y3552D01*
X330688Y3641D01*
X330705Y3729D01*
X330700Y3799D01*
X330706Y3869D01*
X330691Y3957D01*
X330685Y4047D01*
X330663Y4113D01*
X330651Y4182D01*
X330615Y4264D01*
X330587Y4349D01*
X330550Y4408D01*
X330521Y4472D01*
X330465Y4542D01*
X330417Y4618D01*
X330366Y4666D01*
X330322Y4720D01*
X330251Y4775D01*
X330185Y4836D01*
X330124Y4870D01*
X330068Y4912D01*
X329924Y4983D01*
X327880Y5829D01*
X323649Y10060D01*
X321359Y15588D01*
X321359Y21572D01*
X323649Y27100D01*
X327880Y31331D01*
X333408Y33621D01*
X339392Y33621D01*
X344920Y31331D01*
X349151Y27100D01*
X351441Y21572D01*
X351441Y15588D01*
X349151Y10060D01*
X344920Y5829D01*
X342876Y4983D01*
X342816Y4948D01*
X342751Y4922D01*
X342678Y4870D01*
X342600Y4825D01*
X342550Y4777D01*
X342493Y4736D01*
X342436Y4666D01*
X342372Y4604D01*
X342335Y4544D01*
X342291Y4491D01*
X342252Y4409D01*
X342205Y4333D01*
X342185Y4266D01*
X342155Y4203D01*
X342138Y4115D01*
X342112Y4029D01*
X342108Y3959D01*
X342095Y3890D01*
X342101Y3801D01*
X342097Y3711D01*
X342111Y3643D01*
X342115Y3573D01*
X342143Y3488D01*
X342161Y3400D01*
X342192Y3337D01*
X342213Y3271D01*
X342261Y3195D01*
X342301Y3114D01*
X342346Y3061D01*
X342383Y3002D01*
X342449Y2940D01*
X342507Y2872D01*
X342564Y2832D01*
X342615Y2784D01*
X342694Y2741D01*
X342767Y2689D01*
X342832Y2664D01*
X342893Y2630D01*
X342980Y2608D01*
X343064Y2576D01*
X343134Y2568D01*
X343201Y2551D01*
X343362Y2541D01*
X1012190Y2541D01*
X1012308Y2556D01*
X1012427Y2563D01*
X1012465Y2576D01*
X1012506Y2581D01*
X1012616Y2624D01*
X1012729Y2661D01*
X1012764Y2683D01*
X1012801Y2698D01*
X1012897Y2767D01*
X1012998Y2831D01*
X1013026Y2861D01*
X1013059Y2884D01*
X1013135Y2976D01*
X1013216Y3063D01*
X1013236Y3098D01*
X1013261Y3129D01*
X1013312Y3237D01*
X1013370Y3341D01*
X1013380Y3381D01*
X1013397Y3417D01*
X1013419Y3534D01*
X1013449Y3649D01*
X1013453Y3709D01*
X1013457Y3729D01*
X1013455Y3750D01*
X1013459Y3810D01*
X1013459Y200584D01*
X1013451Y200653D01*
X1013452Y200723D01*
X1013431Y200811D01*
X1013419Y200900D01*
X1013394Y200965D01*
X1013377Y201032D01*
X1013335Y201112D01*
X1013302Y201195D01*
X1013261Y201252D01*
X1013229Y201314D01*
X1013168Y201380D01*
X1013116Y201453D01*
X1013062Y201497D01*
X1013015Y201549D01*
X1012940Y201598D01*
X1012871Y201656D01*
X1012807Y201685D01*
X1012749Y201724D01*
X1012664Y201753D01*
X1012583Y201791D01*
X1012514Y201804D01*
X1012448Y201827D01*
X1012359Y201834D01*
X1012271Y201851D01*
X1012201Y201847D01*
X1012131Y201852D01*
X1012043Y201837D01*
X1011953Y201831D01*
X1011887Y201810D01*
X1011818Y201798D01*
X1011736Y201761D01*
X1011651Y201733D01*
X1011592Y201696D01*
X1011528Y201667D01*
X1011458Y201611D01*
X1011382Y201563D01*
X1011334Y201512D01*
X1011280Y201469D01*
X1011225Y201397D01*
X1011164Y201331D01*
X1011130Y201270D01*
X1011088Y201214D01*
X1011017Y201070D01*
X1010222Y199150D01*
X1006750Y195678D01*
X1002215Y193799D01*
X997305Y193799D01*
X992770Y195678D01*
X989298Y199150D01*
X987419Y203685D01*
X987419Y208595D01*
X989298Y213130D01*
X992770Y216602D01*
X997305Y218481D01*
X1002215Y218481D01*
X1006750Y216602D01*
X1010222Y213130D01*
X1011017Y211210D01*
X1011052Y211149D01*
X1011078Y211085D01*
X1011130Y211012D01*
X1011175Y210934D01*
X1011223Y210884D01*
X1011264Y210827D01*
X1011334Y210770D01*
X1011396Y210705D01*
X1011456Y210669D01*
X1011509Y210624D01*
X1011591Y210586D01*
X1011667Y210539D01*
X1011734Y210519D01*
X1011797Y210489D01*
X1011885Y210472D01*
X1011971Y210446D01*
X1012041Y210442D01*
X1012110Y210429D01*
X1012199Y210435D01*
X1012289Y210430D01*
X1012357Y210445D01*
X1012427Y210449D01*
X1012512Y210477D01*
X1012600Y210495D01*
X1012663Y210525D01*
X1012729Y210547D01*
X1012805Y210595D01*
X1012886Y210634D01*
X1012939Y210680D01*
X1012998Y210717D01*
X1013060Y210783D01*
X1013128Y210841D01*
X1013168Y210898D01*
X1013216Y210949D01*
X1013259Y211027D01*
X1013311Y211101D01*
X1013336Y211166D01*
X1013370Y211227D01*
X1013392Y211314D01*
X1013424Y211398D01*
X1013432Y211468D01*
X1013449Y211535D01*
X1013459Y211696D01*
X1013459Y250584D01*
X1013451Y250653D01*
X1013452Y250723D01*
X1013431Y250811D01*
X1013419Y250900D01*
X1013394Y250965D01*
X1013377Y251032D01*
X1013335Y251112D01*
X1013302Y251195D01*
X1013261Y251252D01*
X1013229Y251314D01*
X1013168Y251380D01*
X1013116Y251453D01*
X1013062Y251497D01*
X1013015Y251549D01*
X1012940Y251598D01*
X1012871Y251656D01*
X1012807Y251685D01*
X1012749Y251724D01*
X1012664Y251753D01*
X1012583Y251791D01*
X1012514Y251804D01*
X1012448Y251827D01*
X1012359Y251834D01*
X1012271Y251851D01*
X1012201Y251847D01*
X1012131Y251852D01*
X1012043Y251837D01*
X1011953Y251831D01*
X1011887Y251810D01*
X1011818Y251798D01*
X1011736Y251761D01*
X1011651Y251733D01*
X1011592Y251696D01*
X1011528Y251667D01*
X1011458Y251611D01*
X1011382Y251563D01*
X1011334Y251512D01*
X1011280Y251469D01*
X1011225Y251397D01*
X1011164Y251331D01*
X1011130Y251270D01*
X1011088Y251214D01*
X1011017Y251070D01*
X1010222Y249150D01*
X1006750Y245678D01*
X1002215Y243799D01*
X997305Y243799D01*
X992770Y245678D01*
X989298Y249150D01*
X987419Y253685D01*
X987419Y258595D01*
X989298Y263130D01*
X992770Y266602D01*
X997305Y268481D01*
X1002215Y268481D01*
X1006750Y266602D01*
X1010222Y263130D01*
X1011017Y261210D01*
X1011052Y261149D01*
X1011078Y261085D01*
X1011130Y261012D01*
X1011175Y260934D01*
X1011223Y260884D01*
X1011264Y260827D01*
X1011334Y260770D01*
X1011396Y260705D01*
X1011456Y260669D01*
X1011509Y260624D01*
X1011591Y260586D01*
X1011667Y260539D01*
X1011734Y260519D01*
X1011797Y260489D01*
X1011885Y260472D01*
X1011971Y260446D01*
X1012041Y260442D01*
X1012110Y260429D01*
X1012199Y260435D01*
X1012289Y260430D01*
X1012357Y260445D01*
X1012427Y260449D01*
X1012512Y260477D01*
X1012600Y260495D01*
X1012663Y260525D01*
X1012729Y260547D01*
X1012805Y260595D01*
X1012886Y260634D01*
X1012939Y260680D01*
X1012998Y260717D01*
X1013060Y260783D01*
X1013128Y260841D01*
X1013168Y260898D01*
X1013216Y260949D01*
X1013259Y261027D01*
X1013311Y261101D01*
X1013336Y261166D01*
X1013370Y261227D01*
X1013392Y261314D01*
X1013424Y261398D01*
X1013432Y261468D01*
X1013449Y261535D01*
X1013459Y261696D01*
X1013459Y637464D01*
X1013451Y637533D01*
X1013452Y637603D01*
X1013431Y637691D01*
X1013419Y637780D01*
X1013394Y637845D01*
X1013377Y637912D01*
X1013335Y637992D01*
X1013302Y638075D01*
X1013261Y638132D01*
X1013229Y638194D01*
X1013168Y638260D01*
X1013116Y638333D01*
X1013062Y638377D01*
X1013015Y638429D01*
X1012940Y638478D01*
X1012871Y638536D01*
X1012807Y638565D01*
X1012749Y638604D01*
X1012664Y638633D01*
X1012583Y638671D01*
X1012514Y638684D01*
X1012448Y638707D01*
X1012359Y638714D01*
X1012271Y638731D01*
X1012201Y638727D01*
X1012131Y638732D01*
X1012043Y638717D01*
X1011953Y638711D01*
X1011887Y638690D01*
X1011818Y638678D01*
X1011736Y638641D01*
X1011651Y638613D01*
X1011592Y638576D01*
X1011528Y638547D01*
X1011458Y638491D01*
X1011382Y638443D01*
X1011334Y638392D01*
X1011280Y638349D01*
X1011225Y638277D01*
X1011164Y638211D01*
X1011130Y638150D01*
X1011088Y638094D01*
X1011017Y637950D01*
X1010222Y636030D01*
X1006750Y632558D01*
X1002215Y630679D01*
X997305Y630679D01*
X992770Y632558D01*
X989298Y636030D01*
X987419Y640565D01*
X987419Y645475D01*
X989298Y650010D01*
X992770Y653482D01*
X997305Y655361D01*
X1002215Y655361D01*
X1006750Y653482D01*
X1010222Y650010D01*
X1011017Y648090D01*
X1011029Y648069D01*
X1011036Y648050D01*
X1011058Y648014D01*
X1011078Y647965D01*
X1011130Y647892D01*
X1011175Y647814D01*
X1011204Y647784D01*
X1011206Y647781D01*
X1011218Y647770D01*
X1011223Y647764D01*
X1011264Y647707D01*
X1011334Y647650D01*
X1011396Y647585D01*
X1011456Y647549D01*
X1011509Y647504D01*
X1011591Y647466D01*
X1011667Y647419D01*
X1011734Y647399D01*
X1011797Y647369D01*
X1011885Y647352D01*
X1011971Y647326D01*
X1012041Y647322D01*
X1012110Y647309D01*
X1012199Y647315D01*
X1012289Y647310D01*
X1012357Y647325D01*
X1012427Y647329D01*
X1012512Y647357D01*
X1012600Y647375D01*
X1012663Y647405D01*
X1012729Y647427D01*
X1012805Y647475D01*
X1012886Y647514D01*
X1012939Y647560D01*
X1012998Y647597D01*
X1013060Y647663D01*
X1013128Y647721D01*
X1013168Y647778D01*
X1013216Y647829D01*
X1013257Y647903D01*
X1013261Y647908D01*
X1013264Y647914D01*
X1013311Y647981D01*
X1013336Y648046D01*
X1013370Y648107D01*
X1013387Y648175D01*
X1013397Y648196D01*
X1013401Y648218D01*
X1013424Y648278D01*
X1013432Y648348D01*
X1013449Y648415D01*
X1013454Y648495D01*
X1013457Y648508D01*
X1013456Y648522D01*
X1013459Y648576D01*
X1013459Y687464D01*
X1013451Y687533D01*
X1013452Y687603D01*
X1013431Y687691D01*
X1013419Y687780D01*
X1013394Y687845D01*
X1013377Y687912D01*
X1013335Y687992D01*
X1013302Y688075D01*
X1013261Y688132D01*
X1013229Y688194D01*
X1013168Y688260D01*
X1013116Y688333D01*
X1013062Y688377D01*
X1013015Y688429D01*
X1012940Y688478D01*
X1012871Y688536D01*
X1012807Y688565D01*
X1012749Y688604D01*
X1012664Y688633D01*
X1012583Y688671D01*
X1012514Y688684D01*
X1012448Y688707D01*
X1012359Y688714D01*
X1012271Y688731D01*
X1012201Y688727D01*
X1012131Y688732D01*
X1012043Y688717D01*
X1011953Y688711D01*
X1011887Y688690D01*
X1011818Y688678D01*
X1011736Y688641D01*
X1011651Y688613D01*
X1011592Y688576D01*
X1011528Y688547D01*
X1011458Y688491D01*
X1011382Y688443D01*
X1011334Y688392D01*
X1011280Y688349D01*
X1011225Y688277D01*
X1011164Y688211D01*
X1011130Y688150D01*
X1011088Y688094D01*
X1011017Y687950D01*
X1010222Y686030D01*
X1006750Y682558D01*
X1002215Y680679D01*
X997305Y680679D01*
X992770Y682558D01*
X989298Y686030D01*
X987419Y690565D01*
X987419Y695475D01*
X989298Y700010D01*
X992770Y703482D01*
X997305Y705361D01*
X1002215Y705361D01*
X1006750Y703482D01*
X1010222Y700010D01*
X1011017Y698090D01*
X1011052Y698029D01*
X1011078Y697965D01*
X1011130Y697892D01*
X1011175Y697814D01*
X1011223Y697764D01*
X1011264Y697707D01*
X1011334Y697650D01*
X1011396Y697585D01*
X1011456Y697549D01*
X1011509Y697504D01*
X1011591Y697466D01*
X1011667Y697419D01*
X1011734Y697399D01*
X1011797Y697369D01*
X1011885Y697352D01*
X1011971Y697326D01*
X1012041Y697322D01*
X1012110Y697309D01*
X1012199Y697315D01*
X1012289Y697310D01*
X1012357Y697325D01*
X1012427Y697329D01*
X1012512Y697357D01*
X1012600Y697375D01*
X1012663Y697405D01*
X1012729Y697427D01*
X1012805Y697475D01*
X1012886Y697514D01*
X1012939Y697560D01*
X1012998Y697597D01*
X1013060Y697663D01*
X1013128Y697721D01*
X1013168Y697778D01*
X1013216Y697829D01*
X1013259Y697907D01*
X1013311Y697981D01*
X1013336Y698046D01*
X1013370Y698107D01*
X1013392Y698194D01*
X1013424Y698278D01*
X1013432Y698348D01*
X1013449Y698415D01*
X1013459Y698576D01*
X1013459Y758190D01*
X1013444Y758308D01*
X1013437Y758427D01*
X1013424Y758465D01*
X1013419Y758506D01*
X1013376Y758616D01*
X1013339Y758729D01*
X1013317Y758764D01*
X1013302Y758801D01*
X1013233Y758897D01*
X1013169Y758998D01*
X1013139Y759026D01*
X1013116Y759059D01*
X1013024Y759135D01*
X1012937Y759216D01*
X1012902Y759236D01*
X1012871Y759261D01*
X1012763Y759312D01*
X1012659Y759370D01*
X1012619Y759380D01*
X1012583Y759397D01*
X1012466Y759419D01*
X1012351Y759449D01*
X1012291Y759453D01*
X1012271Y759457D01*
X1012250Y759455D01*
X1012190Y759459D01*
X164991Y759459D01*
X164922Y759451D01*
X164852Y759452D01*
X164765Y759431D01*
X164675Y759419D01*
X164611Y759394D01*
X164543Y759377D01*
X164463Y759335D01*
X164380Y759302D01*
X164323Y759261D01*
X164262Y759229D01*
X164195Y759168D01*
X164122Y759116D01*
X164078Y759062D01*
X164026Y759015D01*
X163977Y758940D01*
X163920Y758871D01*
X163890Y758807D01*
X163852Y758749D01*
X163822Y758664D01*
X163784Y758583D01*
X163771Y758514D01*
X163748Y758448D01*
X163741Y758359D01*
X163724Y758271D01*
X163729Y758201D01*
X163723Y758131D01*
X163739Y758043D01*
X163744Y757953D01*
X163766Y757887D01*
X163778Y757818D01*
X163814Y757736D01*
X163842Y757651D01*
X163879Y757592D01*
X163908Y757528D01*
X163964Y757458D01*
X164012Y757382D01*
X164063Y757334D01*
X164107Y757280D01*
X164178Y757225D01*
X164244Y757164D01*
X164305Y757130D01*
X164361Y757088D01*
X164505Y757017D01*
X165709Y756519D01*
X172319Y749909D01*
X175896Y741274D01*
X175896Y731926D01*
X172319Y723291D01*
X165709Y716681D01*
X157074Y713104D01*
X147726Y713104D01*
X139091Y716681D01*
X132481Y723291D01*
X128904Y731926D01*
X128904Y741274D01*
X132481Y749909D01*
X139091Y756519D01*
X140295Y757017D01*
X140355Y757052D01*
X140420Y757078D01*
X140493Y757130D01*
X140571Y757175D01*
X140621Y757223D01*
X140678Y757264D01*
X140735Y757334D01*
X140799Y757396D01*
X140836Y757456D01*
X140880Y757509D01*
X140919Y757591D01*
X140966Y757667D01*
X140986Y757734D01*
X141016Y757797D01*
X141033Y757885D01*
X141059Y757971D01*
X141063Y758041D01*
X141076Y758110D01*
X141070Y758199D01*
X141074Y758289D01*
X141060Y758357D01*
X141056Y758427D01*
X141028Y758512D01*
X141010Y758600D01*
X140979Y758663D01*
X140958Y758729D01*
X140910Y758805D01*
X140870Y758886D01*
X140825Y758939D01*
X140788Y758998D01*
X140722Y759060D01*
X140664Y759128D01*
X140607Y759168D01*
X140556Y759216D01*
X140477Y759259D01*
X140404Y759311D01*
X140339Y759336D01*
X140278Y759370D01*
X140191Y759392D01*
X140107Y759424D01*
X140037Y759432D01*
X139970Y759449D01*
X139809Y759459D01*
X3810Y759459D01*
X3692Y759444D01*
X3573Y759437D01*
X3535Y759424D01*
X3494Y759419D01*
X3384Y759376D01*
X3271Y759339D01*
X3236Y759317D01*
X3199Y759302D01*
X3103Y759233D01*
X3002Y759169D01*
X2974Y759139D01*
X2941Y759116D01*
X2865Y759024D01*
X2784Y758937D01*
X2764Y758902D01*
X2739Y758871D01*
X2688Y758763D01*
X2630Y758659D01*
X2620Y758619D01*
X2603Y758583D01*
X2581Y758466D01*
X2551Y758351D01*
X2547Y758291D01*
X2543Y758271D01*
X2545Y758250D01*
X2541Y758190D01*
X2541Y3810D01*
X2556Y3692D01*
X2563Y3573D01*
X2576Y3535D01*
X2581Y3494D01*
X2624Y3384D01*
X2661Y3271D01*
X2683Y3236D01*
X2698Y3199D01*
X2767Y3103D01*
X2831Y3002D01*
X2861Y2974D01*
X2884Y2941D01*
X2976Y2865D01*
X3063Y2784D01*
X3098Y2764D01*
X3129Y2739D01*
X3237Y2688D01*
X3341Y2630D01*
X3381Y2620D01*
X3417Y2603D01*
X3534Y2581D01*
X3649Y2551D01*
X3709Y2547D01*
X3729Y2543D01*
X3750Y2545D01*
X3810Y2541D01*
X147764Y2541D01*
X147902Y2558D01*
G37*
%LPC*%
G36*
X973226Y433704D02*
X973226Y433704D01*
X964591Y437281D01*
X957981Y443891D01*
X954404Y452526D01*
X954404Y461874D01*
X957981Y470509D01*
X964591Y477119D01*
X973226Y480696D01*
X982574Y480696D01*
X991209Y477119D01*
X997819Y470509D01*
X1001396Y461874D01*
X1001396Y452526D01*
X997819Y443891D01*
X991209Y437281D01*
X982574Y433704D01*
X973226Y433704D01*
G37*
%LPD*%
%LPC*%
G36*
X973226Y27304D02*
X973226Y27304D01*
X964591Y30881D01*
X957981Y37491D01*
X954404Y46126D01*
X954404Y55474D01*
X957981Y64109D01*
X964591Y70719D01*
X973226Y74296D01*
X982574Y74296D01*
X991209Y70719D01*
X997819Y64109D01*
X1001396Y55474D01*
X1001396Y46126D01*
X997819Y37491D01*
X991209Y30881D01*
X982574Y27304D01*
X973226Y27304D01*
G37*
%LPD*%
%LPC*%
G36*
X58826Y27304D02*
X58826Y27304D01*
X50191Y30881D01*
X43581Y37491D01*
X40004Y46126D01*
X40004Y55474D01*
X43581Y64109D01*
X50191Y70719D01*
X58826Y74296D01*
X68174Y74296D01*
X76809Y70719D01*
X83419Y64109D01*
X86996Y55474D01*
X86996Y46126D01*
X83419Y37491D01*
X76809Y30881D01*
X68174Y27304D01*
X58826Y27304D01*
G37*
%LPD*%
%LPC*%
G36*
X823540Y711439D02*
X823540Y711439D01*
X815226Y714883D01*
X808863Y721246D01*
X805419Y729560D01*
X805419Y738560D01*
X808863Y746874D01*
X815226Y753237D01*
X823540Y756681D01*
X832540Y756681D01*
X840854Y753237D01*
X847217Y746874D01*
X850661Y738560D01*
X850661Y729560D01*
X847217Y721246D01*
X840854Y714883D01*
X832540Y711439D01*
X823540Y711439D01*
G37*
%LPD*%
%LPC*%
G36*
X61540Y711439D02*
X61540Y711439D01*
X53226Y714883D01*
X46863Y721246D01*
X43419Y729560D01*
X43419Y738560D01*
X46863Y746874D01*
X53226Y753237D01*
X61540Y756681D01*
X70540Y756681D01*
X78854Y753237D01*
X85217Y746874D01*
X88661Y738560D01*
X88661Y729560D01*
X85217Y721246D01*
X78854Y714883D01*
X70540Y711439D01*
X61540Y711439D01*
G37*
%LPD*%
%LPC*%
G36*
X823540Y139939D02*
X823540Y139939D01*
X815226Y143383D01*
X808863Y149746D01*
X805419Y158060D01*
X805419Y167060D01*
X808863Y175374D01*
X815226Y181737D01*
X823540Y185181D01*
X832540Y185181D01*
X840854Y181737D01*
X847217Y175374D01*
X850661Y167060D01*
X850661Y158060D01*
X847217Y149746D01*
X840854Y143383D01*
X832540Y139939D01*
X823540Y139939D01*
G37*
%LPD*%
%LPC*%
G36*
X61540Y139939D02*
X61540Y139939D01*
X53226Y143383D01*
X46863Y149746D01*
X43419Y158060D01*
X43419Y167060D01*
X46863Y175374D01*
X53226Y181737D01*
X61540Y185181D01*
X70540Y185181D01*
X78854Y181737D01*
X85217Y175374D01*
X88661Y167060D01*
X88661Y158060D01*
X85217Y149746D01*
X78854Y143383D01*
X70540Y139939D01*
X61540Y139939D01*
G37*
%LPD*%
%LPC*%
G36*
X363692Y643459D02*
X363692Y643459D01*
X356841Y646297D01*
X351597Y651541D01*
X348759Y658392D01*
X348759Y665808D01*
X351597Y672659D01*
X356841Y677903D01*
X363692Y680741D01*
X371108Y680741D01*
X377959Y677903D01*
X383203Y672659D01*
X386041Y665808D01*
X386041Y658392D01*
X383203Y651541D01*
X377959Y646297D01*
X371108Y643459D01*
X363692Y643459D01*
G37*
%LPD*%
%LPC*%
G36*
X232292Y643459D02*
X232292Y643459D01*
X225441Y646297D01*
X220197Y651541D01*
X217359Y658392D01*
X217359Y665808D01*
X220197Y672659D01*
X225441Y677903D01*
X232292Y680741D01*
X239708Y680741D01*
X246559Y677903D01*
X251803Y672659D01*
X254641Y665808D01*
X254641Y658392D01*
X251803Y651541D01*
X246559Y646297D01*
X239708Y643459D01*
X232292Y643459D01*
G37*
%LPD*%
%LPC*%
G36*
X155608Y100999D02*
X155608Y100999D01*
X150080Y103289D01*
X145849Y107520D01*
X143559Y113048D01*
X143559Y119032D01*
X145849Y124560D01*
X150080Y128791D01*
X155608Y131081D01*
X161592Y131081D01*
X167120Y128791D01*
X171351Y124560D01*
X173641Y119032D01*
X173641Y113048D01*
X171351Y107520D01*
X167120Y103289D01*
X161592Y100999D01*
X155608Y100999D01*
G37*
%LPD*%
%LPC*%
G36*
X333408Y103539D02*
X333408Y103539D01*
X327880Y105829D01*
X323649Y110060D01*
X321359Y115588D01*
X321359Y121572D01*
X323649Y127100D01*
X327880Y131331D01*
X333408Y133621D01*
X339392Y133621D01*
X344920Y131331D01*
X349151Y127100D01*
X351441Y121572D01*
X351441Y115588D01*
X349151Y110060D01*
X344920Y105829D01*
X339392Y103539D01*
X333408Y103539D01*
G37*
%LPD*%
%LPC*%
G36*
X289914Y626019D02*
X289914Y626019D01*
X286613Y627386D01*
X284086Y629913D01*
X282719Y633214D01*
X282719Y636786D01*
X284086Y640087D01*
X286613Y642614D01*
X289914Y643981D01*
X293486Y643981D01*
X296787Y642614D01*
X299314Y640087D01*
X300527Y637157D01*
X300596Y637036D01*
X300661Y636913D01*
X300675Y636898D01*
X300685Y636880D01*
X300782Y636780D01*
X300875Y636678D01*
X300892Y636666D01*
X300906Y636652D01*
X301024Y636579D01*
X301141Y636503D01*
X301160Y636496D01*
X301177Y636486D01*
X301310Y636445D01*
X301442Y636400D01*
X301462Y636398D01*
X301481Y636392D01*
X301620Y636385D01*
X301759Y636374D01*
X301779Y636378D01*
X301799Y636377D01*
X301935Y636405D01*
X302072Y636429D01*
X302091Y636437D01*
X302110Y636441D01*
X302235Y636502D01*
X302362Y636559D01*
X302378Y636572D01*
X302396Y636581D01*
X302502Y636671D01*
X302610Y636758D01*
X302623Y636774D01*
X302638Y636787D01*
X302718Y636901D01*
X302802Y637012D01*
X302814Y637037D01*
X302821Y637047D01*
X302828Y637067D01*
X302873Y637157D01*
X304086Y640087D01*
X306613Y642614D01*
X309914Y643981D01*
X313486Y643981D01*
X316787Y642614D01*
X319314Y640087D01*
X320681Y636786D01*
X320681Y633214D01*
X319314Y629913D01*
X316787Y627386D01*
X313486Y626019D01*
X309914Y626019D01*
X306613Y627386D01*
X304086Y629913D01*
X302873Y632843D01*
X302804Y632964D01*
X302739Y633087D01*
X302725Y633102D01*
X302715Y633120D01*
X302618Y633220D01*
X302525Y633322D01*
X302508Y633333D01*
X302494Y633348D01*
X302375Y633421D01*
X302259Y633497D01*
X302240Y633504D01*
X302223Y633514D01*
X302090Y633555D01*
X301958Y633600D01*
X301938Y633602D01*
X301919Y633608D01*
X301780Y633615D01*
X301641Y633626D01*
X301621Y633622D01*
X301601Y633623D01*
X301465Y633595D01*
X301328Y633571D01*
X301309Y633563D01*
X301290Y633559D01*
X301164Y633497D01*
X301038Y633441D01*
X301022Y633428D01*
X301004Y633419D01*
X300898Y633329D01*
X300790Y633242D01*
X300777Y633226D01*
X300762Y633213D01*
X300682Y633099D01*
X300598Y632988D01*
X300586Y632963D01*
X300579Y632953D01*
X300572Y632933D01*
X300527Y632843D01*
X299314Y629913D01*
X296787Y627386D01*
X293486Y626019D01*
X289914Y626019D01*
G37*
%LPD*%
%LPC*%
G36*
X872305Y630679D02*
X872305Y630679D01*
X867770Y632558D01*
X864298Y636030D01*
X862419Y640565D01*
X862419Y645475D01*
X864298Y650010D01*
X867271Y652984D01*
X867314Y653039D01*
X867364Y653088D01*
X867411Y653164D01*
X867466Y653235D01*
X867494Y653299D01*
X867531Y653359D01*
X867557Y653444D01*
X867593Y653527D01*
X867604Y653596D01*
X867624Y653663D01*
X867628Y653752D01*
X867643Y653841D01*
X867636Y653911D01*
X867639Y653980D01*
X867637Y653990D01*
X867694Y653950D01*
X867778Y653918D01*
X867858Y653877D01*
X867926Y653862D01*
X867992Y653837D01*
X868081Y653827D01*
X868169Y653808D01*
X868238Y653810D01*
X868308Y653802D01*
X868397Y653815D01*
X868487Y653817D01*
X868554Y653837D01*
X868623Y653846D01*
X868775Y653898D01*
X872305Y655361D01*
X877215Y655361D01*
X881750Y653482D01*
X885222Y650010D01*
X887101Y645475D01*
X887101Y640565D01*
X885222Y636030D01*
X881750Y632558D01*
X877215Y630679D01*
X872305Y630679D01*
G37*
%LPD*%
%LPC*%
G36*
X872305Y680679D02*
X872305Y680679D01*
X867770Y682558D01*
X864298Y686030D01*
X862419Y690565D01*
X862419Y695475D01*
X864298Y700010D01*
X867770Y703482D01*
X872305Y705361D01*
X877215Y705361D01*
X881750Y703482D01*
X885222Y700010D01*
X887101Y695475D01*
X887101Y690565D01*
X885222Y686030D01*
X881750Y682558D01*
X877215Y680679D01*
X872305Y680679D01*
G37*
%LPD*%
%LPC*%
G36*
X872305Y243799D02*
X872305Y243799D01*
X867770Y245678D01*
X864298Y249150D01*
X862419Y253685D01*
X862419Y258595D01*
X864298Y263130D01*
X867770Y266602D01*
X872305Y268481D01*
X877215Y268481D01*
X881750Y266602D01*
X885222Y263130D01*
X887101Y258595D01*
X887101Y253685D01*
X885222Y249150D01*
X881750Y245678D01*
X877215Y243799D01*
X872305Y243799D01*
G37*
%LPD*%
%LPC*%
G36*
X872305Y193799D02*
X872305Y193799D01*
X867770Y195678D01*
X864298Y199150D01*
X862419Y203685D01*
X862419Y208595D01*
X864298Y213130D01*
X867770Y216602D01*
X872305Y218481D01*
X877215Y218481D01*
X881750Y216602D01*
X885222Y213130D01*
X887101Y208595D01*
X887101Y203685D01*
X885222Y199150D01*
X881750Y195678D01*
X877215Y193799D01*
X872305Y193799D01*
G37*
%LPD*%
%LPC*%
G36*
X826142Y654669D02*
X826142Y654669D01*
X822636Y656122D01*
X819952Y658806D01*
X818499Y662312D01*
X818499Y666108D01*
X819952Y669614D01*
X822636Y672298D01*
X826142Y673751D01*
X829938Y673751D01*
X833444Y672298D01*
X836128Y669614D01*
X837581Y666108D01*
X837581Y662312D01*
X836128Y658806D01*
X833444Y656122D01*
X829938Y654669D01*
X826142Y654669D01*
G37*
%LPD*%
%LPC*%
G36*
X826142Y248269D02*
X826142Y248269D01*
X822636Y249722D01*
X819952Y252406D01*
X818499Y255912D01*
X818499Y259708D01*
X819952Y263214D01*
X822636Y265898D01*
X826142Y267351D01*
X829938Y267351D01*
X833444Y265898D01*
X836128Y263214D01*
X837581Y259708D01*
X837581Y255912D01*
X836128Y252406D01*
X833444Y249722D01*
X829938Y248269D01*
X826142Y248269D01*
G37*
%LPD*%
%LPC*%
G36*
X826142Y273669D02*
X826142Y273669D01*
X822636Y275122D01*
X819952Y277806D01*
X818499Y281312D01*
X818499Y285108D01*
X819952Y288614D01*
X822636Y291298D01*
X826142Y292751D01*
X829938Y292751D01*
X833444Y291298D01*
X836128Y288614D01*
X837581Y285108D01*
X837581Y281312D01*
X836128Y277806D01*
X833444Y275122D01*
X829938Y273669D01*
X826142Y273669D01*
G37*
%LPD*%
%LPC*%
G36*
X826142Y603869D02*
X826142Y603869D01*
X822636Y605322D01*
X819952Y608006D01*
X818499Y611512D01*
X818499Y615308D01*
X819952Y618814D01*
X822636Y621498D01*
X826142Y622951D01*
X829938Y622951D01*
X833444Y621498D01*
X836128Y618814D01*
X837581Y615308D01*
X837581Y611512D01*
X836128Y608006D01*
X833444Y605322D01*
X829938Y603869D01*
X826142Y603869D01*
G37*
%LPD*%
%LPC*%
G36*
X64142Y603869D02*
X64142Y603869D01*
X60636Y605322D01*
X57952Y608006D01*
X56499Y611512D01*
X56499Y615308D01*
X57952Y618814D01*
X60636Y621498D01*
X64142Y622951D01*
X67938Y622951D01*
X71444Y621498D01*
X74128Y618814D01*
X75581Y615308D01*
X75581Y611512D01*
X74128Y608006D01*
X71444Y605322D01*
X67938Y603869D01*
X64142Y603869D01*
G37*
%LPD*%
%LPC*%
G36*
X826142Y578469D02*
X826142Y578469D01*
X822636Y579922D01*
X819952Y582606D01*
X818499Y586112D01*
X818499Y589908D01*
X819952Y593414D01*
X822636Y596098D01*
X826142Y597551D01*
X829938Y597551D01*
X833444Y596098D01*
X836128Y593414D01*
X837581Y589908D01*
X837581Y586112D01*
X836128Y582606D01*
X833444Y579922D01*
X829938Y578469D01*
X826142Y578469D01*
G37*
%LPD*%
%LPC*%
G36*
X64142Y578469D02*
X64142Y578469D01*
X60636Y579922D01*
X57952Y582606D01*
X56499Y586112D01*
X56499Y589908D01*
X57952Y593414D01*
X60636Y596098D01*
X64142Y597551D01*
X67938Y597551D01*
X71444Y596098D01*
X74128Y593414D01*
X75581Y589908D01*
X75581Y586112D01*
X74128Y582606D01*
X71444Y579922D01*
X67938Y578469D01*
X64142Y578469D01*
G37*
%LPD*%
%LPC*%
G36*
X826142Y553069D02*
X826142Y553069D01*
X822636Y554522D01*
X819952Y557206D01*
X818499Y560712D01*
X818499Y564508D01*
X819952Y568014D01*
X822636Y570698D01*
X826142Y572151D01*
X829938Y572151D01*
X833444Y570698D01*
X836128Y568014D01*
X837581Y564508D01*
X837581Y560712D01*
X836128Y557206D01*
X833444Y554522D01*
X829938Y553069D01*
X826142Y553069D01*
G37*
%LPD*%
%LPC*%
G36*
X64142Y553069D02*
X64142Y553069D01*
X60636Y554522D01*
X57952Y557206D01*
X56499Y560712D01*
X56499Y564508D01*
X57952Y568014D01*
X60636Y570698D01*
X64142Y572151D01*
X67938Y572151D01*
X71444Y570698D01*
X74128Y568014D01*
X75581Y564508D01*
X75581Y560712D01*
X74128Y557206D01*
X71444Y554522D01*
X67938Y553069D01*
X64142Y553069D01*
G37*
%LPD*%
%LPC*%
G36*
X826142Y527669D02*
X826142Y527669D01*
X822636Y529122D01*
X819952Y531806D01*
X818499Y535312D01*
X818499Y539108D01*
X819952Y542614D01*
X822636Y545298D01*
X826142Y546751D01*
X829938Y546751D01*
X833444Y545298D01*
X836128Y542614D01*
X837581Y539108D01*
X837581Y535312D01*
X836128Y531806D01*
X833444Y529122D01*
X829938Y527669D01*
X826142Y527669D01*
G37*
%LPD*%
%LPC*%
G36*
X64142Y527669D02*
X64142Y527669D01*
X60636Y529122D01*
X57952Y531806D01*
X56499Y535312D01*
X56499Y539108D01*
X57952Y542614D01*
X60636Y545298D01*
X64142Y546751D01*
X67938Y546751D01*
X71444Y545298D01*
X74128Y542614D01*
X75581Y539108D01*
X75581Y535312D01*
X74128Y531806D01*
X71444Y529122D01*
X67938Y527669D01*
X64142Y527669D01*
G37*
%LPD*%
%LPC*%
G36*
X826142Y502269D02*
X826142Y502269D01*
X822636Y503722D01*
X819952Y506406D01*
X818499Y509912D01*
X818499Y513708D01*
X819952Y517214D01*
X822636Y519898D01*
X826142Y521351D01*
X829938Y521351D01*
X833444Y519898D01*
X836128Y517214D01*
X837581Y513708D01*
X837581Y509912D01*
X836128Y506406D01*
X833444Y503722D01*
X829938Y502269D01*
X826142Y502269D01*
G37*
%LPD*%
%LPC*%
G36*
X64142Y502269D02*
X64142Y502269D01*
X60636Y503722D01*
X57952Y506406D01*
X56499Y509912D01*
X56499Y513708D01*
X57952Y517214D01*
X60636Y519898D01*
X64142Y521351D01*
X67938Y521351D01*
X71444Y519898D01*
X74128Y517214D01*
X75581Y513708D01*
X75581Y509912D01*
X74128Y506406D01*
X71444Y503722D01*
X67938Y502269D01*
X64142Y502269D01*
G37*
%LPD*%
%LPC*%
G36*
X826142Y324469D02*
X826142Y324469D01*
X822636Y325922D01*
X819952Y328606D01*
X818499Y332112D01*
X818499Y335908D01*
X819952Y339414D01*
X822636Y342098D01*
X826142Y343551D01*
X829938Y343551D01*
X833444Y342098D01*
X836128Y339414D01*
X837581Y335908D01*
X837581Y332112D01*
X836128Y328606D01*
X833444Y325922D01*
X829938Y324469D01*
X826142Y324469D01*
G37*
%LPD*%
%LPC*%
G36*
X826142Y349869D02*
X826142Y349869D01*
X822636Y351322D01*
X819952Y354006D01*
X818499Y357512D01*
X818499Y361308D01*
X819952Y364814D01*
X822636Y367498D01*
X826142Y368951D01*
X829938Y368951D01*
X833444Y367498D01*
X836128Y364814D01*
X837581Y361308D01*
X837581Y357512D01*
X836128Y354006D01*
X833444Y351322D01*
X829938Y349869D01*
X826142Y349869D01*
G37*
%LPD*%
%LPC*%
G36*
X826142Y400669D02*
X826142Y400669D01*
X822636Y402122D01*
X819952Y404806D01*
X818499Y408312D01*
X818499Y412108D01*
X819952Y415614D01*
X822636Y418298D01*
X826142Y419751D01*
X829938Y419751D01*
X833444Y418298D01*
X836128Y415614D01*
X837581Y412108D01*
X837581Y408312D01*
X836128Y404806D01*
X833444Y402122D01*
X829938Y400669D01*
X826142Y400669D01*
G37*
%LPD*%
%LPC*%
G36*
X64142Y400669D02*
X64142Y400669D01*
X60636Y402122D01*
X57952Y404806D01*
X56499Y408312D01*
X56499Y412108D01*
X57952Y415614D01*
X60636Y418298D01*
X64142Y419751D01*
X67938Y419751D01*
X71444Y418298D01*
X74128Y415614D01*
X75581Y412108D01*
X75581Y408312D01*
X74128Y404806D01*
X71444Y402122D01*
X67938Y400669D01*
X64142Y400669D01*
G37*
%LPD*%
%LPC*%
G36*
X826142Y476869D02*
X826142Y476869D01*
X822636Y478322D01*
X819952Y481006D01*
X818499Y484512D01*
X818499Y488308D01*
X819952Y491814D01*
X822636Y494498D01*
X826142Y495951D01*
X829938Y495951D01*
X833444Y494498D01*
X836128Y491814D01*
X837581Y488308D01*
X837581Y484512D01*
X836128Y481006D01*
X833444Y478322D01*
X829938Y476869D01*
X826142Y476869D01*
G37*
%LPD*%
%LPC*%
G36*
X64142Y476869D02*
X64142Y476869D01*
X60636Y478322D01*
X57952Y481006D01*
X56499Y484512D01*
X56499Y488308D01*
X57952Y491814D01*
X60636Y494498D01*
X64142Y495951D01*
X67938Y495951D01*
X71444Y494498D01*
X74128Y491814D01*
X75581Y488308D01*
X75581Y484512D01*
X74128Y481006D01*
X71444Y478322D01*
X67938Y476869D01*
X64142Y476869D01*
G37*
%LPD*%
%LPC*%
G36*
X64142Y349869D02*
X64142Y349869D01*
X60636Y351322D01*
X57952Y354006D01*
X56499Y357512D01*
X56499Y361308D01*
X57952Y364814D01*
X60636Y367498D01*
X64142Y368951D01*
X67938Y368951D01*
X71444Y367498D01*
X74128Y364814D01*
X75581Y361308D01*
X75581Y357512D01*
X74128Y354006D01*
X71444Y351322D01*
X67938Y349869D01*
X64142Y349869D01*
G37*
%LPD*%
%LPC*%
G36*
X64142Y324469D02*
X64142Y324469D01*
X60636Y325922D01*
X57952Y328606D01*
X56499Y332112D01*
X56499Y335908D01*
X57952Y339414D01*
X60636Y342098D01*
X64142Y343551D01*
X67938Y343551D01*
X71444Y342098D01*
X74128Y339414D01*
X75581Y335908D01*
X75581Y332112D01*
X74128Y328606D01*
X71444Y325922D01*
X67938Y324469D01*
X64142Y324469D01*
G37*
%LPD*%
%LPC*%
G36*
X64142Y248269D02*
X64142Y248269D01*
X60636Y249722D01*
X57952Y252406D01*
X56499Y255912D01*
X56499Y259708D01*
X57952Y263214D01*
X60636Y265898D01*
X64142Y267351D01*
X67938Y267351D01*
X71444Y265898D01*
X74128Y263214D01*
X75581Y259708D01*
X75581Y255912D01*
X74128Y252406D01*
X71444Y249722D01*
X67938Y248269D01*
X64142Y248269D01*
G37*
%LPD*%
%LPC*%
G36*
X826142Y451469D02*
X826142Y451469D01*
X822636Y452922D01*
X819952Y455606D01*
X818499Y459112D01*
X818499Y462908D01*
X819952Y466414D01*
X822636Y469098D01*
X826142Y470551D01*
X829938Y470551D01*
X833444Y469098D01*
X836128Y466414D01*
X837581Y462908D01*
X837581Y459112D01*
X836128Y455606D01*
X833444Y452922D01*
X829938Y451469D01*
X826142Y451469D01*
G37*
%LPD*%
%LPC*%
G36*
X64142Y451469D02*
X64142Y451469D01*
X60636Y452922D01*
X57952Y455606D01*
X56499Y459112D01*
X56499Y462908D01*
X57952Y466414D01*
X60636Y469098D01*
X64142Y470551D01*
X67938Y470551D01*
X71444Y469098D01*
X74128Y466414D01*
X75581Y462908D01*
X75581Y459112D01*
X74128Y455606D01*
X71444Y452922D01*
X67938Y451469D01*
X64142Y451469D01*
G37*
%LPD*%
%LPC*%
G36*
X64142Y299069D02*
X64142Y299069D01*
X60636Y300522D01*
X57952Y303206D01*
X56499Y306712D01*
X56499Y310508D01*
X57952Y314014D01*
X60636Y316698D01*
X64142Y318151D01*
X67938Y318151D01*
X71444Y316698D01*
X74128Y314014D01*
X75581Y310508D01*
X75581Y306712D01*
X74128Y303206D01*
X71444Y300522D01*
X67938Y299069D01*
X64142Y299069D01*
G37*
%LPD*%
%LPC*%
G36*
X826142Y375269D02*
X826142Y375269D01*
X822636Y376722D01*
X819952Y379406D01*
X818499Y382912D01*
X818499Y386708D01*
X819952Y390214D01*
X822636Y392898D01*
X826142Y394351D01*
X829938Y394351D01*
X833444Y392898D01*
X836128Y390214D01*
X837581Y386708D01*
X837581Y382912D01*
X836128Y379406D01*
X833444Y376722D01*
X829938Y375269D01*
X826142Y375269D01*
G37*
%LPD*%
%LPC*%
G36*
X64142Y375269D02*
X64142Y375269D01*
X60636Y376722D01*
X57952Y379406D01*
X56499Y382912D01*
X56499Y386708D01*
X57952Y390214D01*
X60636Y392898D01*
X64142Y394351D01*
X67938Y394351D01*
X71444Y392898D01*
X74128Y390214D01*
X75581Y386708D01*
X75581Y382912D01*
X74128Y379406D01*
X71444Y376722D01*
X67938Y375269D01*
X64142Y375269D01*
G37*
%LPD*%
%LPC*%
G36*
X826142Y299069D02*
X826142Y299069D01*
X822636Y300522D01*
X819952Y303206D01*
X818499Y306712D01*
X818499Y310508D01*
X819952Y314014D01*
X822636Y316698D01*
X826142Y318151D01*
X829938Y318151D01*
X833444Y316698D01*
X836128Y314014D01*
X837581Y310508D01*
X837581Y306712D01*
X836128Y303206D01*
X833444Y300522D01*
X829938Y299069D01*
X826142Y299069D01*
G37*
%LPD*%
%LPC*%
G36*
X826142Y680069D02*
X826142Y680069D01*
X822636Y681522D01*
X819952Y684206D01*
X818499Y687712D01*
X818499Y691508D01*
X819952Y695014D01*
X822636Y697698D01*
X826142Y699151D01*
X829938Y699151D01*
X833444Y697698D01*
X836128Y695014D01*
X837581Y691508D01*
X837581Y687712D01*
X836128Y684206D01*
X833444Y681522D01*
X829938Y680069D01*
X826142Y680069D01*
G37*
%LPD*%
%LPC*%
G36*
X64142Y426069D02*
X64142Y426069D01*
X60636Y427522D01*
X57952Y430206D01*
X56499Y433712D01*
X56499Y437508D01*
X57952Y441014D01*
X60636Y443698D01*
X64142Y445151D01*
X67938Y445151D01*
X71444Y443698D01*
X74128Y441014D01*
X75581Y437508D01*
X75581Y433712D01*
X74128Y430206D01*
X71444Y427522D01*
X67938Y426069D01*
X64142Y426069D01*
G37*
%LPD*%
%LPC*%
G36*
X64142Y273669D02*
X64142Y273669D01*
X60636Y275122D01*
X57952Y277806D01*
X56499Y281312D01*
X56499Y285108D01*
X57952Y288614D01*
X60636Y291298D01*
X64142Y292751D01*
X67938Y292751D01*
X71444Y291298D01*
X74128Y288614D01*
X75581Y285108D01*
X75581Y281312D01*
X74128Y277806D01*
X71444Y275122D01*
X67938Y273669D01*
X64142Y273669D01*
G37*
%LPD*%
%LPC*%
G36*
X826142Y197469D02*
X826142Y197469D01*
X822636Y198922D01*
X819952Y201606D01*
X818499Y205112D01*
X818499Y208908D01*
X819952Y212414D01*
X822636Y215098D01*
X826142Y216551D01*
X829938Y216551D01*
X833444Y215098D01*
X836128Y212414D01*
X837581Y208908D01*
X837581Y205112D01*
X836128Y201606D01*
X833444Y198922D01*
X829938Y197469D01*
X826142Y197469D01*
G37*
%LPD*%
%LPC*%
G36*
X64142Y197469D02*
X64142Y197469D01*
X60636Y198922D01*
X57952Y201606D01*
X56499Y205112D01*
X56499Y208908D01*
X57952Y212414D01*
X60636Y215098D01*
X64142Y216551D01*
X67938Y216551D01*
X71444Y215098D01*
X74128Y212414D01*
X75581Y208908D01*
X75581Y205112D01*
X74128Y201606D01*
X71444Y198922D01*
X67938Y197469D01*
X64142Y197469D01*
G37*
%LPD*%
%LPC*%
G36*
X64142Y680069D02*
X64142Y680069D01*
X60636Y681522D01*
X57952Y684206D01*
X56499Y687712D01*
X56499Y691508D01*
X57952Y695014D01*
X60636Y697698D01*
X64142Y699151D01*
X67938Y699151D01*
X71444Y697698D01*
X74128Y695014D01*
X75581Y691508D01*
X75581Y687712D01*
X74128Y684206D01*
X71444Y681522D01*
X67938Y680069D01*
X64142Y680069D01*
G37*
%LPD*%
%LPC*%
G36*
X64142Y654669D02*
X64142Y654669D01*
X60636Y656122D01*
X57952Y658806D01*
X56499Y662312D01*
X56499Y666108D01*
X57952Y669614D01*
X60636Y672298D01*
X64142Y673751D01*
X67938Y673751D01*
X71444Y672298D01*
X74128Y669614D01*
X75581Y666108D01*
X75581Y662312D01*
X74128Y658806D01*
X71444Y656122D01*
X67938Y654669D01*
X64142Y654669D01*
G37*
%LPD*%
%LPC*%
G36*
X826142Y629269D02*
X826142Y629269D01*
X822636Y630722D01*
X819952Y633406D01*
X818499Y636912D01*
X818499Y640708D01*
X819952Y644214D01*
X822636Y646898D01*
X826142Y648351D01*
X829938Y648351D01*
X833444Y646898D01*
X836128Y644214D01*
X837581Y640708D01*
X837581Y636912D01*
X836128Y633406D01*
X833444Y630722D01*
X829938Y629269D01*
X826142Y629269D01*
G37*
%LPD*%
%LPC*%
G36*
X826142Y426069D02*
X826142Y426069D01*
X822636Y427522D01*
X819952Y430206D01*
X818499Y433712D01*
X818499Y437508D01*
X819952Y441014D01*
X822636Y443698D01*
X826142Y445151D01*
X829938Y445151D01*
X833444Y443698D01*
X836128Y441014D01*
X837581Y437508D01*
X837581Y433712D01*
X836128Y430206D01*
X833444Y427522D01*
X829938Y426069D01*
X826142Y426069D01*
G37*
%LPD*%
%LPC*%
G36*
X404502Y84039D02*
X404502Y84039D01*
X400996Y85492D01*
X398312Y88176D01*
X396859Y91682D01*
X396859Y95478D01*
X398312Y98984D01*
X400996Y101668D01*
X404502Y103121D01*
X408298Y103121D01*
X411804Y101668D01*
X414488Y98984D01*
X415941Y95478D01*
X415941Y91682D01*
X414488Y88176D01*
X411804Y85492D01*
X408298Y84039D01*
X404502Y84039D01*
G37*
%LPD*%
%LPC*%
G36*
X226702Y81499D02*
X226702Y81499D01*
X223196Y82952D01*
X220512Y85636D01*
X219059Y89142D01*
X219059Y92938D01*
X220512Y96444D01*
X223196Y99128D01*
X226702Y100581D01*
X230498Y100581D01*
X234004Y99128D01*
X236688Y96444D01*
X238141Y92938D01*
X238141Y89142D01*
X236688Y85636D01*
X234004Y82952D01*
X230498Y81499D01*
X226702Y81499D01*
G37*
%LPD*%
%LPC*%
G36*
X404502Y59039D02*
X404502Y59039D01*
X400996Y60492D01*
X398312Y63176D01*
X396859Y66682D01*
X396859Y70478D01*
X398312Y73984D01*
X400996Y76668D01*
X404502Y78121D01*
X408298Y78121D01*
X411804Y76668D01*
X414488Y73984D01*
X415941Y70478D01*
X415941Y66682D01*
X414488Y63176D01*
X411804Y60492D01*
X408298Y59039D01*
X404502Y59039D01*
G37*
%LPD*%
%LPC*%
G36*
X226702Y56499D02*
X226702Y56499D01*
X223196Y57952D01*
X220512Y60636D01*
X219059Y64142D01*
X219059Y67938D01*
X220512Y71444D01*
X223196Y74128D01*
X226702Y75581D01*
X230498Y75581D01*
X234004Y74128D01*
X236688Y71444D01*
X238141Y67938D01*
X238141Y64142D01*
X236688Y60636D01*
X234004Y57952D01*
X230498Y56499D01*
X226702Y56499D01*
G37*
%LPD*%
%LPC*%
G36*
X64142Y222869D02*
X64142Y222869D01*
X60636Y224322D01*
X57952Y227006D01*
X56499Y230512D01*
X56499Y234308D01*
X57952Y237814D01*
X60636Y240498D01*
X64142Y241951D01*
X67938Y241951D01*
X71444Y240498D01*
X74128Y237814D01*
X75581Y234308D01*
X75581Y230512D01*
X74128Y227006D01*
X71444Y224322D01*
X67938Y222869D01*
X64142Y222869D01*
G37*
%LPD*%
%LPC*%
G36*
X826142Y222869D02*
X826142Y222869D01*
X822636Y224322D01*
X819952Y227006D01*
X818499Y230512D01*
X818499Y234308D01*
X819952Y237814D01*
X822636Y240498D01*
X826142Y241951D01*
X829938Y241951D01*
X833444Y240498D01*
X836128Y237814D01*
X837581Y234308D01*
X837581Y230512D01*
X836128Y227006D01*
X833444Y224322D01*
X829938Y222869D01*
X826142Y222869D01*
G37*
%LPD*%
%LPC*%
G36*
X404502Y34039D02*
X404502Y34039D01*
X400996Y35492D01*
X398312Y38176D01*
X396859Y41682D01*
X396859Y45478D01*
X398312Y48984D01*
X400996Y51668D01*
X404502Y53121D01*
X408298Y53121D01*
X411804Y51668D01*
X414488Y48984D01*
X415941Y45478D01*
X415941Y41682D01*
X414488Y38176D01*
X411804Y35492D01*
X408298Y34039D01*
X404502Y34039D01*
G37*
%LPD*%
%LPC*%
G36*
X226702Y31499D02*
X226702Y31499D01*
X223196Y32952D01*
X220512Y35636D01*
X219059Y39142D01*
X219059Y42938D01*
X220512Y46444D01*
X223196Y49128D01*
X226702Y50581D01*
X230498Y50581D01*
X234004Y49128D01*
X236688Y46444D01*
X238141Y42938D01*
X238141Y39142D01*
X236688Y35636D01*
X234004Y32952D01*
X230498Y31499D01*
X226702Y31499D01*
G37*
%LPD*%
%LPC*%
G36*
X334914Y626019D02*
X334914Y626019D01*
X331613Y627386D01*
X329086Y629913D01*
X327719Y633214D01*
X327719Y636786D01*
X329086Y640087D01*
X331613Y642614D01*
X334914Y643981D01*
X338486Y643981D01*
X341787Y642614D01*
X344314Y640087D01*
X345681Y636786D01*
X345681Y633214D01*
X344314Y629913D01*
X341787Y627386D01*
X338486Y626019D01*
X334914Y626019D01*
G37*
%LPD*%
%LPC*%
G36*
X264914Y626019D02*
X264914Y626019D01*
X261613Y627386D01*
X259086Y629913D01*
X257719Y633214D01*
X257719Y636786D01*
X259086Y640087D01*
X261613Y642614D01*
X264914Y643981D01*
X268486Y643981D01*
X271787Y642614D01*
X274314Y640087D01*
X275681Y636786D01*
X275681Y633214D01*
X274314Y629913D01*
X271787Y627386D01*
X268486Y626019D01*
X264914Y626019D01*
G37*
%LPD*%
%LPC*%
G36*
X493297Y405936D02*
X493297Y405936D01*
X490076Y407270D01*
X487610Y409736D01*
X486276Y412957D01*
X486276Y416443D01*
X487610Y419664D01*
X490076Y422130D01*
X493297Y423464D01*
X496783Y423464D01*
X500004Y422130D01*
X502470Y419664D01*
X503804Y416443D01*
X503804Y412957D01*
X502470Y409736D01*
X500004Y407270D01*
X496783Y405936D01*
X493297Y405936D01*
G37*
%LPD*%
%LPC*%
G36*
X467897Y405936D02*
X467897Y405936D01*
X464676Y407270D01*
X462210Y409736D01*
X460876Y412957D01*
X460876Y416443D01*
X462210Y419664D01*
X464676Y422130D01*
X467897Y423464D01*
X471383Y423464D01*
X474604Y422130D01*
X477070Y419664D01*
X478404Y416443D01*
X478404Y412957D01*
X477070Y409736D01*
X474604Y407270D01*
X471383Y405936D01*
X467897Y405936D01*
G37*
%LPD*%
%LPC*%
G36*
X747297Y380536D02*
X747297Y380536D01*
X744076Y381870D01*
X741610Y384336D01*
X740276Y387557D01*
X740276Y391043D01*
X741610Y394264D01*
X744076Y396730D01*
X747297Y398064D01*
X750783Y398064D01*
X754004Y396730D01*
X756470Y394264D01*
X757804Y391043D01*
X757804Y387557D01*
X756470Y384336D01*
X754004Y381870D01*
X750783Y380536D01*
X747297Y380536D01*
G37*
%LPD*%
%LPC*%
G36*
X721897Y380536D02*
X721897Y380536D01*
X718676Y381870D01*
X716210Y384336D01*
X714876Y387557D01*
X714876Y391043D01*
X716210Y394264D01*
X718676Y396730D01*
X721897Y398064D01*
X725383Y398064D01*
X728604Y396730D01*
X731070Y394264D01*
X732404Y391043D01*
X732404Y387557D01*
X731070Y384336D01*
X728604Y381870D01*
X725383Y380536D01*
X721897Y380536D01*
G37*
%LPD*%
%LPC*%
G36*
X467897Y380536D02*
X467897Y380536D01*
X464676Y381870D01*
X462210Y384336D01*
X460876Y387557D01*
X460876Y391043D01*
X462210Y394264D01*
X464676Y396730D01*
X467897Y398064D01*
X471383Y398064D01*
X474604Y396730D01*
X477070Y394264D01*
X478404Y391043D01*
X478404Y387557D01*
X477070Y384336D01*
X474604Y381870D01*
X471383Y380536D01*
X467897Y380536D01*
G37*
%LPD*%
%LPC*%
G36*
X747297Y355136D02*
X747297Y355136D01*
X744076Y356470D01*
X741610Y358936D01*
X740276Y362157D01*
X740276Y365643D01*
X741610Y368864D01*
X744076Y371330D01*
X747297Y372664D01*
X750783Y372664D01*
X754004Y371330D01*
X756470Y368864D01*
X757804Y365643D01*
X757804Y362157D01*
X756470Y358936D01*
X754004Y356470D01*
X750783Y355136D01*
X747297Y355136D01*
G37*
%LPD*%
%LPC*%
G36*
X721897Y355136D02*
X721897Y355136D01*
X718676Y356470D01*
X716210Y358936D01*
X714876Y362157D01*
X714876Y365643D01*
X716210Y368864D01*
X718676Y371330D01*
X721897Y372664D01*
X725383Y372664D01*
X728604Y371330D01*
X731070Y368864D01*
X732404Y365643D01*
X732404Y362157D01*
X731070Y358936D01*
X728604Y356470D01*
X725383Y355136D01*
X721897Y355136D01*
G37*
%LPD*%
%LPC*%
G36*
X493297Y355136D02*
X493297Y355136D01*
X490076Y356470D01*
X487610Y358936D01*
X486276Y362157D01*
X486276Y365643D01*
X487610Y368864D01*
X490076Y371330D01*
X493297Y372664D01*
X496783Y372664D01*
X500004Y371330D01*
X502470Y368864D01*
X503804Y365643D01*
X503804Y362157D01*
X502470Y358936D01*
X500004Y356470D01*
X496783Y355136D01*
X493297Y355136D01*
G37*
%LPD*%
%LPC*%
G36*
X467897Y355136D02*
X467897Y355136D01*
X464676Y356470D01*
X462210Y358936D01*
X460876Y362157D01*
X460876Y365643D01*
X462210Y368864D01*
X464676Y371330D01*
X467897Y372664D01*
X471383Y372664D01*
X474604Y371330D01*
X477070Y368864D01*
X478404Y365643D01*
X478404Y362157D01*
X477070Y358936D01*
X474604Y356470D01*
X471383Y355136D01*
X467897Y355136D01*
G37*
%LPD*%
%LPC*%
G36*
X493297Y329736D02*
X493297Y329736D01*
X490076Y331070D01*
X487610Y333536D01*
X486276Y336757D01*
X486276Y340243D01*
X487610Y343464D01*
X490076Y345930D01*
X493297Y347264D01*
X496783Y347264D01*
X500004Y345930D01*
X502470Y343464D01*
X503804Y340243D01*
X503804Y336757D01*
X502470Y333536D01*
X500004Y331070D01*
X496783Y329736D01*
X493297Y329736D01*
G37*
%LPD*%
%LPC*%
G36*
X467897Y329736D02*
X467897Y329736D01*
X464676Y331070D01*
X462210Y333536D01*
X460876Y336757D01*
X460876Y340243D01*
X462210Y343464D01*
X464676Y345930D01*
X467897Y347264D01*
X471383Y347264D01*
X474604Y345930D01*
X477070Y343464D01*
X478404Y340243D01*
X478404Y336757D01*
X477070Y333536D01*
X474604Y331070D01*
X471383Y329736D01*
X467897Y329736D01*
G37*
%LPD*%
%LPC*%
G36*
X747297Y329736D02*
X747297Y329736D01*
X744076Y331070D01*
X741610Y333536D01*
X740276Y336757D01*
X740276Y340243D01*
X741610Y343464D01*
X744076Y345930D01*
X747297Y347264D01*
X750783Y347264D01*
X754004Y345930D01*
X756470Y343464D01*
X757804Y340243D01*
X757804Y336757D01*
X756470Y333536D01*
X754004Y331070D01*
X750783Y329736D01*
X747297Y329736D01*
G37*
%LPD*%
%LPC*%
G36*
X493297Y380536D02*
X493297Y380536D01*
X490076Y381870D01*
X487610Y384336D01*
X486276Y387557D01*
X486276Y391043D01*
X487610Y394264D01*
X490076Y396730D01*
X493297Y398064D01*
X496783Y398064D01*
X500004Y396730D01*
X502470Y394264D01*
X503804Y391043D01*
X503804Y387557D01*
X502470Y384336D01*
X500004Y381870D01*
X496783Y380536D01*
X493297Y380536D01*
G37*
%LPD*%
%LPC*%
G36*
X721897Y304336D02*
X721897Y304336D01*
X718676Y305670D01*
X716210Y308136D01*
X714876Y311357D01*
X714876Y314843D01*
X716210Y318064D01*
X718676Y320530D01*
X721897Y321864D01*
X725383Y321864D01*
X728604Y320530D01*
X731070Y318064D01*
X732404Y314843D01*
X732404Y311357D01*
X731070Y308136D01*
X728604Y305670D01*
X725383Y304336D01*
X721897Y304336D01*
G37*
%LPD*%
%LPC*%
G36*
X493297Y304336D02*
X493297Y304336D01*
X490076Y305670D01*
X487610Y308136D01*
X486276Y311357D01*
X486276Y314843D01*
X487610Y318064D01*
X490076Y320530D01*
X493297Y321864D01*
X496783Y321864D01*
X500004Y320530D01*
X502470Y318064D01*
X503804Y314843D01*
X503804Y311357D01*
X502470Y308136D01*
X500004Y305670D01*
X496783Y304336D01*
X493297Y304336D01*
G37*
%LPD*%
%LPC*%
G36*
X467897Y304336D02*
X467897Y304336D01*
X464676Y305670D01*
X462210Y308136D01*
X460876Y311357D01*
X460876Y314843D01*
X462210Y318064D01*
X464676Y320530D01*
X467897Y321864D01*
X471383Y321864D01*
X474604Y320530D01*
X477070Y318064D01*
X478404Y314843D01*
X478404Y311357D01*
X477070Y308136D01*
X474604Y305670D01*
X471383Y304336D01*
X467897Y304336D01*
G37*
%LPD*%
%LPC*%
G36*
X721897Y278936D02*
X721897Y278936D01*
X718676Y280270D01*
X716210Y282736D01*
X714876Y285957D01*
X714876Y289443D01*
X716210Y292664D01*
X718676Y295130D01*
X721897Y296464D01*
X725383Y296464D01*
X728604Y295130D01*
X731070Y292664D01*
X732404Y289443D01*
X732404Y285957D01*
X731070Y282736D01*
X728604Y280270D01*
X725383Y278936D01*
X721897Y278936D01*
G37*
%LPD*%
%LPC*%
G36*
X493297Y278936D02*
X493297Y278936D01*
X490076Y280270D01*
X487610Y282736D01*
X486276Y285957D01*
X486276Y289443D01*
X487610Y292664D01*
X490076Y295130D01*
X493297Y296464D01*
X496783Y296464D01*
X500004Y295130D01*
X502470Y292664D01*
X503804Y289443D01*
X503804Y285957D01*
X502470Y282736D01*
X500004Y280270D01*
X496783Y278936D01*
X493297Y278936D01*
G37*
%LPD*%
%LPC*%
G36*
X747297Y278936D02*
X747297Y278936D01*
X744076Y280270D01*
X741610Y282736D01*
X740276Y285957D01*
X740276Y289443D01*
X741610Y292664D01*
X744076Y295130D01*
X747297Y296464D01*
X750783Y296464D01*
X754004Y295130D01*
X756470Y292664D01*
X757804Y289443D01*
X757804Y285957D01*
X756470Y282736D01*
X754004Y280270D01*
X750783Y278936D01*
X747297Y278936D01*
G37*
%LPD*%
%LPC*%
G36*
X467897Y278936D02*
X467897Y278936D01*
X464676Y280270D01*
X462210Y282736D01*
X460876Y285957D01*
X460876Y289443D01*
X462210Y292664D01*
X464676Y295130D01*
X467897Y296464D01*
X471383Y296464D01*
X474604Y295130D01*
X477070Y292664D01*
X478404Y289443D01*
X478404Y285957D01*
X477070Y282736D01*
X474604Y280270D01*
X471383Y278936D01*
X467897Y278936D01*
G37*
%LPD*%
%LPC*%
G36*
X721897Y253536D02*
X721897Y253536D01*
X718676Y254870D01*
X716210Y257336D01*
X714876Y260557D01*
X714876Y264043D01*
X716210Y267264D01*
X718676Y269730D01*
X721897Y271064D01*
X725383Y271064D01*
X728604Y269730D01*
X731070Y267264D01*
X732404Y264043D01*
X732404Y260557D01*
X731070Y257336D01*
X728604Y254870D01*
X725383Y253536D01*
X721897Y253536D01*
G37*
%LPD*%
%LPC*%
G36*
X747297Y253536D02*
X747297Y253536D01*
X744076Y254870D01*
X741610Y257336D01*
X740276Y260557D01*
X740276Y264043D01*
X741610Y267264D01*
X744076Y269730D01*
X747297Y271064D01*
X750783Y271064D01*
X754004Y269730D01*
X756470Y267264D01*
X757804Y264043D01*
X757804Y260557D01*
X756470Y257336D01*
X754004Y254870D01*
X750783Y253536D01*
X747297Y253536D01*
G37*
%LPD*%
%LPC*%
G36*
X467897Y253536D02*
X467897Y253536D01*
X464676Y254870D01*
X462210Y257336D01*
X460876Y260557D01*
X460876Y264043D01*
X462210Y267264D01*
X464676Y269730D01*
X467897Y271064D01*
X471383Y271064D01*
X474604Y269730D01*
X477070Y267264D01*
X478404Y264043D01*
X478404Y260557D01*
X477070Y257336D01*
X474604Y254870D01*
X471383Y253536D01*
X467897Y253536D01*
G37*
%LPD*%
%LPC*%
G36*
X493297Y253536D02*
X493297Y253536D01*
X490076Y254870D01*
X487610Y257336D01*
X486276Y260557D01*
X486276Y264043D01*
X487610Y267264D01*
X490076Y269730D01*
X493297Y271064D01*
X496783Y271064D01*
X500004Y269730D01*
X502470Y267264D01*
X503804Y264043D01*
X503804Y260557D01*
X502470Y257336D01*
X500004Y254870D01*
X496783Y253536D01*
X493297Y253536D01*
G37*
%LPD*%
%LPC*%
G36*
X747297Y304336D02*
X747297Y304336D01*
X744076Y305670D01*
X741610Y308136D01*
X740276Y311357D01*
X740276Y314843D01*
X741610Y318064D01*
X744076Y320530D01*
X747297Y321864D01*
X750783Y321864D01*
X754004Y320530D01*
X756470Y318064D01*
X757804Y314843D01*
X757804Y311357D01*
X756470Y308136D01*
X754004Y305670D01*
X750783Y304336D01*
X747297Y304336D01*
G37*
%LPD*%
%LPC*%
G36*
X721897Y228136D02*
X721897Y228136D01*
X718676Y229470D01*
X716210Y231936D01*
X714876Y235157D01*
X714876Y238643D01*
X716210Y241864D01*
X718676Y244330D01*
X721897Y245664D01*
X725383Y245664D01*
X728604Y244330D01*
X731070Y241864D01*
X732404Y238643D01*
X732404Y235157D01*
X731070Y231936D01*
X728604Y229470D01*
X725383Y228136D01*
X721897Y228136D01*
G37*
%LPD*%
%LPC*%
G36*
X467897Y228136D02*
X467897Y228136D01*
X464676Y229470D01*
X462210Y231936D01*
X460876Y235157D01*
X460876Y238643D01*
X462210Y241864D01*
X464676Y244330D01*
X467897Y245664D01*
X471383Y245664D01*
X474604Y244330D01*
X477070Y241864D01*
X478404Y238643D01*
X478404Y235157D01*
X477070Y231936D01*
X474604Y229470D01*
X471383Y228136D01*
X467897Y228136D01*
G37*
%LPD*%
%LPC*%
G36*
X493297Y228136D02*
X493297Y228136D01*
X490076Y229470D01*
X487610Y231936D01*
X486276Y235157D01*
X486276Y238643D01*
X487610Y241864D01*
X490076Y244330D01*
X493297Y245664D01*
X496783Y245664D01*
X500004Y244330D01*
X502470Y241864D01*
X503804Y238643D01*
X503804Y235157D01*
X502470Y231936D01*
X500004Y229470D01*
X496783Y228136D01*
X493297Y228136D01*
G37*
%LPD*%
%LPC*%
G36*
X747297Y228136D02*
X747297Y228136D01*
X744076Y229470D01*
X741610Y231936D01*
X740276Y235157D01*
X740276Y238643D01*
X741610Y241864D01*
X744076Y244330D01*
X747297Y245664D01*
X750783Y245664D01*
X754004Y244330D01*
X756470Y241864D01*
X757804Y238643D01*
X757804Y235157D01*
X756470Y231936D01*
X754004Y229470D01*
X750783Y228136D01*
X747297Y228136D01*
G37*
%LPD*%
%LPC*%
G36*
X747297Y202736D02*
X747297Y202736D01*
X744076Y204070D01*
X741610Y206536D01*
X740276Y209757D01*
X740276Y213243D01*
X741610Y216464D01*
X744076Y218930D01*
X747297Y220264D01*
X750783Y220264D01*
X754004Y218930D01*
X756470Y216464D01*
X757804Y213243D01*
X757804Y209757D01*
X756470Y206536D01*
X754004Y204070D01*
X750783Y202736D01*
X747297Y202736D01*
G37*
%LPD*%
%LPC*%
G36*
X721897Y202736D02*
X721897Y202736D01*
X718676Y204070D01*
X716210Y206536D01*
X714876Y209757D01*
X714876Y213243D01*
X716210Y216464D01*
X718676Y218930D01*
X721897Y220264D01*
X725383Y220264D01*
X728604Y218930D01*
X731070Y216464D01*
X732404Y213243D01*
X732404Y209757D01*
X731070Y206536D01*
X728604Y204070D01*
X725383Y202736D01*
X721897Y202736D01*
G37*
%LPD*%
%LPC*%
G36*
X467897Y202736D02*
X467897Y202736D01*
X464676Y204070D01*
X462210Y206536D01*
X460876Y209757D01*
X460876Y213243D01*
X462210Y216464D01*
X464676Y218930D01*
X467897Y220264D01*
X471383Y220264D01*
X474604Y218930D01*
X477070Y216464D01*
X478404Y213243D01*
X478404Y209757D01*
X477070Y206536D01*
X474604Y204070D01*
X471383Y202736D01*
X467897Y202736D01*
G37*
%LPD*%
%LPC*%
G36*
X721897Y456736D02*
X721897Y456736D01*
X718676Y458070D01*
X716210Y460536D01*
X714876Y463757D01*
X714876Y467243D01*
X716210Y470464D01*
X718676Y472930D01*
X721897Y474264D01*
X725383Y474264D01*
X728604Y472930D01*
X731070Y470464D01*
X732404Y467243D01*
X732404Y463757D01*
X731070Y460536D01*
X728604Y458070D01*
X725383Y456736D01*
X721897Y456736D01*
G37*
%LPD*%
%LPC*%
G36*
X747297Y482136D02*
X747297Y482136D01*
X744076Y483470D01*
X741610Y485936D01*
X740276Y489157D01*
X740276Y492643D01*
X741610Y495864D01*
X744076Y498330D01*
X747297Y499664D01*
X750783Y499664D01*
X754004Y498330D01*
X756470Y495864D01*
X757804Y492643D01*
X757804Y489157D01*
X756470Y485936D01*
X754004Y483470D01*
X750783Y482136D01*
X747297Y482136D01*
G37*
%LPD*%
%LPC*%
G36*
X493297Y177336D02*
X493297Y177336D01*
X490076Y178670D01*
X487610Y181136D01*
X486276Y184357D01*
X486276Y187843D01*
X487610Y191064D01*
X490076Y193530D01*
X493297Y194864D01*
X496783Y194864D01*
X500004Y193530D01*
X502470Y191064D01*
X503804Y187843D01*
X503804Y184357D01*
X502470Y181136D01*
X500004Y178670D01*
X496783Y177336D01*
X493297Y177336D01*
G37*
%LPD*%
%LPC*%
G36*
X467897Y177336D02*
X467897Y177336D01*
X464676Y178670D01*
X462210Y181136D01*
X460876Y184357D01*
X460876Y187843D01*
X462210Y191064D01*
X464676Y193530D01*
X467897Y194864D01*
X471383Y194864D01*
X474604Y193530D01*
X477070Y191064D01*
X478404Y187843D01*
X478404Y184357D01*
X477070Y181136D01*
X474604Y178670D01*
X471383Y177336D01*
X467897Y177336D01*
G37*
%LPD*%
%LPC*%
G36*
X747297Y177336D02*
X747297Y177336D01*
X744076Y178670D01*
X741610Y181136D01*
X740276Y184357D01*
X740276Y187843D01*
X741610Y191064D01*
X744076Y193530D01*
X747297Y194864D01*
X750783Y194864D01*
X754004Y193530D01*
X756470Y191064D01*
X757804Y187843D01*
X757804Y184357D01*
X756470Y181136D01*
X754004Y178670D01*
X750783Y177336D01*
X747297Y177336D01*
G37*
%LPD*%
%LPC*%
G36*
X721897Y177336D02*
X721897Y177336D01*
X718676Y178670D01*
X716210Y181136D01*
X714876Y184357D01*
X714876Y187843D01*
X716210Y191064D01*
X718676Y193530D01*
X721897Y194864D01*
X725383Y194864D01*
X728604Y193530D01*
X731070Y191064D01*
X732404Y187843D01*
X732404Y184357D01*
X731070Y181136D01*
X728604Y178670D01*
X725383Y177336D01*
X721897Y177336D01*
G37*
%LPD*%
%LPC*%
G36*
X721897Y482136D02*
X721897Y482136D01*
X718676Y483470D01*
X716210Y485936D01*
X714876Y489157D01*
X714876Y492643D01*
X716210Y495864D01*
X718676Y498330D01*
X721897Y499664D01*
X725383Y499664D01*
X728604Y498330D01*
X731070Y495864D01*
X732404Y492643D01*
X732404Y489157D01*
X731070Y485936D01*
X728604Y483470D01*
X725383Y482136D01*
X721897Y482136D01*
G37*
%LPD*%
%LPC*%
G36*
X493297Y482136D02*
X493297Y482136D01*
X490076Y483470D01*
X487610Y485936D01*
X486276Y489157D01*
X486276Y492643D01*
X487610Y495864D01*
X490076Y498330D01*
X493297Y499664D01*
X496783Y499664D01*
X500004Y498330D01*
X502470Y495864D01*
X503804Y492643D01*
X503804Y489157D01*
X502470Y485936D01*
X500004Y483470D01*
X496783Y482136D01*
X493297Y482136D01*
G37*
%LPD*%
%LPC*%
G36*
X747297Y151936D02*
X747297Y151936D01*
X744076Y153270D01*
X741610Y155736D01*
X740276Y158957D01*
X740276Y162443D01*
X741610Y165664D01*
X744076Y168130D01*
X747297Y169464D01*
X750783Y169464D01*
X754004Y168130D01*
X756470Y165664D01*
X757804Y162443D01*
X757804Y158957D01*
X756470Y155736D01*
X754004Y153270D01*
X750783Y151936D01*
X747297Y151936D01*
G37*
%LPD*%
%LPC*%
G36*
X721897Y151936D02*
X721897Y151936D01*
X718676Y153270D01*
X716210Y155736D01*
X714876Y158957D01*
X714876Y162443D01*
X716210Y165664D01*
X718676Y168130D01*
X721897Y169464D01*
X725383Y169464D01*
X728604Y168130D01*
X731070Y165664D01*
X732404Y162443D01*
X732404Y158957D01*
X731070Y155736D01*
X728604Y153270D01*
X725383Y151936D01*
X721897Y151936D01*
G37*
%LPD*%
%LPC*%
G36*
X493297Y151936D02*
X493297Y151936D01*
X490076Y153270D01*
X487610Y155736D01*
X486276Y158957D01*
X486276Y162443D01*
X487610Y165664D01*
X490076Y168130D01*
X493297Y169464D01*
X496783Y169464D01*
X500004Y168130D01*
X502470Y165664D01*
X503804Y162443D01*
X503804Y158957D01*
X502470Y155736D01*
X500004Y153270D01*
X496783Y151936D01*
X493297Y151936D01*
G37*
%LPD*%
%LPC*%
G36*
X467897Y151936D02*
X467897Y151936D01*
X464676Y153270D01*
X462210Y155736D01*
X460876Y158957D01*
X460876Y162443D01*
X462210Y165664D01*
X464676Y168130D01*
X467897Y169464D01*
X471383Y169464D01*
X474604Y168130D01*
X477070Y165664D01*
X478404Y162443D01*
X478404Y158957D01*
X477070Y155736D01*
X474604Y153270D01*
X471383Y151936D01*
X467897Y151936D01*
G37*
%LPD*%
%LPC*%
G36*
X747297Y126536D02*
X747297Y126536D01*
X744076Y127870D01*
X741610Y130336D01*
X740276Y133557D01*
X740276Y137043D01*
X741610Y140264D01*
X744076Y142730D01*
X747297Y144064D01*
X750783Y144064D01*
X754004Y142730D01*
X756470Y140264D01*
X757804Y137043D01*
X757804Y133557D01*
X756470Y130336D01*
X754004Y127870D01*
X750783Y126536D01*
X747297Y126536D01*
G37*
%LPD*%
%LPC*%
G36*
X721897Y126536D02*
X721897Y126536D01*
X718676Y127870D01*
X716210Y130336D01*
X714876Y133557D01*
X714876Y137043D01*
X716210Y140264D01*
X718676Y142730D01*
X721897Y144064D01*
X725383Y144064D01*
X728604Y142730D01*
X731070Y140264D01*
X732404Y137043D01*
X732404Y133557D01*
X731070Y130336D01*
X728604Y127870D01*
X725383Y126536D01*
X721897Y126536D01*
G37*
%LPD*%
%LPC*%
G36*
X493297Y126536D02*
X493297Y126536D01*
X490076Y127870D01*
X487610Y130336D01*
X486276Y133557D01*
X486276Y137043D01*
X487610Y140264D01*
X490076Y142730D01*
X493297Y144064D01*
X496783Y144064D01*
X500004Y142730D01*
X502470Y140264D01*
X503804Y137043D01*
X503804Y133557D01*
X502470Y130336D01*
X500004Y127870D01*
X496783Y126536D01*
X493297Y126536D01*
G37*
%LPD*%
%LPC*%
G36*
X467897Y126536D02*
X467897Y126536D01*
X464676Y127870D01*
X462210Y130336D01*
X460876Y133557D01*
X460876Y137043D01*
X462210Y140264D01*
X464676Y142730D01*
X467897Y144064D01*
X471383Y144064D01*
X474604Y142730D01*
X477070Y140264D01*
X478404Y137043D01*
X478404Y133557D01*
X477070Y130336D01*
X474604Y127870D01*
X471383Y126536D01*
X467897Y126536D01*
G37*
%LPD*%
%LPC*%
G36*
X467897Y482136D02*
X467897Y482136D01*
X464676Y483470D01*
X462210Y485936D01*
X460876Y489157D01*
X460876Y492643D01*
X462210Y495864D01*
X464676Y498330D01*
X467897Y499664D01*
X471383Y499664D01*
X474604Y498330D01*
X477070Y495864D01*
X478404Y492643D01*
X478404Y489157D01*
X477070Y485936D01*
X474604Y483470D01*
X471383Y482136D01*
X467897Y482136D01*
G37*
%LPD*%
%LPC*%
G36*
X747297Y456736D02*
X747297Y456736D01*
X744076Y458070D01*
X741610Y460536D01*
X740276Y463757D01*
X740276Y467243D01*
X741610Y470464D01*
X744076Y472930D01*
X747297Y474264D01*
X750783Y474264D01*
X754004Y472930D01*
X756470Y470464D01*
X757804Y467243D01*
X757804Y463757D01*
X756470Y460536D01*
X754004Y458070D01*
X750783Y456736D01*
X747297Y456736D01*
G37*
%LPD*%
%LPC*%
G36*
X747297Y101136D02*
X747297Y101136D01*
X744076Y102470D01*
X741610Y104936D01*
X740276Y108157D01*
X740276Y111643D01*
X741610Y114864D01*
X744076Y117330D01*
X747297Y118664D01*
X750783Y118664D01*
X754004Y117330D01*
X756470Y114864D01*
X757804Y111643D01*
X757804Y108157D01*
X756470Y104936D01*
X754004Y102470D01*
X750783Y101136D01*
X747297Y101136D01*
G37*
%LPD*%
%LPC*%
G36*
X721897Y101136D02*
X721897Y101136D01*
X718676Y102470D01*
X716210Y104936D01*
X714876Y108157D01*
X714876Y111643D01*
X716210Y114864D01*
X718676Y117330D01*
X721897Y118664D01*
X725383Y118664D01*
X728604Y117330D01*
X731070Y114864D01*
X732404Y111643D01*
X732404Y108157D01*
X731070Y104936D01*
X728604Y102470D01*
X725383Y101136D01*
X721897Y101136D01*
G37*
%LPD*%
%LPC*%
G36*
X493297Y101136D02*
X493297Y101136D01*
X490076Y102470D01*
X487610Y104936D01*
X486276Y108157D01*
X486276Y111643D01*
X487610Y114864D01*
X490076Y117330D01*
X493297Y118664D01*
X496783Y118664D01*
X500004Y117330D01*
X502470Y114864D01*
X503804Y111643D01*
X503804Y108157D01*
X502470Y104936D01*
X500004Y102470D01*
X496783Y101136D01*
X493297Y101136D01*
G37*
%LPD*%
%LPC*%
G36*
X467897Y101136D02*
X467897Y101136D01*
X464676Y102470D01*
X462210Y104936D01*
X460876Y108157D01*
X460876Y111643D01*
X462210Y114864D01*
X464676Y117330D01*
X467897Y118664D01*
X471383Y118664D01*
X474604Y117330D01*
X477070Y114864D01*
X478404Y111643D01*
X478404Y108157D01*
X477070Y104936D01*
X474604Y102470D01*
X471383Y101136D01*
X467897Y101136D01*
G37*
%LPD*%
%LPC*%
G36*
X493297Y456736D02*
X493297Y456736D01*
X490076Y458070D01*
X487610Y460536D01*
X486276Y463757D01*
X486276Y467243D01*
X487610Y470464D01*
X490076Y472930D01*
X493297Y474264D01*
X496783Y474264D01*
X500004Y472930D01*
X502470Y470464D01*
X503804Y467243D01*
X503804Y463757D01*
X502470Y460536D01*
X500004Y458070D01*
X496783Y456736D01*
X493297Y456736D01*
G37*
%LPD*%
%LPC*%
G36*
X467897Y456736D02*
X467897Y456736D01*
X464676Y458070D01*
X462210Y460536D01*
X460876Y463757D01*
X460876Y467243D01*
X462210Y470464D01*
X464676Y472930D01*
X467897Y474264D01*
X471383Y474264D01*
X474604Y472930D01*
X477070Y470464D01*
X478404Y467243D01*
X478404Y463757D01*
X477070Y460536D01*
X474604Y458070D01*
X471383Y456736D01*
X467897Y456736D01*
G37*
%LPD*%
%LPC*%
G36*
X747297Y75736D02*
X747297Y75736D01*
X744076Y77070D01*
X741610Y79536D01*
X740276Y82757D01*
X740276Y86243D01*
X741610Y89464D01*
X744076Y91930D01*
X747297Y93264D01*
X750783Y93264D01*
X754004Y91930D01*
X756470Y89464D01*
X757804Y86243D01*
X757804Y82757D01*
X756470Y79536D01*
X754004Y77070D01*
X750783Y75736D01*
X747297Y75736D01*
G37*
%LPD*%
%LPC*%
G36*
X721897Y75736D02*
X721897Y75736D01*
X718676Y77070D01*
X716210Y79536D01*
X714876Y82757D01*
X714876Y86243D01*
X716210Y89464D01*
X718676Y91930D01*
X721897Y93264D01*
X725383Y93264D01*
X728604Y91930D01*
X731070Y89464D01*
X732404Y86243D01*
X732404Y82757D01*
X731070Y79536D01*
X728604Y77070D01*
X725383Y75736D01*
X721897Y75736D01*
G37*
%LPD*%
%LPC*%
G36*
X493297Y75736D02*
X493297Y75736D01*
X490076Y77070D01*
X487610Y79536D01*
X486276Y82757D01*
X486276Y86243D01*
X487610Y89464D01*
X490076Y91930D01*
X493297Y93264D01*
X496783Y93264D01*
X500004Y91930D01*
X502470Y89464D01*
X503804Y86243D01*
X503804Y82757D01*
X502470Y79536D01*
X500004Y77070D01*
X496783Y75736D01*
X493297Y75736D01*
G37*
%LPD*%
%LPC*%
G36*
X467897Y75736D02*
X467897Y75736D01*
X464676Y77070D01*
X462210Y79536D01*
X460876Y82757D01*
X460876Y86243D01*
X462210Y89464D01*
X464676Y91930D01*
X467897Y93264D01*
X471383Y93264D01*
X474604Y91930D01*
X477070Y89464D01*
X478404Y86243D01*
X478404Y82757D01*
X477070Y79536D01*
X474604Y77070D01*
X471383Y75736D01*
X467897Y75736D01*
G37*
%LPD*%
%LPC*%
G36*
X493297Y431336D02*
X493297Y431336D01*
X490076Y432670D01*
X487610Y435136D01*
X486276Y438357D01*
X486276Y441843D01*
X487610Y445064D01*
X490076Y447530D01*
X493297Y448864D01*
X496783Y448864D01*
X500004Y447530D01*
X502470Y445064D01*
X503804Y441843D01*
X503804Y438357D01*
X502470Y435136D01*
X500004Y432670D01*
X496783Y431336D01*
X493297Y431336D01*
G37*
%LPD*%
%LPC*%
G36*
X467897Y431336D02*
X467897Y431336D01*
X464676Y432670D01*
X462210Y435136D01*
X460876Y438357D01*
X460876Y441843D01*
X462210Y445064D01*
X464676Y447530D01*
X467897Y448864D01*
X471383Y448864D01*
X474604Y447530D01*
X477070Y445064D01*
X478404Y441843D01*
X478404Y438357D01*
X477070Y435136D01*
X474604Y432670D01*
X471383Y431336D01*
X467897Y431336D01*
G37*
%LPD*%
%LPC*%
G36*
X747297Y431336D02*
X747297Y431336D01*
X744076Y432670D01*
X741610Y435136D01*
X740276Y438357D01*
X740276Y441843D01*
X741610Y445064D01*
X744076Y447530D01*
X747297Y448864D01*
X750783Y448864D01*
X754004Y447530D01*
X756470Y445064D01*
X757804Y441843D01*
X757804Y438357D01*
X756470Y435136D01*
X754004Y432670D01*
X750783Y431336D01*
X747297Y431336D01*
G37*
%LPD*%
%LPC*%
G36*
X721897Y431336D02*
X721897Y431336D01*
X718676Y432670D01*
X716210Y435136D01*
X714876Y438357D01*
X714876Y441843D01*
X716210Y445064D01*
X718676Y447530D01*
X721897Y448864D01*
X725383Y448864D01*
X728604Y447530D01*
X731070Y445064D01*
X732404Y441843D01*
X732404Y438357D01*
X731070Y435136D01*
X728604Y432670D01*
X725383Y431336D01*
X721897Y431336D01*
G37*
%LPD*%
%LPC*%
G36*
X747297Y50336D02*
X747297Y50336D01*
X744076Y51670D01*
X741610Y54136D01*
X740276Y57357D01*
X740276Y60843D01*
X741610Y64064D01*
X744076Y66530D01*
X747297Y67864D01*
X750783Y67864D01*
X754004Y66530D01*
X756470Y64064D01*
X757804Y60843D01*
X757804Y57357D01*
X756470Y54136D01*
X754004Y51670D01*
X750783Y50336D01*
X747297Y50336D01*
G37*
%LPD*%
%LPC*%
G36*
X721897Y50336D02*
X721897Y50336D01*
X718676Y51670D01*
X716210Y54136D01*
X714876Y57357D01*
X714876Y60843D01*
X716210Y64064D01*
X718676Y66530D01*
X721897Y67864D01*
X725383Y67864D01*
X728604Y66530D01*
X731070Y64064D01*
X732404Y60843D01*
X732404Y57357D01*
X731070Y54136D01*
X728604Y51670D01*
X725383Y50336D01*
X721897Y50336D01*
G37*
%LPD*%
%LPC*%
G36*
X493297Y50336D02*
X493297Y50336D01*
X490076Y51670D01*
X487610Y54136D01*
X486276Y57357D01*
X486276Y60843D01*
X487610Y64064D01*
X490076Y66530D01*
X493297Y67864D01*
X496783Y67864D01*
X500004Y66530D01*
X502470Y64064D01*
X503804Y60843D01*
X503804Y57357D01*
X502470Y54136D01*
X500004Y51670D01*
X496783Y50336D01*
X493297Y50336D01*
G37*
%LPD*%
%LPC*%
G36*
X467897Y50336D02*
X467897Y50336D01*
X464676Y51670D01*
X462210Y54136D01*
X460876Y57357D01*
X460876Y60843D01*
X462210Y64064D01*
X464676Y66530D01*
X467897Y67864D01*
X471383Y67864D01*
X474604Y66530D01*
X477070Y64064D01*
X478404Y60843D01*
X478404Y57357D01*
X477070Y54136D01*
X474604Y51670D01*
X471383Y50336D01*
X467897Y50336D01*
G37*
%LPD*%
%LPC*%
G36*
X747297Y405936D02*
X747297Y405936D01*
X744076Y407270D01*
X741610Y409736D01*
X740276Y412957D01*
X740276Y416443D01*
X741610Y419664D01*
X744076Y422130D01*
X747297Y423464D01*
X750783Y423464D01*
X754004Y422130D01*
X756470Y419664D01*
X757804Y416443D01*
X757804Y412957D01*
X756470Y409736D01*
X754004Y407270D01*
X750783Y405936D01*
X747297Y405936D01*
G37*
%LPD*%
%LPC*%
G36*
X721897Y405936D02*
X721897Y405936D01*
X718676Y407270D01*
X716210Y409736D01*
X714876Y412957D01*
X714876Y416443D01*
X716210Y419664D01*
X718676Y422130D01*
X721897Y423464D01*
X725383Y423464D01*
X728604Y422130D01*
X731070Y419664D01*
X732404Y416443D01*
X732404Y412957D01*
X731070Y409736D01*
X728604Y407270D01*
X725383Y405936D01*
X721897Y405936D01*
G37*
%LPD*%
%LPC*%
G36*
X862443Y654585D02*
X862443Y654585D01*
X860306Y655470D01*
X858670Y657106D01*
X857785Y659243D01*
X857785Y661557D01*
X858670Y663694D01*
X860306Y665330D01*
X862443Y666215D01*
X864757Y666215D01*
X866894Y665330D01*
X868530Y663694D01*
X869415Y661557D01*
X869415Y659243D01*
X868530Y657106D01*
X867392Y655969D01*
X867349Y655914D01*
X867299Y655865D01*
X867252Y655788D01*
X867197Y655717D01*
X867169Y655653D01*
X867133Y655594D01*
X867106Y655508D01*
X867071Y655425D01*
X867060Y655356D01*
X867039Y655290D01*
X867035Y655200D01*
X867021Y655111D01*
X867027Y655042D01*
X867024Y654972D01*
X867026Y654962D01*
X866969Y655003D01*
X866885Y655034D01*
X866805Y655075D01*
X866737Y655090D01*
X866672Y655115D01*
X866582Y655125D01*
X866495Y655145D01*
X866425Y655143D01*
X866355Y655150D01*
X866267Y655138D01*
X866177Y655135D01*
X866110Y655116D01*
X866041Y655106D01*
X865888Y655054D01*
X864757Y654585D01*
X862443Y654585D01*
G37*
%LPD*%
%LPC*%
G36*
X284638Y165861D02*
X284638Y165861D01*
X282584Y166712D01*
X281012Y168284D01*
X280161Y170338D01*
X280161Y172562D01*
X281012Y174616D01*
X282584Y176188D01*
X284638Y177039D01*
X286862Y177039D01*
X288916Y176188D01*
X290488Y174616D01*
X291339Y172562D01*
X291339Y170338D01*
X290488Y168284D01*
X288916Y166712D01*
X286862Y165861D01*
X284638Y165861D01*
G37*
%LPD*%
%LPC*%
G36*
X43338Y83311D02*
X43338Y83311D01*
X41284Y84162D01*
X39712Y85734D01*
X38861Y87788D01*
X38861Y90012D01*
X39712Y92066D01*
X41284Y93638D01*
X43338Y94489D01*
X45562Y94489D01*
X47616Y93638D01*
X49188Y92066D01*
X50039Y90012D01*
X50039Y87788D01*
X49188Y85734D01*
X47616Y84162D01*
X45562Y83311D01*
X43338Y83311D01*
G37*
%LPD*%
%LPC*%
G36*
X440213Y299211D02*
X440213Y299211D01*
X438159Y300062D01*
X436587Y301634D01*
X435736Y303688D01*
X435736Y305912D01*
X436587Y307966D01*
X438159Y309538D01*
X440213Y310389D01*
X442437Y310389D01*
X444491Y309538D01*
X446063Y307966D01*
X446914Y305912D01*
X446914Y303688D01*
X446063Y301634D01*
X444491Y300062D01*
X442437Y299211D01*
X440213Y299211D01*
G37*
%LPD*%
%LPC*%
G36*
X440213Y223011D02*
X440213Y223011D01*
X438159Y223862D01*
X436587Y225434D01*
X435736Y227488D01*
X435736Y229712D01*
X436587Y231766D01*
X438159Y233338D01*
X440213Y234189D01*
X442437Y234189D01*
X444491Y233338D01*
X446063Y231766D01*
X446914Y229712D01*
X446914Y227488D01*
X446063Y225434D01*
X444491Y223862D01*
X442437Y223011D01*
X440213Y223011D01*
G37*
%LPD*%
%LPC*%
G36*
X367188Y24574D02*
X367188Y24574D01*
X365134Y25425D01*
X363562Y26997D01*
X362711Y29051D01*
X362711Y31274D01*
X363562Y33328D01*
X365134Y34900D01*
X367188Y35751D01*
X369412Y35751D01*
X371466Y34900D01*
X373038Y33328D01*
X373889Y31274D01*
X373889Y29051D01*
X373038Y26997D01*
X371466Y25425D01*
X369412Y24574D01*
X367188Y24574D01*
G37*
%LPD*%
%LPC*%
G36*
X68539Y641309D02*
X68539Y641309D01*
X68539Y648030D01*
X69702Y647652D01*
X71041Y646970D01*
X72255Y646087D01*
X73317Y645025D01*
X74200Y643811D01*
X74882Y642472D01*
X75260Y641309D01*
X68539Y641309D01*
G37*
%LPD*%
%LPC*%
G36*
X68539Y636311D02*
X68539Y636311D01*
X75260Y636311D01*
X74882Y635148D01*
X74200Y633809D01*
X73317Y632595D01*
X72255Y631533D01*
X71041Y630650D01*
X69702Y629968D01*
X68539Y629590D01*
X68539Y636311D01*
G37*
%LPD*%
%LPC*%
G36*
X56820Y641309D02*
X56820Y641309D01*
X57198Y642472D01*
X57880Y643811D01*
X58763Y645025D01*
X59825Y646087D01*
X61039Y646970D01*
X62378Y647652D01*
X63541Y648030D01*
X63541Y641309D01*
X56820Y641309D01*
G37*
%LPD*%
%LPC*%
G36*
X62378Y629968D02*
X62378Y629968D01*
X61039Y630650D01*
X59825Y631533D01*
X58763Y632595D01*
X57880Y633809D01*
X57198Y635148D01*
X56820Y636311D01*
X63541Y636311D01*
X63541Y629590D01*
X62378Y629968D01*
G37*
%LPD*%
%LPC*%
G36*
X497262Y213722D02*
X497262Y213722D01*
X497262Y219993D01*
X497596Y219927D01*
X499191Y219266D01*
X500627Y218307D01*
X501847Y217087D01*
X502806Y215651D01*
X503467Y214056D01*
X503533Y213722D01*
X497262Y213722D01*
G37*
%LPD*%
%LPC*%
G36*
X725862Y340722D02*
X725862Y340722D01*
X725862Y346993D01*
X726196Y346927D01*
X727791Y346266D01*
X729227Y345307D01*
X730447Y344087D01*
X731406Y342651D01*
X732067Y341056D01*
X732133Y340722D01*
X725862Y340722D01*
G37*
%LPD*%
%LPC*%
G36*
X715147Y340722D02*
X715147Y340722D01*
X715213Y341056D01*
X715874Y342651D01*
X716833Y344087D01*
X718053Y345307D01*
X719489Y346266D01*
X721084Y346927D01*
X721418Y346993D01*
X721418Y340722D01*
X715147Y340722D01*
G37*
%LPD*%
%LPC*%
G36*
X486547Y213722D02*
X486547Y213722D01*
X486613Y214056D01*
X487274Y215651D01*
X488233Y217087D01*
X489453Y218307D01*
X490889Y219266D01*
X492484Y219927D01*
X492818Y219993D01*
X492818Y213722D01*
X486547Y213722D01*
G37*
%LPD*%
%LPC*%
G36*
X725862Y336278D02*
X725862Y336278D01*
X732133Y336278D01*
X732067Y335944D01*
X731406Y334349D01*
X730447Y332913D01*
X729227Y331693D01*
X727791Y330734D01*
X726196Y330073D01*
X725862Y330007D01*
X725862Y336278D01*
G37*
%LPD*%
%LPC*%
G36*
X497262Y209278D02*
X497262Y209278D01*
X503533Y209278D01*
X503467Y208944D01*
X502806Y207349D01*
X501847Y205913D01*
X500627Y204693D01*
X499191Y203734D01*
X497596Y203073D01*
X497262Y203007D01*
X497262Y209278D01*
G37*
%LPD*%
%LPC*%
G36*
X492484Y203073D02*
X492484Y203073D01*
X490889Y203734D01*
X489453Y204693D01*
X488233Y205913D01*
X487274Y207349D01*
X486613Y208944D01*
X486547Y209278D01*
X492818Y209278D01*
X492818Y203007D01*
X492484Y203073D01*
G37*
%LPD*%
%LPC*%
G36*
X721084Y330073D02*
X721084Y330073D01*
X719489Y330734D01*
X718053Y331693D01*
X716833Y332913D01*
X715874Y334349D01*
X715213Y335944D01*
X715147Y336278D01*
X721418Y336278D01*
X721418Y330007D01*
X721084Y330073D01*
G37*
%LPD*%
D10*
X469640Y59100D03*
X495040Y59100D03*
X469640Y84500D03*
X495040Y84500D03*
X469640Y109900D03*
X495040Y109900D03*
X469640Y135300D03*
X495040Y135300D03*
X469640Y160700D03*
X495040Y160700D03*
X469640Y186100D03*
X495040Y186100D03*
X469640Y211500D03*
X495040Y211500D03*
X469640Y236900D03*
X495040Y236900D03*
X469640Y262300D03*
X495040Y262300D03*
X469640Y287700D03*
X495040Y287700D03*
X469640Y313100D03*
X495040Y313100D03*
X469640Y338500D03*
X495040Y338500D03*
X469640Y363900D03*
X495040Y363900D03*
X469640Y389300D03*
X495040Y389300D03*
X469640Y414700D03*
X495040Y414700D03*
X469640Y440100D03*
X495040Y440100D03*
X469640Y465500D03*
X495040Y465500D03*
X469640Y490900D03*
X495040Y490900D03*
X723640Y59100D03*
X749040Y59100D03*
X723640Y84500D03*
X749040Y84500D03*
X723640Y109900D03*
X749040Y109900D03*
X723640Y135300D03*
X749040Y135300D03*
X723640Y160700D03*
X749040Y160700D03*
X723640Y186100D03*
X749040Y186100D03*
X723640Y211500D03*
X749040Y211500D03*
X723640Y236900D03*
X749040Y236900D03*
X723640Y262300D03*
X749040Y262300D03*
X723640Y287700D03*
X749040Y287700D03*
X723640Y313100D03*
X749040Y313100D03*
X723640Y338500D03*
X749040Y338500D03*
X723640Y363900D03*
X749040Y363900D03*
X723640Y389300D03*
X749040Y389300D03*
X723640Y414700D03*
X749040Y414700D03*
X723640Y440100D03*
X749040Y440100D03*
X723640Y465500D03*
X749040Y465500D03*
X723640Y490900D03*
X749040Y490900D03*
D11*
X406400Y43580D03*
X406400Y68580D03*
X406400Y93580D03*
D12*
X999760Y693020D03*
X999760Y643020D03*
X874760Y643020D03*
X874760Y693020D03*
D11*
X828040Y689610D03*
X828040Y664210D03*
X828040Y638810D03*
X828040Y613410D03*
X828040Y588010D03*
X828040Y562610D03*
X828040Y537210D03*
X828040Y511810D03*
X828040Y486410D03*
X828040Y461010D03*
X828040Y435610D03*
X828040Y410210D03*
X828040Y384810D03*
X828040Y359410D03*
X828040Y334010D03*
X828040Y308610D03*
X828040Y283210D03*
X828040Y257810D03*
X828040Y232410D03*
X828040Y207010D03*
X66040Y689610D03*
X66040Y664210D03*
X66040Y638810D03*
X66040Y613410D03*
X66040Y588010D03*
X66040Y562610D03*
X66040Y537210D03*
X66040Y511810D03*
X66040Y486410D03*
X66040Y461010D03*
X66040Y435610D03*
X66040Y410210D03*
X66040Y384810D03*
X66040Y359410D03*
X66040Y334010D03*
X66040Y308610D03*
X66040Y283210D03*
X66040Y257810D03*
X66040Y232410D03*
X66040Y207010D03*
D13*
X66040Y734060D03*
X66040Y162560D03*
X828040Y734060D03*
X828040Y162560D03*
D11*
X228600Y41040D03*
X228600Y66040D03*
X228600Y91040D03*
D14*
X266700Y635000D03*
X291700Y635000D03*
X311700Y635000D03*
X336700Y635000D03*
D15*
X236000Y662100D03*
X367400Y662100D03*
D12*
X999760Y256140D03*
X999760Y206140D03*
X874760Y206140D03*
X874760Y256140D03*
D16*
X63500Y50800D03*
X977900Y50800D03*
X977900Y457200D03*
X152400Y736600D03*
D17*
X44450Y88900D03*
X285750Y171450D03*
X996950Y327025D03*
X441325Y304800D03*
X441325Y228600D03*
X368300Y30163D03*
D18*
X863600Y660400D03*
M02*
