G04 EAGLE Gerber RS-274X export*
G75*
%MOMM*%
%FSLAX34Y34*%
%LPD*%
%IN*%
%IPPOS*%
%AMOC8*
5,1,8,0,0,1.08239X$1,22.5*%
G01*
%ADD10C,0.254000*%


D10*
X0Y0D02*
X1016000Y0D01*
X1016000Y762000D01*
X0Y762000D01*
X0Y0D01*
X336891Y31080D02*
X337870Y31003D01*
X338841Y30849D01*
X339796Y30620D01*
X340730Y30316D01*
X341637Y29941D01*
X342512Y29495D01*
X343350Y28981D01*
X344145Y28404D01*
X344892Y27766D01*
X345586Y27072D01*
X346224Y26325D01*
X346801Y25530D01*
X347315Y24692D01*
X347761Y23817D01*
X348136Y22910D01*
X348440Y21976D01*
X348669Y21021D01*
X348823Y20050D01*
X348900Y19071D01*
X348900Y18089D01*
X348823Y17110D01*
X348669Y16140D01*
X348440Y15184D01*
X348136Y14250D01*
X347761Y13343D01*
X347315Y12468D01*
X346801Y11630D01*
X346224Y10835D01*
X345586Y10088D01*
X344892Y9394D01*
X344145Y8756D01*
X343350Y8179D01*
X342512Y7665D01*
X341637Y7219D01*
X340730Y6844D01*
X339796Y6540D01*
X338841Y6311D01*
X337870Y6157D01*
X336891Y6080D01*
X335909Y6080D01*
X334930Y6157D01*
X333960Y6311D01*
X333004Y6540D01*
X332070Y6844D01*
X331163Y7219D01*
X330288Y7665D01*
X329450Y8179D01*
X328655Y8756D01*
X327908Y9394D01*
X327214Y10088D01*
X326576Y10835D01*
X325999Y11630D01*
X325485Y12468D01*
X325039Y13343D01*
X324664Y14250D01*
X324360Y15184D01*
X324131Y16140D01*
X323977Y17110D01*
X323900Y18089D01*
X323900Y19071D01*
X323977Y20050D01*
X324131Y21021D01*
X324360Y21976D01*
X324664Y22910D01*
X325039Y23817D01*
X325485Y24692D01*
X325999Y25530D01*
X326576Y26325D01*
X327214Y27072D01*
X327908Y27766D01*
X328655Y28404D01*
X329450Y28981D01*
X330288Y29495D01*
X331163Y29941D01*
X332070Y30316D01*
X333004Y30620D01*
X333960Y30849D01*
X334930Y31003D01*
X335909Y31080D01*
X336891Y31080D01*
X336891Y131080D02*
X337870Y131003D01*
X338841Y130849D01*
X339796Y130620D01*
X340730Y130316D01*
X341637Y129941D01*
X342512Y129495D01*
X343350Y128981D01*
X344145Y128404D01*
X344892Y127766D01*
X345586Y127072D01*
X346224Y126325D01*
X346801Y125530D01*
X347315Y124692D01*
X347761Y123817D01*
X348136Y122910D01*
X348440Y121976D01*
X348669Y121021D01*
X348823Y120050D01*
X348900Y119071D01*
X348900Y118089D01*
X348823Y117110D01*
X348669Y116140D01*
X348440Y115184D01*
X348136Y114250D01*
X347761Y113343D01*
X347315Y112468D01*
X346801Y111630D01*
X346224Y110835D01*
X345586Y110088D01*
X344892Y109394D01*
X344145Y108756D01*
X343350Y108179D01*
X342512Y107665D01*
X341637Y107219D01*
X340730Y106844D01*
X339796Y106540D01*
X338841Y106311D01*
X337870Y106157D01*
X336891Y106080D01*
X335909Y106080D01*
X334930Y106157D01*
X333960Y106311D01*
X333004Y106540D01*
X332070Y106844D01*
X331163Y107219D01*
X330288Y107665D01*
X329450Y108179D01*
X328655Y108756D01*
X327908Y109394D01*
X327214Y110088D01*
X326576Y110835D01*
X325999Y111630D01*
X325485Y112468D01*
X325039Y113343D01*
X324664Y114250D01*
X324360Y115184D01*
X324131Y116140D01*
X323977Y117110D01*
X323900Y118089D01*
X323900Y119071D01*
X323977Y120050D01*
X324131Y121021D01*
X324360Y121976D01*
X324664Y122910D01*
X325039Y123817D01*
X325485Y124692D01*
X325999Y125530D01*
X326576Y126325D01*
X327214Y127072D01*
X327908Y127766D01*
X328655Y128404D01*
X329450Y128981D01*
X330288Y129495D01*
X331163Y129941D01*
X332070Y130316D01*
X333004Y130620D01*
X333960Y130849D01*
X334930Y131003D01*
X335909Y131080D01*
X336891Y131080D01*
X159091Y28540D02*
X160070Y28463D01*
X161041Y28309D01*
X161996Y28080D01*
X162930Y27776D01*
X163837Y27401D01*
X164712Y26955D01*
X165550Y26441D01*
X166345Y25864D01*
X167092Y25226D01*
X167786Y24532D01*
X168424Y23785D01*
X169001Y22990D01*
X169515Y22152D01*
X169961Y21277D01*
X170336Y20370D01*
X170640Y19436D01*
X170869Y18481D01*
X171023Y17510D01*
X171100Y16531D01*
X171100Y15549D01*
X171023Y14570D01*
X170869Y13600D01*
X170640Y12644D01*
X170336Y11710D01*
X169961Y10803D01*
X169515Y9928D01*
X169001Y9090D01*
X168424Y8295D01*
X167786Y7548D01*
X167092Y6854D01*
X166345Y6216D01*
X165550Y5639D01*
X164712Y5125D01*
X163837Y4679D01*
X162930Y4304D01*
X161996Y4000D01*
X161041Y3771D01*
X160070Y3617D01*
X159091Y3540D01*
X158109Y3540D01*
X157130Y3617D01*
X156160Y3771D01*
X155204Y4000D01*
X154270Y4304D01*
X153363Y4679D01*
X152488Y5125D01*
X151650Y5639D01*
X150855Y6216D01*
X150108Y6854D01*
X149414Y7548D01*
X148776Y8295D01*
X148199Y9090D01*
X147685Y9928D01*
X147239Y10803D01*
X146864Y11710D01*
X146560Y12644D01*
X146331Y13600D01*
X146177Y14570D01*
X146100Y15549D01*
X146100Y16531D01*
X146177Y17510D01*
X146331Y18481D01*
X146560Y19436D01*
X146864Y20370D01*
X147239Y21277D01*
X147685Y22152D01*
X148199Y22990D01*
X148776Y23785D01*
X149414Y24532D01*
X150108Y25226D01*
X150855Y25864D01*
X151650Y26441D01*
X152488Y26955D01*
X153363Y27401D01*
X154270Y27776D01*
X155204Y28080D01*
X156160Y28309D01*
X157130Y28463D01*
X158109Y28540D01*
X159091Y28540D01*
X159091Y128540D02*
X160070Y128463D01*
X161041Y128309D01*
X161996Y128080D01*
X162930Y127776D01*
X163837Y127401D01*
X164712Y126955D01*
X165550Y126441D01*
X166345Y125864D01*
X167092Y125226D01*
X167786Y124532D01*
X168424Y123785D01*
X169001Y122990D01*
X169515Y122152D01*
X169961Y121277D01*
X170336Y120370D01*
X170640Y119436D01*
X170869Y118481D01*
X171023Y117510D01*
X171100Y116531D01*
X171100Y115549D01*
X171023Y114570D01*
X170869Y113600D01*
X170640Y112644D01*
X170336Y111710D01*
X169961Y110803D01*
X169515Y109928D01*
X169001Y109090D01*
X168424Y108295D01*
X167786Y107548D01*
X167092Y106854D01*
X166345Y106216D01*
X165550Y105639D01*
X164712Y105125D01*
X163837Y104679D01*
X162930Y104304D01*
X161996Y104000D01*
X161041Y103771D01*
X160070Y103617D01*
X159091Y103540D01*
X158109Y103540D01*
X157130Y103617D01*
X156160Y103771D01*
X155204Y104000D01*
X154270Y104304D01*
X153363Y104679D01*
X152488Y105125D01*
X151650Y105639D01*
X150855Y106216D01*
X150108Y106854D01*
X149414Y107548D01*
X148776Y108295D01*
X148199Y109090D01*
X147685Y109928D01*
X147239Y110803D01*
X146864Y111710D01*
X146560Y112644D01*
X146331Y113600D01*
X146177Y114570D01*
X146100Y115549D01*
X146100Y116531D01*
X146177Y117510D01*
X146331Y118481D01*
X146560Y119436D01*
X146864Y120370D01*
X147239Y121277D01*
X147685Y122152D01*
X148199Y122990D01*
X148776Y123785D01*
X149414Y124532D01*
X150108Y125226D01*
X150855Y125864D01*
X151650Y126441D01*
X152488Y126955D01*
X153363Y127401D01*
X154270Y127776D01*
X155204Y128080D01*
X156160Y128309D01*
X157130Y128463D01*
X158109Y128540D01*
X159091Y128540D01*
M02*
