G04 EAGLE Gerber RS-274X export*
G75*
%MOMM*%
%FSLAX34Y34*%
%LPD*%
%INSilkscreen Bottom*%
%IPPOS*%
%AMOC8*
5,1,8,0,0,1.08239X$1,22.5*%
G01*
%ADD10R,0.508000X0.508000*%
%ADD11C,0.254000*%
%ADD12C,0.152400*%
%ADD13C,0.127000*%
%ADD14C,0.300000*%
%ADD15C,0.101600*%


D10*
X469640Y59100D03*
X495040Y59100D03*
X495040Y84500D03*
X469640Y84500D03*
X495040Y109900D03*
X469640Y109900D03*
X495040Y135300D03*
X495040Y160700D03*
X495040Y186100D03*
X469640Y135300D03*
X469640Y160700D03*
X469640Y186100D03*
X495040Y211500D03*
X469640Y211500D03*
X495040Y236900D03*
X469640Y236900D03*
X495040Y262300D03*
X469640Y262300D03*
X495040Y287700D03*
X469640Y287700D03*
X495040Y313100D03*
X469640Y313100D03*
X495040Y338500D03*
X469640Y338500D03*
X495040Y363900D03*
X469640Y363900D03*
X495040Y389300D03*
X469640Y389300D03*
X495040Y414700D03*
X469640Y414700D03*
X495040Y440100D03*
X469640Y440100D03*
X495040Y465500D03*
X469640Y465500D03*
X495040Y490900D03*
X469640Y490900D03*
X723640Y59100D03*
X749040Y59100D03*
X749040Y84500D03*
X723640Y84500D03*
X749040Y109900D03*
X723640Y109900D03*
X749040Y135300D03*
X749040Y160700D03*
X749040Y186100D03*
X723640Y135300D03*
X723640Y160700D03*
X723640Y186100D03*
X749040Y211500D03*
X723640Y211500D03*
X749040Y236900D03*
X723640Y236900D03*
X749040Y262300D03*
X723640Y262300D03*
X749040Y287700D03*
X723640Y287700D03*
X749040Y313100D03*
X723640Y313100D03*
X749040Y338500D03*
X723640Y338500D03*
X749040Y363900D03*
X723640Y363900D03*
X749040Y389300D03*
X723640Y389300D03*
X749040Y414700D03*
X723640Y414700D03*
X749040Y440100D03*
X723640Y440100D03*
X749040Y465500D03*
X723640Y465500D03*
X749040Y490900D03*
X723640Y490900D03*
D11*
X784340Y450000D02*
X784340Y100000D01*
X784311Y97584D01*
X784223Y95169D01*
X784077Y92757D01*
X783873Y90349D01*
X783611Y87946D01*
X783291Y85551D01*
X782913Y83164D01*
X782477Y80787D01*
X781984Y78422D01*
X781434Y76068D01*
X780828Y73729D01*
X780165Y71405D01*
X779446Y69098D01*
X778671Y66809D01*
X777842Y64540D01*
X776957Y62291D01*
X776019Y60064D01*
X775027Y57860D01*
X773983Y55681D01*
X772886Y53528D01*
X771737Y51402D01*
X770537Y49304D01*
X769287Y47236D01*
X767987Y45199D01*
X766638Y43194D01*
X765242Y41221D01*
X763798Y39284D01*
X762307Y37381D01*
X760772Y35516D01*
X759191Y33688D01*
X757567Y31898D01*
X755900Y30149D01*
X754191Y28440D01*
X752442Y26773D01*
X750652Y25149D01*
X748824Y23568D01*
X746959Y22033D01*
X745056Y20542D01*
X743119Y19098D01*
X741146Y17702D01*
X739141Y16353D01*
X737104Y15053D01*
X735036Y13803D01*
X732938Y12603D01*
X730812Y11454D01*
X728659Y10357D01*
X726480Y9313D01*
X724276Y8321D01*
X722049Y7383D01*
X719800Y6498D01*
X717531Y5669D01*
X715242Y4894D01*
X712935Y4175D01*
X710611Y3512D01*
X708272Y2906D01*
X705918Y2356D01*
X703553Y1863D01*
X701176Y1427D01*
X698789Y1049D01*
X696394Y729D01*
X693991Y467D01*
X691583Y263D01*
X689171Y117D01*
X686756Y29D01*
X684340Y0D01*
X534340Y0D01*
X531924Y29D01*
X529509Y117D01*
X527097Y263D01*
X524689Y467D01*
X522286Y729D01*
X519891Y1049D01*
X517504Y1427D01*
X515127Y1863D01*
X512762Y2356D01*
X510408Y2906D01*
X508069Y3512D01*
X505745Y4175D01*
X503438Y4894D01*
X501149Y5669D01*
X498880Y6498D01*
X496631Y7383D01*
X494404Y8321D01*
X492200Y9313D01*
X490021Y10357D01*
X487868Y11454D01*
X485742Y12603D01*
X483644Y13803D01*
X481576Y15053D01*
X479539Y16353D01*
X477534Y17702D01*
X475561Y19098D01*
X473624Y20542D01*
X471721Y22033D01*
X469856Y23568D01*
X468028Y25149D01*
X466238Y26773D01*
X464489Y28440D01*
X462780Y30149D01*
X461113Y31898D01*
X459489Y33688D01*
X457908Y35516D01*
X456373Y37381D01*
X454882Y39284D01*
X453438Y41221D01*
X452042Y43194D01*
X450693Y45199D01*
X449393Y47236D01*
X448143Y49304D01*
X446943Y51402D01*
X445794Y53528D01*
X444697Y55681D01*
X443653Y57860D01*
X442661Y60064D01*
X441723Y62291D01*
X440838Y64540D01*
X440009Y66809D01*
X439234Y69098D01*
X438515Y71405D01*
X437852Y73729D01*
X437246Y76068D01*
X436696Y78422D01*
X436203Y80787D01*
X435767Y83164D01*
X435389Y85551D01*
X435069Y87946D01*
X434807Y90349D01*
X434603Y92757D01*
X434457Y95169D01*
X434369Y97584D01*
X434340Y100000D01*
X434340Y450000D01*
X434369Y452416D01*
X434457Y454831D01*
X434603Y457243D01*
X434807Y459651D01*
X435069Y462054D01*
X435389Y464449D01*
X435767Y466836D01*
X436203Y469213D01*
X436696Y471578D01*
X437246Y473932D01*
X437852Y476271D01*
X438515Y478595D01*
X439234Y480902D01*
X440009Y483191D01*
X440838Y485460D01*
X441723Y487709D01*
X442661Y489936D01*
X443653Y492140D01*
X444697Y494319D01*
X445794Y496472D01*
X446943Y498598D01*
X448143Y500696D01*
X449393Y502764D01*
X450693Y504801D01*
X452042Y506806D01*
X453438Y508779D01*
X454882Y510716D01*
X456373Y512619D01*
X457908Y514484D01*
X459489Y516312D01*
X461113Y518102D01*
X462780Y519851D01*
X464489Y521560D01*
X466238Y523227D01*
X468028Y524851D01*
X469856Y526432D01*
X471721Y527967D01*
X473624Y529458D01*
X475561Y530902D01*
X477534Y532298D01*
X479539Y533647D01*
X481576Y534947D01*
X483644Y536197D01*
X485742Y537397D01*
X487868Y538546D01*
X490021Y539643D01*
X492200Y540687D01*
X494404Y541679D01*
X496631Y542617D01*
X498880Y543502D01*
X501149Y544331D01*
X503438Y545106D01*
X505745Y545825D01*
X508069Y546488D01*
X510408Y547094D01*
X512762Y547644D01*
X515127Y548137D01*
X517504Y548573D01*
X519891Y548951D01*
X522286Y549271D01*
X524689Y549533D01*
X527097Y549737D01*
X529509Y549883D01*
X531924Y549971D01*
X534340Y550000D01*
X684340Y550000D01*
X686756Y549971D01*
X689171Y549883D01*
X691583Y549737D01*
X693991Y549533D01*
X696394Y549271D01*
X698789Y548951D01*
X701176Y548573D01*
X703553Y548137D01*
X705918Y547644D01*
X708272Y547094D01*
X710611Y546488D01*
X712935Y545825D01*
X715242Y545106D01*
X717531Y544331D01*
X719800Y543502D01*
X722049Y542617D01*
X724276Y541679D01*
X726480Y540687D01*
X728659Y539643D01*
X730812Y538546D01*
X732938Y537397D01*
X735036Y536197D01*
X737104Y534947D01*
X739141Y533647D01*
X741146Y532298D01*
X743119Y530902D01*
X745056Y529458D01*
X746959Y527967D01*
X748824Y526432D01*
X750652Y524851D01*
X752442Y523227D01*
X754191Y521560D01*
X755900Y519851D01*
X757567Y518102D01*
X759191Y516312D01*
X760772Y514484D01*
X762307Y512619D01*
X763798Y510716D01*
X765242Y508779D01*
X766638Y506806D01*
X767987Y504801D01*
X769287Y502764D01*
X770537Y500696D01*
X771737Y498598D01*
X772886Y496472D01*
X773983Y494319D01*
X775027Y492140D01*
X776019Y489936D01*
X776957Y487709D01*
X777842Y485460D01*
X778671Y483191D01*
X779446Y480902D01*
X780165Y478595D01*
X780828Y476271D01*
X781434Y473932D01*
X781984Y471578D01*
X782477Y469213D01*
X782913Y466836D01*
X783291Y464449D01*
X783611Y462054D01*
X783873Y459651D01*
X784077Y457243D01*
X784223Y454831D01*
X784311Y452416D01*
X784340Y450000D01*
D12*
X642987Y521462D02*
X642987Y528913D01*
X637399Y528913D01*
X637313Y528911D01*
X637227Y528905D01*
X637142Y528895D01*
X637057Y528881D01*
X636972Y528864D01*
X636889Y528842D01*
X636807Y528816D01*
X636726Y528787D01*
X636647Y528754D01*
X636569Y528718D01*
X636492Y528678D01*
X636418Y528634D01*
X636346Y528587D01*
X636276Y528537D01*
X636209Y528483D01*
X636144Y528427D01*
X636082Y528367D01*
X636022Y528305D01*
X635966Y528240D01*
X635912Y528173D01*
X635862Y528103D01*
X635815Y528031D01*
X635771Y527957D01*
X635731Y527880D01*
X635695Y527803D01*
X635662Y527723D01*
X635633Y527642D01*
X635607Y527560D01*
X635585Y527477D01*
X635568Y527392D01*
X635554Y527307D01*
X635544Y527222D01*
X635538Y527136D01*
X635536Y527050D01*
X635536Y521462D01*
X639262Y521462D02*
X639262Y528913D01*
X630118Y528913D02*
X630118Y521462D01*
X630428Y532017D02*
X630428Y532638D01*
X629807Y532638D01*
X629807Y532017D01*
X630428Y532017D01*
X623483Y521462D02*
X620999Y521462D01*
X623483Y521462D02*
X623567Y521464D01*
X623650Y521470D01*
X623733Y521479D01*
X623816Y521492D01*
X623898Y521509D01*
X623979Y521529D01*
X624059Y521553D01*
X624138Y521581D01*
X624215Y521612D01*
X624291Y521646D01*
X624366Y521684D01*
X624439Y521726D01*
X624509Y521770D01*
X624578Y521818D01*
X624645Y521868D01*
X624709Y521922D01*
X624770Y521978D01*
X624830Y522038D01*
X624886Y522099D01*
X624940Y522163D01*
X624990Y522230D01*
X625038Y522299D01*
X625082Y522369D01*
X625124Y522442D01*
X625162Y522517D01*
X625196Y522593D01*
X625227Y522670D01*
X625255Y522749D01*
X625279Y522829D01*
X625299Y522910D01*
X625316Y522992D01*
X625329Y523075D01*
X625339Y523158D01*
X625344Y523241D01*
X625346Y523325D01*
X625346Y527050D01*
X625344Y527134D01*
X625339Y527217D01*
X625329Y527300D01*
X625316Y527383D01*
X625299Y527465D01*
X625279Y527546D01*
X625255Y527626D01*
X625227Y527705D01*
X625196Y527782D01*
X625162Y527858D01*
X625124Y527933D01*
X625082Y528006D01*
X625038Y528076D01*
X624990Y528145D01*
X624940Y528212D01*
X624886Y528276D01*
X624830Y528337D01*
X624770Y528397D01*
X624709Y528453D01*
X624645Y528507D01*
X624578Y528557D01*
X624509Y528605D01*
X624439Y528649D01*
X624366Y528691D01*
X624291Y528729D01*
X624215Y528763D01*
X624138Y528794D01*
X624059Y528822D01*
X623979Y528846D01*
X623898Y528866D01*
X623816Y528883D01*
X623733Y528896D01*
X623650Y528906D01*
X623567Y528911D01*
X623483Y528913D01*
X620999Y528913D01*
X616135Y528913D02*
X616135Y521462D01*
X616135Y528913D02*
X612410Y528913D01*
X612410Y527671D01*
X608598Y526429D02*
X608598Y523946D01*
X608599Y526429D02*
X608597Y526528D01*
X608591Y526626D01*
X608581Y526725D01*
X608568Y526822D01*
X608550Y526920D01*
X608529Y527016D01*
X608503Y527112D01*
X608474Y527206D01*
X608442Y527299D01*
X608405Y527391D01*
X608365Y527481D01*
X608321Y527570D01*
X608274Y527657D01*
X608224Y527742D01*
X608170Y527824D01*
X608113Y527905D01*
X608053Y527983D01*
X607989Y528059D01*
X607923Y528132D01*
X607854Y528203D01*
X607782Y528271D01*
X607707Y528335D01*
X607630Y528397D01*
X607551Y528456D01*
X607469Y528511D01*
X607385Y528564D01*
X607300Y528612D01*
X607212Y528658D01*
X607122Y528700D01*
X607031Y528738D01*
X606939Y528772D01*
X606845Y528803D01*
X606750Y528830D01*
X606654Y528854D01*
X606557Y528873D01*
X606460Y528889D01*
X606362Y528901D01*
X606263Y528909D01*
X606164Y528913D01*
X606066Y528913D01*
X605967Y528909D01*
X605868Y528901D01*
X605770Y528889D01*
X605673Y528873D01*
X605576Y528854D01*
X605480Y528830D01*
X605385Y528803D01*
X605291Y528772D01*
X605199Y528738D01*
X605108Y528700D01*
X605018Y528658D01*
X604930Y528612D01*
X604845Y528564D01*
X604761Y528511D01*
X604679Y528456D01*
X604600Y528397D01*
X604523Y528335D01*
X604448Y528271D01*
X604376Y528203D01*
X604307Y528132D01*
X604241Y528059D01*
X604177Y527983D01*
X604117Y527905D01*
X604060Y527824D01*
X604006Y527742D01*
X603956Y527657D01*
X603909Y527570D01*
X603865Y527481D01*
X603825Y527391D01*
X603788Y527299D01*
X603756Y527206D01*
X603727Y527112D01*
X603701Y527016D01*
X603680Y526920D01*
X603662Y526822D01*
X603649Y526725D01*
X603639Y526626D01*
X603633Y526528D01*
X603631Y526429D01*
X603631Y523946D01*
X603633Y523847D01*
X603639Y523749D01*
X603649Y523650D01*
X603662Y523553D01*
X603680Y523455D01*
X603701Y523359D01*
X603727Y523263D01*
X603756Y523169D01*
X603788Y523076D01*
X603825Y522984D01*
X603865Y522894D01*
X603909Y522805D01*
X603956Y522718D01*
X604006Y522633D01*
X604060Y522551D01*
X604117Y522470D01*
X604177Y522392D01*
X604241Y522316D01*
X604307Y522243D01*
X604376Y522172D01*
X604448Y522104D01*
X604523Y522040D01*
X604600Y521978D01*
X604679Y521919D01*
X604761Y521864D01*
X604845Y521811D01*
X604930Y521763D01*
X605018Y521717D01*
X605108Y521675D01*
X605199Y521637D01*
X605291Y521603D01*
X605385Y521572D01*
X605480Y521545D01*
X605576Y521521D01*
X605673Y521502D01*
X605770Y521486D01*
X605868Y521474D01*
X605967Y521466D01*
X606066Y521462D01*
X606164Y521462D01*
X606263Y521466D01*
X606362Y521474D01*
X606460Y521486D01*
X606557Y521502D01*
X606654Y521521D01*
X606750Y521545D01*
X606845Y521572D01*
X606939Y521603D01*
X607031Y521637D01*
X607122Y521675D01*
X607212Y521717D01*
X607300Y521763D01*
X607385Y521811D01*
X607469Y521864D01*
X607551Y521919D01*
X607630Y521978D01*
X607707Y522040D01*
X607782Y522104D01*
X607854Y522172D01*
X607923Y522243D01*
X607989Y522316D01*
X608053Y522392D01*
X608113Y522470D01*
X608170Y522551D01*
X608224Y522633D01*
X608274Y522718D01*
X608321Y522805D01*
X608365Y522894D01*
X608405Y522984D01*
X608442Y523076D01*
X608474Y523169D01*
X608503Y523263D01*
X608529Y523359D01*
X608550Y523455D01*
X608568Y523553D01*
X608581Y523650D01*
X608591Y523749D01*
X608597Y523847D01*
X608599Y523946D01*
X595207Y521462D02*
X595109Y521464D01*
X595012Y521470D01*
X594915Y521479D01*
X594818Y521493D01*
X594722Y521510D01*
X594627Y521531D01*
X594533Y521555D01*
X594439Y521584D01*
X594347Y521616D01*
X594256Y521651D01*
X594167Y521690D01*
X594079Y521733D01*
X593993Y521779D01*
X593909Y521828D01*
X593827Y521881D01*
X593747Y521936D01*
X593669Y521995D01*
X593594Y522057D01*
X593521Y522122D01*
X593451Y522190D01*
X593383Y522260D01*
X593318Y522333D01*
X593256Y522408D01*
X593197Y522486D01*
X593142Y522566D01*
X593089Y522648D01*
X593040Y522732D01*
X592994Y522818D01*
X592951Y522906D01*
X592912Y522995D01*
X592877Y523086D01*
X592845Y523178D01*
X592816Y523272D01*
X592792Y523366D01*
X592771Y523461D01*
X592754Y523557D01*
X592740Y523654D01*
X592731Y523751D01*
X592725Y523848D01*
X592723Y523946D01*
X595207Y521462D02*
X595350Y521464D01*
X595493Y521470D01*
X595635Y521479D01*
X595777Y521493D01*
X595919Y521511D01*
X596060Y521532D01*
X596201Y521557D01*
X596341Y521586D01*
X596480Y521619D01*
X596618Y521655D01*
X596755Y521696D01*
X596891Y521740D01*
X597025Y521787D01*
X597159Y521839D01*
X597290Y521893D01*
X597421Y521952D01*
X597549Y522014D01*
X597676Y522079D01*
X597801Y522148D01*
X597925Y522221D01*
X598046Y522296D01*
X598165Y522375D01*
X598282Y522457D01*
X598396Y522543D01*
X598508Y522631D01*
X598618Y522722D01*
X598725Y522817D01*
X598830Y522914D01*
X598932Y523014D01*
X598622Y530154D02*
X598620Y530252D01*
X598614Y530349D01*
X598605Y530446D01*
X598591Y530543D01*
X598574Y530639D01*
X598553Y530734D01*
X598529Y530828D01*
X598500Y530922D01*
X598468Y531014D01*
X598433Y531105D01*
X598394Y531194D01*
X598351Y531282D01*
X598305Y531368D01*
X598256Y531452D01*
X598203Y531534D01*
X598148Y531614D01*
X598089Y531692D01*
X598027Y531767D01*
X597962Y531840D01*
X597894Y531910D01*
X597824Y531978D01*
X597751Y532043D01*
X597676Y532105D01*
X597598Y532164D01*
X597518Y532219D01*
X597436Y532272D01*
X597352Y532321D01*
X597266Y532367D01*
X597178Y532410D01*
X597089Y532449D01*
X596998Y532484D01*
X596906Y532516D01*
X596812Y532545D01*
X596718Y532569D01*
X596623Y532590D01*
X596527Y532607D01*
X596430Y532621D01*
X596333Y532630D01*
X596236Y532636D01*
X596138Y532638D01*
X596008Y532636D01*
X595878Y532631D01*
X595748Y532622D01*
X595618Y532609D01*
X595489Y532593D01*
X595360Y532573D01*
X595232Y532549D01*
X595104Y532522D01*
X594978Y532491D01*
X594852Y532457D01*
X594727Y532419D01*
X594604Y532378D01*
X594481Y532333D01*
X594360Y532285D01*
X594240Y532234D01*
X594122Y532179D01*
X594006Y532121D01*
X593891Y532060D01*
X593777Y531995D01*
X593666Y531928D01*
X593557Y531857D01*
X593449Y531783D01*
X593344Y531707D01*
X597379Y527981D02*
X597462Y528032D01*
X597543Y528086D01*
X597621Y528143D01*
X597697Y528203D01*
X597771Y528266D01*
X597842Y528332D01*
X597911Y528400D01*
X597977Y528471D01*
X598041Y528544D01*
X598101Y528620D01*
X598158Y528698D01*
X598213Y528779D01*
X598264Y528861D01*
X598312Y528945D01*
X598357Y529031D01*
X598399Y529119D01*
X598437Y529208D01*
X598471Y529298D01*
X598503Y529390D01*
X598530Y529483D01*
X598554Y529577D01*
X598575Y529672D01*
X598591Y529768D01*
X598604Y529864D01*
X598614Y529960D01*
X598619Y530057D01*
X598621Y530154D01*
X593966Y526119D02*
X593883Y526068D01*
X593802Y526014D01*
X593724Y525957D01*
X593648Y525897D01*
X593574Y525834D01*
X593503Y525768D01*
X593434Y525700D01*
X593368Y525629D01*
X593304Y525556D01*
X593244Y525480D01*
X593187Y525402D01*
X593132Y525321D01*
X593081Y525239D01*
X593033Y525155D01*
X592988Y525069D01*
X592946Y524981D01*
X592908Y524892D01*
X592874Y524802D01*
X592842Y524710D01*
X592815Y524617D01*
X592791Y524523D01*
X592770Y524428D01*
X592754Y524332D01*
X592741Y524236D01*
X592731Y524140D01*
X592726Y524043D01*
X592724Y523946D01*
X593965Y526119D02*
X597380Y527981D01*
X587502Y532638D02*
X587502Y521462D01*
X587502Y532638D02*
X584398Y532638D01*
X584287Y532636D01*
X584177Y532630D01*
X584066Y532620D01*
X583956Y532606D01*
X583847Y532589D01*
X583738Y532567D01*
X583630Y532542D01*
X583524Y532512D01*
X583418Y532479D01*
X583313Y532442D01*
X583210Y532402D01*
X583109Y532357D01*
X583009Y532310D01*
X582910Y532258D01*
X582814Y532203D01*
X582720Y532145D01*
X582628Y532084D01*
X582538Y532019D01*
X582450Y531951D01*
X582365Y531880D01*
X582283Y531806D01*
X582203Y531729D01*
X582126Y531649D01*
X582052Y531567D01*
X581981Y531482D01*
X581913Y531394D01*
X581848Y531304D01*
X581787Y531212D01*
X581729Y531118D01*
X581674Y531022D01*
X581622Y530923D01*
X581575Y530823D01*
X581530Y530722D01*
X581490Y530619D01*
X581453Y530514D01*
X581420Y530408D01*
X581390Y530302D01*
X581365Y530194D01*
X581343Y530085D01*
X581326Y529976D01*
X581312Y529866D01*
X581302Y529755D01*
X581296Y529645D01*
X581294Y529534D01*
X581293Y529534D02*
X581293Y524566D01*
X581294Y524566D02*
X581296Y524455D01*
X581302Y524345D01*
X581312Y524234D01*
X581326Y524124D01*
X581343Y524015D01*
X581365Y523906D01*
X581390Y523798D01*
X581420Y523692D01*
X581453Y523586D01*
X581490Y523481D01*
X581530Y523378D01*
X581575Y523277D01*
X581622Y523177D01*
X581674Y523078D01*
X581729Y522982D01*
X581787Y522888D01*
X581848Y522796D01*
X581913Y522706D01*
X581981Y522618D01*
X582052Y522533D01*
X582126Y522451D01*
X582203Y522371D01*
X582283Y522294D01*
X582365Y522220D01*
X582450Y522149D01*
X582538Y522081D01*
X582628Y522016D01*
X582720Y521955D01*
X582814Y521897D01*
X582910Y521842D01*
X583009Y521790D01*
X583109Y521743D01*
X583210Y521698D01*
X583313Y521658D01*
X583418Y521621D01*
X583524Y521588D01*
X583630Y521558D01*
X583738Y521533D01*
X583847Y521511D01*
X583956Y521494D01*
X584066Y521480D01*
X584177Y521470D01*
X584287Y521464D01*
X584398Y521462D01*
X587502Y521462D01*
X649189Y20913D02*
X649189Y13462D01*
X649189Y20913D02*
X643601Y20913D01*
X643515Y20911D01*
X643429Y20905D01*
X643344Y20895D01*
X643259Y20881D01*
X643174Y20864D01*
X643091Y20842D01*
X643009Y20816D01*
X642928Y20787D01*
X642849Y20754D01*
X642771Y20718D01*
X642694Y20678D01*
X642620Y20634D01*
X642548Y20587D01*
X642478Y20537D01*
X642411Y20483D01*
X642346Y20427D01*
X642284Y20367D01*
X642224Y20305D01*
X642168Y20240D01*
X642114Y20173D01*
X642064Y20103D01*
X642017Y20031D01*
X641973Y19957D01*
X641933Y19880D01*
X641897Y19803D01*
X641864Y19723D01*
X641835Y19642D01*
X641809Y19560D01*
X641787Y19477D01*
X641770Y19392D01*
X641756Y19307D01*
X641746Y19222D01*
X641740Y19136D01*
X641738Y19050D01*
X641738Y13462D01*
X645463Y13462D02*
X645463Y20913D01*
X636319Y20913D02*
X636319Y13462D01*
X636630Y24017D02*
X636630Y24638D01*
X636009Y24638D01*
X636009Y24017D01*
X636630Y24017D01*
X629685Y13462D02*
X627201Y13462D01*
X629685Y13462D02*
X629769Y13464D01*
X629852Y13470D01*
X629935Y13479D01*
X630018Y13492D01*
X630100Y13509D01*
X630181Y13529D01*
X630261Y13553D01*
X630340Y13581D01*
X630417Y13612D01*
X630493Y13646D01*
X630568Y13684D01*
X630641Y13726D01*
X630711Y13770D01*
X630780Y13818D01*
X630847Y13868D01*
X630911Y13922D01*
X630972Y13978D01*
X631032Y14038D01*
X631088Y14099D01*
X631142Y14163D01*
X631192Y14230D01*
X631240Y14299D01*
X631284Y14369D01*
X631326Y14442D01*
X631364Y14517D01*
X631398Y14593D01*
X631429Y14670D01*
X631457Y14749D01*
X631481Y14829D01*
X631501Y14910D01*
X631518Y14992D01*
X631531Y15075D01*
X631541Y15158D01*
X631546Y15241D01*
X631548Y15325D01*
X631547Y15325D02*
X631547Y19050D01*
X631548Y19050D02*
X631546Y19134D01*
X631541Y19217D01*
X631531Y19300D01*
X631518Y19383D01*
X631501Y19465D01*
X631481Y19546D01*
X631457Y19626D01*
X631429Y19705D01*
X631398Y19782D01*
X631364Y19858D01*
X631326Y19933D01*
X631284Y20006D01*
X631240Y20076D01*
X631192Y20145D01*
X631142Y20212D01*
X631088Y20276D01*
X631032Y20337D01*
X630972Y20397D01*
X630911Y20453D01*
X630847Y20507D01*
X630780Y20557D01*
X630711Y20605D01*
X630641Y20649D01*
X630568Y20691D01*
X630493Y20729D01*
X630417Y20763D01*
X630340Y20794D01*
X630261Y20822D01*
X630181Y20846D01*
X630100Y20866D01*
X630018Y20883D01*
X629935Y20896D01*
X629852Y20906D01*
X629769Y20911D01*
X629685Y20913D01*
X627201Y20913D01*
X622337Y20913D02*
X622337Y13462D01*
X622337Y20913D02*
X618612Y20913D01*
X618612Y19671D01*
X614800Y18429D02*
X614800Y15946D01*
X614800Y18429D02*
X614798Y18528D01*
X614792Y18626D01*
X614782Y18725D01*
X614769Y18822D01*
X614751Y18920D01*
X614730Y19016D01*
X614704Y19112D01*
X614675Y19206D01*
X614643Y19299D01*
X614606Y19391D01*
X614566Y19481D01*
X614522Y19570D01*
X614475Y19657D01*
X614425Y19742D01*
X614371Y19824D01*
X614314Y19905D01*
X614254Y19983D01*
X614190Y20059D01*
X614124Y20132D01*
X614055Y20203D01*
X613983Y20271D01*
X613908Y20335D01*
X613831Y20397D01*
X613752Y20456D01*
X613670Y20511D01*
X613586Y20564D01*
X613501Y20612D01*
X613413Y20658D01*
X613323Y20700D01*
X613232Y20738D01*
X613140Y20772D01*
X613046Y20803D01*
X612951Y20830D01*
X612855Y20854D01*
X612758Y20873D01*
X612661Y20889D01*
X612563Y20901D01*
X612464Y20909D01*
X612365Y20913D01*
X612267Y20913D01*
X612168Y20909D01*
X612069Y20901D01*
X611971Y20889D01*
X611874Y20873D01*
X611777Y20854D01*
X611681Y20830D01*
X611586Y20803D01*
X611492Y20772D01*
X611400Y20738D01*
X611309Y20700D01*
X611219Y20658D01*
X611131Y20612D01*
X611046Y20564D01*
X610962Y20511D01*
X610880Y20456D01*
X610801Y20397D01*
X610724Y20335D01*
X610649Y20271D01*
X610577Y20203D01*
X610508Y20132D01*
X610442Y20059D01*
X610378Y19983D01*
X610318Y19905D01*
X610261Y19824D01*
X610207Y19742D01*
X610157Y19657D01*
X610110Y19570D01*
X610066Y19481D01*
X610026Y19391D01*
X609989Y19299D01*
X609957Y19206D01*
X609928Y19112D01*
X609902Y19016D01*
X609881Y18920D01*
X609863Y18822D01*
X609850Y18725D01*
X609840Y18626D01*
X609834Y18528D01*
X609832Y18429D01*
X609833Y18429D02*
X609833Y15946D01*
X609832Y15946D02*
X609834Y15847D01*
X609840Y15749D01*
X609850Y15650D01*
X609863Y15553D01*
X609881Y15455D01*
X609902Y15359D01*
X609928Y15263D01*
X609957Y15169D01*
X609989Y15076D01*
X610026Y14984D01*
X610066Y14894D01*
X610110Y14805D01*
X610157Y14718D01*
X610207Y14633D01*
X610261Y14551D01*
X610318Y14470D01*
X610378Y14392D01*
X610442Y14316D01*
X610508Y14243D01*
X610577Y14172D01*
X610649Y14104D01*
X610724Y14040D01*
X610801Y13978D01*
X610880Y13919D01*
X610962Y13864D01*
X611046Y13811D01*
X611131Y13763D01*
X611219Y13717D01*
X611309Y13675D01*
X611400Y13637D01*
X611492Y13603D01*
X611586Y13572D01*
X611681Y13545D01*
X611777Y13521D01*
X611874Y13502D01*
X611971Y13486D01*
X612069Y13474D01*
X612168Y13466D01*
X612267Y13462D01*
X612365Y13462D01*
X612464Y13466D01*
X612563Y13474D01*
X612661Y13486D01*
X612758Y13502D01*
X612855Y13521D01*
X612951Y13545D01*
X613046Y13572D01*
X613140Y13603D01*
X613232Y13637D01*
X613323Y13675D01*
X613413Y13717D01*
X613501Y13763D01*
X613586Y13811D01*
X613670Y13864D01*
X613752Y13919D01*
X613831Y13978D01*
X613908Y14040D01*
X613983Y14104D01*
X614055Y14172D01*
X614124Y14243D01*
X614190Y14316D01*
X614254Y14392D01*
X614314Y14470D01*
X614371Y14551D01*
X614425Y14633D01*
X614475Y14718D01*
X614522Y14805D01*
X614566Y14894D01*
X614606Y14984D01*
X614643Y15076D01*
X614675Y15169D01*
X614704Y15263D01*
X614730Y15359D01*
X614751Y15455D01*
X614769Y15553D01*
X614782Y15650D01*
X614792Y15749D01*
X614798Y15847D01*
X614800Y15946D01*
X604372Y16566D02*
X604372Y24638D01*
X604371Y16566D02*
X604369Y16455D01*
X604363Y16345D01*
X604353Y16234D01*
X604339Y16124D01*
X604322Y16015D01*
X604300Y15906D01*
X604275Y15798D01*
X604245Y15692D01*
X604212Y15586D01*
X604175Y15481D01*
X604135Y15378D01*
X604090Y15277D01*
X604043Y15177D01*
X603991Y15078D01*
X603936Y14982D01*
X603878Y14888D01*
X603817Y14796D01*
X603752Y14706D01*
X603684Y14618D01*
X603613Y14533D01*
X603539Y14451D01*
X603462Y14371D01*
X603382Y14294D01*
X603300Y14220D01*
X603215Y14149D01*
X603127Y14081D01*
X603037Y14016D01*
X602945Y13955D01*
X602851Y13897D01*
X602755Y13842D01*
X602656Y13790D01*
X602556Y13743D01*
X602455Y13698D01*
X602352Y13658D01*
X602247Y13621D01*
X602141Y13588D01*
X602035Y13558D01*
X601927Y13533D01*
X601818Y13511D01*
X601709Y13494D01*
X601599Y13480D01*
X601488Y13470D01*
X601378Y13464D01*
X601267Y13462D01*
X601156Y13464D01*
X601046Y13470D01*
X600935Y13480D01*
X600825Y13494D01*
X600716Y13511D01*
X600607Y13533D01*
X600499Y13558D01*
X600393Y13588D01*
X600287Y13621D01*
X600182Y13658D01*
X600079Y13698D01*
X599978Y13743D01*
X599878Y13790D01*
X599779Y13842D01*
X599683Y13897D01*
X599589Y13955D01*
X599497Y14016D01*
X599407Y14081D01*
X599319Y14149D01*
X599234Y14220D01*
X599152Y14294D01*
X599072Y14371D01*
X598995Y14451D01*
X598921Y14533D01*
X598850Y14618D01*
X598782Y14706D01*
X598717Y14796D01*
X598656Y14888D01*
X598598Y14982D01*
X598543Y15078D01*
X598491Y15177D01*
X598444Y15277D01*
X598399Y15378D01*
X598359Y15481D01*
X598322Y15586D01*
X598289Y15692D01*
X598259Y15798D01*
X598234Y15906D01*
X598212Y16015D01*
X598195Y16124D01*
X598181Y16234D01*
X598171Y16345D01*
X598165Y16455D01*
X598163Y16566D01*
X598163Y24638D01*
X589217Y13462D02*
X589119Y13464D01*
X589022Y13470D01*
X588925Y13479D01*
X588828Y13493D01*
X588732Y13510D01*
X588637Y13531D01*
X588543Y13555D01*
X588449Y13584D01*
X588357Y13616D01*
X588266Y13651D01*
X588177Y13690D01*
X588089Y13733D01*
X588003Y13779D01*
X587919Y13828D01*
X587837Y13881D01*
X587757Y13936D01*
X587679Y13995D01*
X587604Y14057D01*
X587531Y14122D01*
X587461Y14190D01*
X587393Y14260D01*
X587328Y14333D01*
X587266Y14408D01*
X587207Y14486D01*
X587152Y14566D01*
X587099Y14648D01*
X587050Y14732D01*
X587004Y14818D01*
X586961Y14906D01*
X586922Y14995D01*
X586887Y15086D01*
X586855Y15178D01*
X586826Y15272D01*
X586802Y15366D01*
X586781Y15461D01*
X586764Y15557D01*
X586750Y15654D01*
X586741Y15751D01*
X586735Y15848D01*
X586733Y15946D01*
X589217Y13462D02*
X589360Y13464D01*
X589503Y13470D01*
X589645Y13479D01*
X589787Y13493D01*
X589929Y13511D01*
X590070Y13532D01*
X590211Y13557D01*
X590351Y13586D01*
X590490Y13619D01*
X590628Y13655D01*
X590765Y13696D01*
X590901Y13740D01*
X591035Y13787D01*
X591169Y13839D01*
X591300Y13893D01*
X591431Y13952D01*
X591559Y14014D01*
X591686Y14079D01*
X591811Y14148D01*
X591935Y14221D01*
X592056Y14296D01*
X592175Y14375D01*
X592292Y14457D01*
X592406Y14543D01*
X592518Y14631D01*
X592628Y14722D01*
X592735Y14817D01*
X592840Y14914D01*
X592942Y15014D01*
X592632Y22154D02*
X592630Y22252D01*
X592624Y22349D01*
X592615Y22446D01*
X592601Y22543D01*
X592584Y22639D01*
X592563Y22734D01*
X592539Y22828D01*
X592510Y22922D01*
X592478Y23014D01*
X592443Y23105D01*
X592404Y23194D01*
X592361Y23282D01*
X592315Y23368D01*
X592266Y23452D01*
X592213Y23534D01*
X592158Y23614D01*
X592099Y23692D01*
X592037Y23767D01*
X591972Y23840D01*
X591904Y23910D01*
X591834Y23978D01*
X591761Y24043D01*
X591686Y24105D01*
X591608Y24164D01*
X591528Y24219D01*
X591446Y24272D01*
X591362Y24321D01*
X591276Y24367D01*
X591188Y24410D01*
X591099Y24449D01*
X591008Y24484D01*
X590916Y24516D01*
X590822Y24545D01*
X590728Y24569D01*
X590633Y24590D01*
X590537Y24607D01*
X590440Y24621D01*
X590343Y24630D01*
X590246Y24636D01*
X590148Y24638D01*
X590018Y24636D01*
X589888Y24631D01*
X589758Y24622D01*
X589628Y24609D01*
X589499Y24593D01*
X589370Y24573D01*
X589242Y24549D01*
X589114Y24522D01*
X588988Y24491D01*
X588862Y24457D01*
X588737Y24419D01*
X588614Y24378D01*
X588491Y24333D01*
X588370Y24285D01*
X588250Y24234D01*
X588132Y24179D01*
X588016Y24121D01*
X587901Y24060D01*
X587787Y23995D01*
X587676Y23928D01*
X587567Y23857D01*
X587459Y23783D01*
X587354Y23707D01*
X591389Y19981D02*
X591472Y20032D01*
X591553Y20086D01*
X591631Y20143D01*
X591707Y20203D01*
X591781Y20266D01*
X591852Y20332D01*
X591921Y20400D01*
X591987Y20471D01*
X592051Y20544D01*
X592111Y20620D01*
X592168Y20698D01*
X592223Y20779D01*
X592274Y20861D01*
X592322Y20945D01*
X592367Y21031D01*
X592409Y21119D01*
X592447Y21208D01*
X592481Y21298D01*
X592513Y21390D01*
X592540Y21483D01*
X592564Y21577D01*
X592585Y21672D01*
X592601Y21768D01*
X592614Y21864D01*
X592624Y21960D01*
X592629Y22057D01*
X592631Y22154D01*
X587975Y18119D02*
X587892Y18068D01*
X587811Y18014D01*
X587733Y17957D01*
X587657Y17897D01*
X587583Y17834D01*
X587512Y17768D01*
X587443Y17700D01*
X587377Y17629D01*
X587313Y17556D01*
X587253Y17480D01*
X587196Y17402D01*
X587141Y17321D01*
X587090Y17239D01*
X587042Y17155D01*
X586997Y17069D01*
X586955Y16981D01*
X586917Y16892D01*
X586883Y16802D01*
X586851Y16710D01*
X586824Y16617D01*
X586800Y16523D01*
X586779Y16428D01*
X586763Y16332D01*
X586750Y16236D01*
X586740Y16140D01*
X586735Y16043D01*
X586733Y15946D01*
X587975Y18119D02*
X591390Y19981D01*
X581300Y19671D02*
X578196Y19671D01*
X578196Y19670D02*
X578085Y19668D01*
X577975Y19662D01*
X577864Y19652D01*
X577754Y19638D01*
X577645Y19621D01*
X577536Y19599D01*
X577428Y19574D01*
X577322Y19544D01*
X577216Y19511D01*
X577111Y19474D01*
X577008Y19434D01*
X576907Y19389D01*
X576807Y19342D01*
X576708Y19290D01*
X576612Y19235D01*
X576518Y19177D01*
X576426Y19116D01*
X576336Y19051D01*
X576248Y18983D01*
X576163Y18912D01*
X576081Y18838D01*
X576001Y18761D01*
X575924Y18681D01*
X575850Y18599D01*
X575779Y18514D01*
X575711Y18426D01*
X575646Y18336D01*
X575585Y18244D01*
X575527Y18150D01*
X575472Y18054D01*
X575420Y17955D01*
X575373Y17855D01*
X575328Y17754D01*
X575288Y17651D01*
X575251Y17546D01*
X575218Y17440D01*
X575188Y17334D01*
X575163Y17226D01*
X575141Y17117D01*
X575124Y17008D01*
X575110Y16898D01*
X575100Y16787D01*
X575094Y16677D01*
X575092Y16566D01*
X575094Y16455D01*
X575100Y16345D01*
X575110Y16234D01*
X575124Y16124D01*
X575141Y16015D01*
X575163Y15906D01*
X575188Y15798D01*
X575218Y15692D01*
X575251Y15586D01*
X575288Y15481D01*
X575328Y15378D01*
X575373Y15277D01*
X575420Y15177D01*
X575472Y15078D01*
X575527Y14982D01*
X575585Y14888D01*
X575646Y14796D01*
X575711Y14706D01*
X575779Y14618D01*
X575850Y14533D01*
X575924Y14451D01*
X576001Y14371D01*
X576081Y14294D01*
X576163Y14220D01*
X576248Y14149D01*
X576336Y14081D01*
X576426Y14016D01*
X576518Y13955D01*
X576612Y13897D01*
X576708Y13842D01*
X576807Y13790D01*
X576907Y13743D01*
X577008Y13698D01*
X577111Y13658D01*
X577216Y13621D01*
X577322Y13588D01*
X577428Y13558D01*
X577536Y13533D01*
X577645Y13511D01*
X577754Y13494D01*
X577864Y13480D01*
X577975Y13470D01*
X578085Y13464D01*
X578196Y13462D01*
X581300Y13462D01*
X581300Y24638D01*
X578196Y24638D01*
X578097Y24636D01*
X577999Y24630D01*
X577900Y24620D01*
X577803Y24607D01*
X577705Y24589D01*
X577609Y24568D01*
X577513Y24542D01*
X577419Y24513D01*
X577326Y24481D01*
X577234Y24444D01*
X577144Y24404D01*
X577055Y24360D01*
X576968Y24313D01*
X576883Y24263D01*
X576801Y24209D01*
X576720Y24152D01*
X576642Y24092D01*
X576566Y24028D01*
X576493Y23962D01*
X576422Y23893D01*
X576354Y23821D01*
X576290Y23746D01*
X576228Y23669D01*
X576169Y23590D01*
X576114Y23508D01*
X576061Y23424D01*
X576013Y23339D01*
X575967Y23251D01*
X575925Y23161D01*
X575887Y23070D01*
X575853Y22978D01*
X575822Y22884D01*
X575795Y22789D01*
X575771Y22693D01*
X575752Y22596D01*
X575736Y22499D01*
X575724Y22401D01*
X575716Y22302D01*
X575712Y22203D01*
X575712Y22105D01*
X575716Y22006D01*
X575724Y21907D01*
X575736Y21809D01*
X575752Y21712D01*
X575771Y21615D01*
X575795Y21519D01*
X575822Y21424D01*
X575853Y21330D01*
X575887Y21238D01*
X575925Y21147D01*
X575967Y21057D01*
X576013Y20969D01*
X576061Y20884D01*
X576114Y20800D01*
X576169Y20718D01*
X576228Y20639D01*
X576290Y20562D01*
X576354Y20487D01*
X576422Y20415D01*
X576493Y20346D01*
X576566Y20280D01*
X576642Y20216D01*
X576720Y20156D01*
X576801Y20099D01*
X576883Y20045D01*
X576968Y19995D01*
X577055Y19948D01*
X577144Y19904D01*
X577234Y19864D01*
X577326Y19827D01*
X577419Y19795D01*
X577513Y19766D01*
X577609Y19740D01*
X577705Y19719D01*
X577803Y19701D01*
X577900Y19688D01*
X577999Y19678D01*
X578097Y19672D01*
X578196Y19670D01*
X600202Y224706D02*
X611378Y224706D01*
X611378Y227810D01*
X611376Y227921D01*
X611370Y228031D01*
X611360Y228142D01*
X611346Y228252D01*
X611329Y228361D01*
X611307Y228470D01*
X611282Y228578D01*
X611252Y228684D01*
X611219Y228790D01*
X611182Y228895D01*
X611142Y228998D01*
X611097Y229099D01*
X611050Y229199D01*
X610998Y229298D01*
X610943Y229394D01*
X610885Y229488D01*
X610824Y229580D01*
X610759Y229670D01*
X610691Y229758D01*
X610620Y229843D01*
X610546Y229925D01*
X610469Y230005D01*
X610389Y230082D01*
X610307Y230156D01*
X610222Y230227D01*
X610134Y230295D01*
X610044Y230360D01*
X609952Y230421D01*
X609858Y230479D01*
X609762Y230534D01*
X609663Y230586D01*
X609563Y230633D01*
X609462Y230678D01*
X609359Y230718D01*
X609254Y230755D01*
X609148Y230788D01*
X609042Y230818D01*
X608934Y230843D01*
X608825Y230865D01*
X608716Y230882D01*
X608606Y230896D01*
X608495Y230906D01*
X608385Y230912D01*
X608274Y230914D01*
X608163Y230912D01*
X608053Y230906D01*
X607942Y230896D01*
X607832Y230882D01*
X607723Y230865D01*
X607614Y230843D01*
X607506Y230818D01*
X607400Y230788D01*
X607294Y230755D01*
X607189Y230718D01*
X607086Y230678D01*
X606985Y230633D01*
X606885Y230586D01*
X606786Y230534D01*
X606690Y230479D01*
X606596Y230421D01*
X606504Y230360D01*
X606414Y230295D01*
X606326Y230227D01*
X606241Y230156D01*
X606159Y230082D01*
X606079Y230005D01*
X606002Y229925D01*
X605928Y229843D01*
X605857Y229758D01*
X605789Y229670D01*
X605724Y229580D01*
X605663Y229488D01*
X605605Y229394D01*
X605550Y229298D01*
X605498Y229199D01*
X605451Y229099D01*
X605406Y228998D01*
X605366Y228895D01*
X605329Y228790D01*
X605296Y228684D01*
X605266Y228578D01*
X605241Y228470D01*
X605219Y228361D01*
X605202Y228252D01*
X605188Y228142D01*
X605178Y228031D01*
X605172Y227921D01*
X605170Y227810D01*
X605169Y227810D02*
X605169Y224706D01*
X605169Y235402D02*
X602686Y235402D01*
X605169Y235401D02*
X605268Y235403D01*
X605366Y235409D01*
X605465Y235419D01*
X605562Y235432D01*
X605660Y235450D01*
X605756Y235471D01*
X605852Y235497D01*
X605946Y235526D01*
X606039Y235558D01*
X606131Y235595D01*
X606221Y235635D01*
X606310Y235679D01*
X606397Y235726D01*
X606482Y235776D01*
X606564Y235830D01*
X606645Y235887D01*
X606723Y235947D01*
X606799Y236011D01*
X606872Y236077D01*
X606943Y236146D01*
X607011Y236218D01*
X607075Y236293D01*
X607137Y236370D01*
X607196Y236449D01*
X607251Y236531D01*
X607304Y236615D01*
X607352Y236700D01*
X607398Y236788D01*
X607440Y236878D01*
X607478Y236969D01*
X607512Y237061D01*
X607543Y237155D01*
X607570Y237250D01*
X607594Y237346D01*
X607613Y237443D01*
X607629Y237540D01*
X607641Y237638D01*
X607649Y237737D01*
X607653Y237836D01*
X607653Y237934D01*
X607649Y238033D01*
X607641Y238132D01*
X607629Y238230D01*
X607613Y238327D01*
X607594Y238424D01*
X607570Y238520D01*
X607543Y238615D01*
X607512Y238709D01*
X607478Y238801D01*
X607440Y238892D01*
X607398Y238982D01*
X607352Y239070D01*
X607304Y239155D01*
X607251Y239239D01*
X607196Y239321D01*
X607137Y239400D01*
X607075Y239477D01*
X607011Y239552D01*
X606943Y239624D01*
X606872Y239693D01*
X606799Y239759D01*
X606723Y239823D01*
X606645Y239883D01*
X606564Y239940D01*
X606482Y239994D01*
X606397Y240044D01*
X606310Y240091D01*
X606221Y240135D01*
X606131Y240175D01*
X606039Y240212D01*
X605946Y240244D01*
X605852Y240273D01*
X605756Y240299D01*
X605660Y240320D01*
X605562Y240338D01*
X605465Y240351D01*
X605366Y240361D01*
X605268Y240367D01*
X605169Y240369D01*
X602686Y240369D01*
X602587Y240367D01*
X602489Y240361D01*
X602390Y240351D01*
X602293Y240338D01*
X602195Y240320D01*
X602099Y240299D01*
X602003Y240273D01*
X601909Y240244D01*
X601816Y240212D01*
X601724Y240175D01*
X601634Y240135D01*
X601545Y240091D01*
X601458Y240044D01*
X601373Y239994D01*
X601291Y239940D01*
X601210Y239883D01*
X601132Y239823D01*
X601056Y239759D01*
X600983Y239693D01*
X600912Y239624D01*
X600844Y239552D01*
X600780Y239477D01*
X600718Y239400D01*
X600659Y239321D01*
X600604Y239239D01*
X600551Y239155D01*
X600503Y239070D01*
X600457Y238982D01*
X600415Y238892D01*
X600377Y238801D01*
X600343Y238709D01*
X600312Y238615D01*
X600285Y238520D01*
X600261Y238424D01*
X600242Y238327D01*
X600226Y238230D01*
X600214Y238132D01*
X600206Y238033D01*
X600202Y237934D01*
X600202Y237836D01*
X600206Y237737D01*
X600214Y237638D01*
X600226Y237540D01*
X600242Y237443D01*
X600261Y237346D01*
X600285Y237250D01*
X600312Y237155D01*
X600343Y237061D01*
X600377Y236969D01*
X600415Y236878D01*
X600457Y236788D01*
X600503Y236700D01*
X600551Y236615D01*
X600604Y236531D01*
X600659Y236449D01*
X600718Y236370D01*
X600780Y236293D01*
X600844Y236218D01*
X600912Y236146D01*
X600983Y236077D01*
X601056Y236011D01*
X601132Y235947D01*
X601210Y235887D01*
X601291Y235830D01*
X601373Y235776D01*
X601458Y235726D01*
X601545Y235679D01*
X601634Y235635D01*
X601724Y235595D01*
X601816Y235558D01*
X601909Y235526D01*
X602003Y235497D01*
X602099Y235471D01*
X602195Y235450D01*
X602293Y235432D01*
X602390Y235419D01*
X602489Y235409D01*
X602587Y235403D01*
X602686Y235401D01*
X600202Y247187D02*
X600202Y249670D01*
X600202Y247187D02*
X600204Y247103D01*
X600209Y247020D01*
X600219Y246937D01*
X600232Y246854D01*
X600249Y246772D01*
X600269Y246691D01*
X600293Y246611D01*
X600321Y246532D01*
X600352Y246455D01*
X600386Y246379D01*
X600424Y246304D01*
X600466Y246231D01*
X600510Y246161D01*
X600558Y246092D01*
X600608Y246025D01*
X600662Y245961D01*
X600718Y245900D01*
X600778Y245840D01*
X600839Y245784D01*
X600903Y245730D01*
X600970Y245680D01*
X601039Y245632D01*
X601109Y245588D01*
X601182Y245546D01*
X601257Y245508D01*
X601333Y245474D01*
X601410Y245443D01*
X601489Y245415D01*
X601569Y245391D01*
X601650Y245371D01*
X601732Y245354D01*
X601815Y245341D01*
X601898Y245331D01*
X601981Y245326D01*
X602065Y245324D01*
X605790Y245324D01*
X605874Y245326D01*
X605957Y245332D01*
X606040Y245341D01*
X606123Y245354D01*
X606205Y245371D01*
X606286Y245391D01*
X606366Y245415D01*
X606445Y245443D01*
X606522Y245474D01*
X606598Y245508D01*
X606673Y245546D01*
X606746Y245588D01*
X606816Y245632D01*
X606885Y245680D01*
X606952Y245730D01*
X607016Y245784D01*
X607077Y245840D01*
X607137Y245900D01*
X607193Y245961D01*
X607247Y246025D01*
X607297Y246092D01*
X607345Y246161D01*
X607389Y246231D01*
X607431Y246304D01*
X607469Y246379D01*
X607503Y246455D01*
X607534Y246532D01*
X607562Y246611D01*
X607586Y246691D01*
X607606Y246772D01*
X607623Y246854D01*
X607636Y246937D01*
X607646Y247020D01*
X607651Y247103D01*
X607653Y247187D01*
X607653Y249670D01*
X611378Y254621D02*
X600202Y254621D01*
X603927Y254621D02*
X607653Y259588D01*
X605480Y256794D02*
X600202Y259588D01*
X600202Y265839D02*
X600202Y268944D01*
X600202Y265839D02*
X600204Y265755D01*
X600209Y265672D01*
X600219Y265589D01*
X600232Y265506D01*
X600249Y265424D01*
X600269Y265343D01*
X600293Y265263D01*
X600321Y265184D01*
X600352Y265107D01*
X600386Y265031D01*
X600424Y264956D01*
X600466Y264883D01*
X600510Y264813D01*
X600558Y264744D01*
X600608Y264677D01*
X600662Y264613D01*
X600718Y264552D01*
X600778Y264492D01*
X600839Y264436D01*
X600903Y264382D01*
X600970Y264332D01*
X601039Y264284D01*
X601109Y264240D01*
X601182Y264198D01*
X601257Y264160D01*
X601333Y264126D01*
X601410Y264095D01*
X601489Y264067D01*
X601569Y264043D01*
X601650Y264023D01*
X601732Y264006D01*
X601815Y263993D01*
X601898Y263983D01*
X601981Y263978D01*
X602065Y263976D01*
X602065Y263977D02*
X605169Y263977D01*
X605169Y263976D02*
X605268Y263978D01*
X605366Y263984D01*
X605465Y263994D01*
X605562Y264007D01*
X605660Y264025D01*
X605756Y264046D01*
X605852Y264072D01*
X605946Y264101D01*
X606039Y264133D01*
X606131Y264170D01*
X606221Y264210D01*
X606310Y264254D01*
X606397Y264301D01*
X606482Y264351D01*
X606564Y264405D01*
X606645Y264462D01*
X606723Y264522D01*
X606799Y264586D01*
X606872Y264652D01*
X606943Y264721D01*
X607011Y264793D01*
X607075Y264868D01*
X607137Y264945D01*
X607196Y265024D01*
X607251Y265106D01*
X607304Y265190D01*
X607352Y265275D01*
X607398Y265363D01*
X607440Y265453D01*
X607478Y265544D01*
X607512Y265636D01*
X607543Y265730D01*
X607570Y265825D01*
X607594Y265921D01*
X607613Y266018D01*
X607629Y266115D01*
X607641Y266213D01*
X607649Y266312D01*
X607653Y266411D01*
X607653Y266509D01*
X607649Y266608D01*
X607641Y266707D01*
X607629Y266805D01*
X607613Y266902D01*
X607594Y266999D01*
X607570Y267095D01*
X607543Y267190D01*
X607512Y267284D01*
X607478Y267376D01*
X607440Y267467D01*
X607398Y267557D01*
X607352Y267645D01*
X607304Y267730D01*
X607251Y267814D01*
X607196Y267896D01*
X607137Y267975D01*
X607075Y268052D01*
X607011Y268127D01*
X606943Y268199D01*
X606872Y268268D01*
X606799Y268334D01*
X606723Y268398D01*
X606645Y268458D01*
X606564Y268515D01*
X606482Y268569D01*
X606397Y268619D01*
X606310Y268666D01*
X606221Y268710D01*
X606131Y268750D01*
X606039Y268787D01*
X605946Y268819D01*
X605852Y268848D01*
X605756Y268874D01*
X605660Y268895D01*
X605562Y268913D01*
X605465Y268926D01*
X605366Y268936D01*
X605268Y268942D01*
X605169Y268944D01*
X603927Y268944D01*
X603927Y263977D01*
X607653Y272864D02*
X607653Y276589D01*
X611378Y274106D02*
X602065Y274106D01*
X602065Y274105D02*
X601981Y274107D01*
X601898Y274112D01*
X601815Y274122D01*
X601732Y274135D01*
X601650Y274152D01*
X601569Y274172D01*
X601489Y274196D01*
X601410Y274224D01*
X601333Y274255D01*
X601257Y274289D01*
X601182Y274327D01*
X601109Y274369D01*
X601039Y274413D01*
X600970Y274461D01*
X600903Y274511D01*
X600839Y274565D01*
X600778Y274621D01*
X600718Y274681D01*
X600662Y274742D01*
X600608Y274806D01*
X600558Y274873D01*
X600510Y274942D01*
X600466Y275012D01*
X600424Y275085D01*
X600386Y275160D01*
X600352Y275236D01*
X600321Y275313D01*
X600293Y275392D01*
X600269Y275472D01*
X600249Y275553D01*
X600232Y275635D01*
X600219Y275718D01*
X600209Y275801D01*
X600204Y275884D01*
X600202Y275968D01*
X600202Y276589D01*
X606411Y281855D02*
X606411Y284960D01*
X606410Y284960D02*
X606408Y285071D01*
X606402Y285181D01*
X606392Y285292D01*
X606378Y285402D01*
X606361Y285511D01*
X606339Y285620D01*
X606314Y285728D01*
X606284Y285834D01*
X606251Y285940D01*
X606214Y286045D01*
X606174Y286148D01*
X606129Y286249D01*
X606082Y286349D01*
X606030Y286448D01*
X605975Y286544D01*
X605917Y286638D01*
X605856Y286730D01*
X605791Y286820D01*
X605723Y286908D01*
X605652Y286993D01*
X605578Y287075D01*
X605501Y287155D01*
X605421Y287232D01*
X605339Y287306D01*
X605254Y287377D01*
X605166Y287445D01*
X605076Y287510D01*
X604984Y287571D01*
X604890Y287629D01*
X604794Y287684D01*
X604695Y287736D01*
X604595Y287783D01*
X604494Y287828D01*
X604391Y287868D01*
X604286Y287905D01*
X604180Y287938D01*
X604074Y287968D01*
X603966Y287993D01*
X603857Y288015D01*
X603748Y288032D01*
X603638Y288046D01*
X603527Y288056D01*
X603417Y288062D01*
X603306Y288064D01*
X603195Y288062D01*
X603085Y288056D01*
X602974Y288046D01*
X602864Y288032D01*
X602755Y288015D01*
X602646Y287993D01*
X602538Y287968D01*
X602432Y287938D01*
X602326Y287905D01*
X602221Y287868D01*
X602118Y287828D01*
X602017Y287783D01*
X601917Y287736D01*
X601818Y287684D01*
X601722Y287629D01*
X601628Y287571D01*
X601536Y287510D01*
X601446Y287445D01*
X601358Y287377D01*
X601273Y287306D01*
X601191Y287232D01*
X601111Y287155D01*
X601034Y287075D01*
X600960Y286993D01*
X600889Y286908D01*
X600821Y286820D01*
X600756Y286730D01*
X600695Y286638D01*
X600637Y286544D01*
X600582Y286448D01*
X600530Y286349D01*
X600483Y286249D01*
X600438Y286148D01*
X600398Y286045D01*
X600361Y285940D01*
X600328Y285834D01*
X600298Y285728D01*
X600273Y285620D01*
X600251Y285511D01*
X600234Y285402D01*
X600220Y285292D01*
X600210Y285181D01*
X600204Y285071D01*
X600202Y284960D01*
X600202Y281855D01*
X611378Y281855D01*
X611378Y284960D01*
X611376Y285059D01*
X611370Y285157D01*
X611360Y285256D01*
X611347Y285353D01*
X611329Y285451D01*
X611308Y285547D01*
X611282Y285643D01*
X611253Y285737D01*
X611221Y285830D01*
X611184Y285922D01*
X611144Y286012D01*
X611100Y286101D01*
X611053Y286188D01*
X611003Y286273D01*
X610949Y286355D01*
X610892Y286436D01*
X610832Y286514D01*
X610768Y286590D01*
X610702Y286663D01*
X610633Y286734D01*
X610561Y286802D01*
X610486Y286866D01*
X610409Y286928D01*
X610330Y286987D01*
X610248Y287042D01*
X610164Y287095D01*
X610079Y287143D01*
X609991Y287189D01*
X609901Y287231D01*
X609810Y287269D01*
X609718Y287303D01*
X609624Y287334D01*
X609529Y287361D01*
X609433Y287385D01*
X609336Y287404D01*
X609239Y287420D01*
X609141Y287432D01*
X609042Y287440D01*
X608943Y287444D01*
X608845Y287444D01*
X608746Y287440D01*
X608647Y287432D01*
X608549Y287420D01*
X608452Y287404D01*
X608355Y287385D01*
X608259Y287361D01*
X608164Y287334D01*
X608070Y287303D01*
X607978Y287269D01*
X607887Y287231D01*
X607797Y287189D01*
X607709Y287143D01*
X607624Y287095D01*
X607540Y287042D01*
X607458Y286987D01*
X607379Y286928D01*
X607302Y286866D01*
X607227Y286802D01*
X607155Y286734D01*
X607086Y286663D01*
X607020Y286590D01*
X606956Y286514D01*
X606896Y286436D01*
X606839Y286355D01*
X606785Y286273D01*
X606735Y286188D01*
X606688Y286101D01*
X606644Y286012D01*
X606604Y285922D01*
X606567Y285830D01*
X606535Y285737D01*
X606506Y285643D01*
X606480Y285547D01*
X606459Y285451D01*
X606441Y285353D01*
X606428Y285256D01*
X606418Y285157D01*
X606412Y285059D01*
X606410Y284960D01*
X600202Y294414D02*
X600202Y297519D01*
X600202Y294414D02*
X600204Y294330D01*
X600209Y294247D01*
X600219Y294164D01*
X600232Y294081D01*
X600249Y293999D01*
X600269Y293918D01*
X600293Y293838D01*
X600321Y293759D01*
X600352Y293682D01*
X600386Y293606D01*
X600424Y293531D01*
X600466Y293458D01*
X600510Y293388D01*
X600558Y293319D01*
X600608Y293252D01*
X600662Y293188D01*
X600718Y293127D01*
X600778Y293067D01*
X600839Y293011D01*
X600903Y292957D01*
X600970Y292907D01*
X601039Y292859D01*
X601109Y292815D01*
X601182Y292773D01*
X601257Y292735D01*
X601333Y292701D01*
X601410Y292670D01*
X601489Y292642D01*
X601569Y292618D01*
X601650Y292598D01*
X601732Y292581D01*
X601815Y292568D01*
X601898Y292558D01*
X601981Y292553D01*
X602065Y292551D01*
X602065Y292552D02*
X605169Y292552D01*
X605169Y292551D02*
X605268Y292553D01*
X605366Y292559D01*
X605465Y292569D01*
X605562Y292582D01*
X605660Y292600D01*
X605756Y292621D01*
X605852Y292647D01*
X605946Y292676D01*
X606039Y292708D01*
X606131Y292745D01*
X606221Y292785D01*
X606310Y292829D01*
X606397Y292876D01*
X606482Y292926D01*
X606564Y292980D01*
X606645Y293037D01*
X606723Y293097D01*
X606799Y293161D01*
X606872Y293227D01*
X606943Y293296D01*
X607011Y293368D01*
X607075Y293443D01*
X607137Y293520D01*
X607196Y293599D01*
X607251Y293681D01*
X607304Y293765D01*
X607352Y293850D01*
X607398Y293938D01*
X607440Y294028D01*
X607478Y294119D01*
X607512Y294211D01*
X607543Y294305D01*
X607570Y294400D01*
X607594Y294496D01*
X607613Y294593D01*
X607629Y294690D01*
X607641Y294788D01*
X607649Y294887D01*
X607653Y294986D01*
X607653Y295084D01*
X607649Y295183D01*
X607641Y295282D01*
X607629Y295380D01*
X607613Y295477D01*
X607594Y295574D01*
X607570Y295670D01*
X607543Y295765D01*
X607512Y295859D01*
X607478Y295951D01*
X607440Y296042D01*
X607398Y296132D01*
X607352Y296220D01*
X607304Y296305D01*
X607251Y296389D01*
X607196Y296471D01*
X607137Y296550D01*
X607075Y296627D01*
X607011Y296702D01*
X606943Y296774D01*
X606872Y296843D01*
X606799Y296909D01*
X606723Y296973D01*
X606645Y297033D01*
X606564Y297090D01*
X606482Y297144D01*
X606397Y297194D01*
X606310Y297241D01*
X606221Y297285D01*
X606131Y297325D01*
X606039Y297362D01*
X605946Y297394D01*
X605852Y297423D01*
X605756Y297449D01*
X605660Y297470D01*
X605562Y297488D01*
X605465Y297501D01*
X605366Y297511D01*
X605268Y297517D01*
X605169Y297519D01*
X603927Y297519D01*
X603927Y292552D01*
X604548Y304557D02*
X604548Y307351D01*
X604548Y304557D02*
X604546Y304465D01*
X604540Y304373D01*
X604530Y304281D01*
X604517Y304190D01*
X604499Y304099D01*
X604478Y304009D01*
X604453Y303921D01*
X604424Y303833D01*
X604391Y303747D01*
X604355Y303662D01*
X604315Y303579D01*
X604272Y303497D01*
X604225Y303418D01*
X604175Y303340D01*
X604122Y303265D01*
X604066Y303192D01*
X604006Y303121D01*
X603944Y303053D01*
X603879Y302988D01*
X603811Y302926D01*
X603740Y302866D01*
X603667Y302810D01*
X603592Y302757D01*
X603514Y302707D01*
X603435Y302660D01*
X603353Y302617D01*
X603270Y302577D01*
X603185Y302541D01*
X603099Y302508D01*
X603011Y302479D01*
X602923Y302454D01*
X602833Y302433D01*
X602742Y302415D01*
X602651Y302402D01*
X602559Y302392D01*
X602467Y302386D01*
X602375Y302384D01*
X602283Y302386D01*
X602191Y302392D01*
X602099Y302402D01*
X602008Y302415D01*
X601917Y302433D01*
X601827Y302454D01*
X601739Y302479D01*
X601651Y302508D01*
X601565Y302541D01*
X601480Y302577D01*
X601397Y302617D01*
X601315Y302660D01*
X601236Y302707D01*
X601158Y302757D01*
X601083Y302810D01*
X601010Y302866D01*
X600939Y302926D01*
X600871Y302988D01*
X600806Y303053D01*
X600744Y303121D01*
X600684Y303192D01*
X600628Y303265D01*
X600575Y303340D01*
X600525Y303418D01*
X600478Y303497D01*
X600435Y303579D01*
X600395Y303662D01*
X600359Y303747D01*
X600326Y303833D01*
X600297Y303921D01*
X600272Y304009D01*
X600251Y304099D01*
X600233Y304190D01*
X600220Y304281D01*
X600210Y304373D01*
X600204Y304465D01*
X600202Y304557D01*
X600202Y307351D01*
X605790Y307351D01*
X605874Y307349D01*
X605957Y307344D01*
X606040Y307334D01*
X606123Y307321D01*
X606205Y307304D01*
X606286Y307284D01*
X606366Y307260D01*
X606445Y307232D01*
X606522Y307201D01*
X606598Y307167D01*
X606673Y307129D01*
X606746Y307087D01*
X606816Y307043D01*
X606885Y306995D01*
X606952Y306945D01*
X607016Y306891D01*
X607077Y306835D01*
X607137Y306775D01*
X607193Y306714D01*
X607247Y306650D01*
X607297Y306583D01*
X607345Y306514D01*
X607389Y306444D01*
X607431Y306371D01*
X607469Y306296D01*
X607503Y306220D01*
X607534Y306143D01*
X607562Y306064D01*
X607586Y305984D01*
X607606Y305903D01*
X607623Y305821D01*
X607636Y305738D01*
X607646Y305655D01*
X607651Y305572D01*
X607653Y305488D01*
X607653Y303005D01*
X600202Y314533D02*
X600202Y317638D01*
X600202Y314533D02*
X600204Y314449D01*
X600209Y314366D01*
X600219Y314283D01*
X600232Y314200D01*
X600249Y314118D01*
X600269Y314037D01*
X600293Y313957D01*
X600321Y313878D01*
X600352Y313801D01*
X600386Y313725D01*
X600424Y313650D01*
X600466Y313577D01*
X600510Y313507D01*
X600558Y313438D01*
X600608Y313371D01*
X600662Y313307D01*
X600718Y313246D01*
X600778Y313186D01*
X600839Y313130D01*
X600903Y313076D01*
X600970Y313026D01*
X601039Y312978D01*
X601109Y312934D01*
X601182Y312892D01*
X601257Y312854D01*
X601333Y312820D01*
X601410Y312789D01*
X601489Y312761D01*
X601569Y312737D01*
X601650Y312717D01*
X601732Y312700D01*
X601815Y312687D01*
X601898Y312677D01*
X601981Y312672D01*
X602065Y312670D01*
X602065Y312671D02*
X605790Y312671D01*
X605790Y312670D02*
X605874Y312672D01*
X605957Y312678D01*
X606040Y312687D01*
X606123Y312700D01*
X606205Y312717D01*
X606286Y312737D01*
X606366Y312761D01*
X606445Y312789D01*
X606522Y312820D01*
X606598Y312854D01*
X606673Y312892D01*
X606746Y312934D01*
X606816Y312978D01*
X606885Y313026D01*
X606952Y313076D01*
X607016Y313130D01*
X607077Y313186D01*
X607137Y313246D01*
X607193Y313307D01*
X607247Y313371D01*
X607297Y313438D01*
X607345Y313507D01*
X607389Y313577D01*
X607431Y313650D01*
X607469Y313725D01*
X607503Y313801D01*
X607534Y313878D01*
X607562Y313957D01*
X607586Y314037D01*
X607606Y314118D01*
X607623Y314200D01*
X607636Y314283D01*
X607646Y314366D01*
X607651Y314449D01*
X607653Y314533D01*
X607653Y317638D01*
X598339Y317638D01*
X598253Y317636D01*
X598167Y317630D01*
X598082Y317620D01*
X597997Y317606D01*
X597912Y317589D01*
X597829Y317567D01*
X597747Y317541D01*
X597666Y317512D01*
X597587Y317479D01*
X597509Y317443D01*
X597432Y317403D01*
X597358Y317359D01*
X597286Y317312D01*
X597216Y317262D01*
X597149Y317208D01*
X597084Y317152D01*
X597022Y317092D01*
X596962Y317030D01*
X596906Y316965D01*
X596852Y316898D01*
X596802Y316828D01*
X596755Y316756D01*
X596711Y316682D01*
X596671Y316605D01*
X596635Y316528D01*
X596602Y316448D01*
X596573Y316367D01*
X596547Y316285D01*
X596525Y316202D01*
X596508Y316117D01*
X596494Y316032D01*
X596484Y315947D01*
X596478Y315861D01*
X596476Y315775D01*
X596477Y315775D02*
X596477Y313292D01*
X602065Y323123D02*
X611378Y323123D01*
X602065Y323123D02*
X601981Y323125D01*
X601898Y323130D01*
X601815Y323140D01*
X601732Y323153D01*
X601650Y323170D01*
X601569Y323190D01*
X601489Y323214D01*
X601410Y323242D01*
X601333Y323273D01*
X601257Y323307D01*
X601182Y323345D01*
X601109Y323387D01*
X601039Y323431D01*
X600970Y323479D01*
X600903Y323529D01*
X600839Y323583D01*
X600778Y323639D01*
X600718Y323699D01*
X600662Y323760D01*
X600608Y323824D01*
X600558Y323891D01*
X600510Y323960D01*
X600466Y324030D01*
X600424Y324103D01*
X600386Y324178D01*
X600352Y324254D01*
X600321Y324331D01*
X600293Y324410D01*
X600269Y324490D01*
X600249Y324571D01*
X600232Y324653D01*
X600219Y324736D01*
X600209Y324819D01*
X600204Y324902D01*
X600202Y324986D01*
X600202Y330990D02*
X600202Y334094D01*
X600202Y330990D02*
X600204Y330906D01*
X600209Y330823D01*
X600219Y330740D01*
X600232Y330657D01*
X600249Y330575D01*
X600269Y330494D01*
X600293Y330414D01*
X600321Y330335D01*
X600352Y330258D01*
X600386Y330182D01*
X600424Y330107D01*
X600466Y330034D01*
X600510Y329964D01*
X600558Y329895D01*
X600608Y329828D01*
X600662Y329764D01*
X600718Y329703D01*
X600778Y329643D01*
X600839Y329587D01*
X600903Y329533D01*
X600970Y329483D01*
X601039Y329435D01*
X601109Y329391D01*
X601182Y329349D01*
X601257Y329311D01*
X601333Y329277D01*
X601410Y329246D01*
X601489Y329218D01*
X601569Y329194D01*
X601650Y329174D01*
X601732Y329157D01*
X601815Y329144D01*
X601898Y329134D01*
X601981Y329129D01*
X602065Y329127D01*
X605169Y329127D01*
X605268Y329129D01*
X605366Y329135D01*
X605465Y329145D01*
X605562Y329158D01*
X605660Y329176D01*
X605756Y329197D01*
X605852Y329223D01*
X605946Y329252D01*
X606039Y329284D01*
X606131Y329321D01*
X606221Y329361D01*
X606310Y329405D01*
X606397Y329452D01*
X606482Y329502D01*
X606564Y329556D01*
X606645Y329613D01*
X606723Y329673D01*
X606799Y329737D01*
X606872Y329803D01*
X606943Y329872D01*
X607011Y329944D01*
X607075Y330019D01*
X607137Y330096D01*
X607196Y330175D01*
X607251Y330257D01*
X607304Y330341D01*
X607352Y330426D01*
X607398Y330514D01*
X607440Y330604D01*
X607478Y330695D01*
X607512Y330787D01*
X607543Y330881D01*
X607570Y330976D01*
X607594Y331072D01*
X607613Y331169D01*
X607629Y331266D01*
X607641Y331364D01*
X607649Y331463D01*
X607653Y331562D01*
X607653Y331660D01*
X607649Y331759D01*
X607641Y331858D01*
X607629Y331956D01*
X607613Y332053D01*
X607594Y332150D01*
X607570Y332246D01*
X607543Y332341D01*
X607512Y332435D01*
X607478Y332527D01*
X607440Y332618D01*
X607398Y332708D01*
X607352Y332796D01*
X607304Y332881D01*
X607251Y332965D01*
X607196Y333047D01*
X607137Y333126D01*
X607075Y333203D01*
X607011Y333278D01*
X606943Y333350D01*
X606872Y333419D01*
X606799Y333485D01*
X606723Y333549D01*
X606645Y333609D01*
X606564Y333666D01*
X606482Y333720D01*
X606397Y333770D01*
X606310Y333817D01*
X606221Y333861D01*
X606131Y333901D01*
X606039Y333938D01*
X605946Y333970D01*
X605852Y333999D01*
X605756Y334025D01*
X605660Y334046D01*
X605562Y334064D01*
X605465Y334077D01*
X605366Y334087D01*
X605268Y334093D01*
X605169Y334095D01*
X605169Y334094D02*
X603927Y334094D01*
X603927Y329127D01*
X727202Y29577D02*
X738378Y29577D01*
X738378Y32681D01*
X738376Y32792D01*
X738370Y32902D01*
X738360Y33013D01*
X738346Y33123D01*
X738329Y33232D01*
X738307Y33341D01*
X738282Y33449D01*
X738252Y33555D01*
X738219Y33661D01*
X738182Y33766D01*
X738142Y33869D01*
X738097Y33970D01*
X738050Y34070D01*
X737998Y34169D01*
X737943Y34265D01*
X737885Y34359D01*
X737824Y34451D01*
X737759Y34541D01*
X737691Y34629D01*
X737620Y34714D01*
X737546Y34796D01*
X737469Y34876D01*
X737389Y34953D01*
X737307Y35027D01*
X737222Y35098D01*
X737134Y35166D01*
X737044Y35231D01*
X736952Y35292D01*
X736858Y35350D01*
X736762Y35405D01*
X736663Y35457D01*
X736563Y35504D01*
X736462Y35549D01*
X736359Y35589D01*
X736254Y35626D01*
X736148Y35659D01*
X736042Y35689D01*
X735934Y35714D01*
X735825Y35736D01*
X735716Y35753D01*
X735606Y35767D01*
X735495Y35777D01*
X735385Y35783D01*
X735274Y35785D01*
X735163Y35783D01*
X735053Y35777D01*
X734942Y35767D01*
X734832Y35753D01*
X734723Y35736D01*
X734614Y35714D01*
X734506Y35689D01*
X734400Y35659D01*
X734294Y35626D01*
X734189Y35589D01*
X734086Y35549D01*
X733985Y35504D01*
X733885Y35457D01*
X733786Y35405D01*
X733690Y35350D01*
X733596Y35292D01*
X733504Y35231D01*
X733414Y35166D01*
X733326Y35098D01*
X733241Y35027D01*
X733159Y34953D01*
X733079Y34876D01*
X733002Y34796D01*
X732928Y34714D01*
X732857Y34629D01*
X732789Y34541D01*
X732724Y34451D01*
X732663Y34359D01*
X732605Y34265D01*
X732550Y34169D01*
X732498Y34070D01*
X732451Y33970D01*
X732406Y33869D01*
X732366Y33766D01*
X732329Y33661D01*
X732296Y33555D01*
X732266Y33449D01*
X732241Y33341D01*
X732219Y33232D01*
X732202Y33123D01*
X732188Y33013D01*
X732178Y32902D01*
X732172Y32792D01*
X732170Y32681D01*
X732169Y32681D02*
X732169Y29577D01*
X738378Y43829D02*
X738376Y43933D01*
X738370Y44038D01*
X738360Y44142D01*
X738347Y44245D01*
X738329Y44348D01*
X738308Y44451D01*
X738283Y44552D01*
X738254Y44653D01*
X738221Y44752D01*
X738185Y44850D01*
X738145Y44946D01*
X738101Y45041D01*
X738054Y45135D01*
X738004Y45226D01*
X737950Y45315D01*
X737893Y45403D01*
X737832Y45488D01*
X737768Y45571D01*
X737702Y45651D01*
X737632Y45729D01*
X737560Y45805D01*
X737484Y45877D01*
X737406Y45947D01*
X737326Y46013D01*
X737243Y46077D01*
X737158Y46138D01*
X737070Y46195D01*
X736981Y46249D01*
X736890Y46299D01*
X736796Y46346D01*
X736701Y46390D01*
X736605Y46430D01*
X736507Y46466D01*
X736408Y46499D01*
X736307Y46528D01*
X736206Y46553D01*
X736103Y46574D01*
X736000Y46592D01*
X735897Y46605D01*
X735793Y46615D01*
X735688Y46621D01*
X735584Y46623D01*
X738379Y43829D02*
X738377Y43710D01*
X738371Y43592D01*
X738361Y43473D01*
X738348Y43355D01*
X738330Y43238D01*
X738308Y43121D01*
X738283Y43005D01*
X738254Y42890D01*
X738221Y42775D01*
X738184Y42662D01*
X738144Y42551D01*
X738100Y42440D01*
X738052Y42332D01*
X738001Y42225D01*
X737946Y42119D01*
X737887Y42016D01*
X737826Y41914D01*
X737761Y41815D01*
X737692Y41717D01*
X737621Y41623D01*
X737546Y41530D01*
X737469Y41440D01*
X737388Y41353D01*
X737305Y41268D01*
X737219Y41186D01*
X737130Y41107D01*
X737039Y41031D01*
X736945Y40958D01*
X736849Y40889D01*
X736750Y40822D01*
X736650Y40759D01*
X736547Y40699D01*
X736443Y40642D01*
X736336Y40590D01*
X736228Y40540D01*
X736119Y40494D01*
X736007Y40452D01*
X735895Y40414D01*
X733411Y45692D02*
X733485Y45767D01*
X733562Y45839D01*
X733641Y45909D01*
X733723Y45976D01*
X733807Y46040D01*
X733893Y46101D01*
X733981Y46159D01*
X734072Y46214D01*
X734164Y46266D01*
X734258Y46314D01*
X734353Y46359D01*
X734451Y46401D01*
X734549Y46439D01*
X734649Y46474D01*
X734750Y46505D01*
X734852Y46532D01*
X734955Y46556D01*
X735058Y46577D01*
X735163Y46593D01*
X735268Y46606D01*
X735373Y46616D01*
X735478Y46621D01*
X735584Y46623D01*
X733411Y45692D02*
X727202Y40414D01*
X727202Y46623D01*
X484378Y29577D02*
X473202Y29577D01*
X484378Y29577D02*
X484378Y32681D01*
X484376Y32792D01*
X484370Y32902D01*
X484360Y33013D01*
X484346Y33123D01*
X484329Y33232D01*
X484307Y33341D01*
X484282Y33449D01*
X484252Y33555D01*
X484219Y33661D01*
X484182Y33766D01*
X484142Y33869D01*
X484097Y33970D01*
X484050Y34070D01*
X483998Y34169D01*
X483943Y34265D01*
X483885Y34359D01*
X483824Y34451D01*
X483759Y34541D01*
X483691Y34629D01*
X483620Y34714D01*
X483546Y34796D01*
X483469Y34876D01*
X483389Y34953D01*
X483307Y35027D01*
X483222Y35098D01*
X483134Y35166D01*
X483044Y35231D01*
X482952Y35292D01*
X482858Y35350D01*
X482762Y35405D01*
X482663Y35457D01*
X482563Y35504D01*
X482462Y35549D01*
X482359Y35589D01*
X482254Y35626D01*
X482148Y35659D01*
X482042Y35689D01*
X481934Y35714D01*
X481825Y35736D01*
X481716Y35753D01*
X481606Y35767D01*
X481495Y35777D01*
X481385Y35783D01*
X481274Y35785D01*
X481163Y35783D01*
X481053Y35777D01*
X480942Y35767D01*
X480832Y35753D01*
X480723Y35736D01*
X480614Y35714D01*
X480506Y35689D01*
X480400Y35659D01*
X480294Y35626D01*
X480189Y35589D01*
X480086Y35549D01*
X479985Y35504D01*
X479885Y35457D01*
X479786Y35405D01*
X479690Y35350D01*
X479596Y35292D01*
X479504Y35231D01*
X479414Y35166D01*
X479326Y35098D01*
X479241Y35027D01*
X479159Y34953D01*
X479079Y34876D01*
X479002Y34796D01*
X478928Y34714D01*
X478857Y34629D01*
X478789Y34541D01*
X478724Y34451D01*
X478663Y34359D01*
X478605Y34265D01*
X478550Y34169D01*
X478498Y34070D01*
X478451Y33970D01*
X478406Y33869D01*
X478366Y33766D01*
X478329Y33661D01*
X478296Y33555D01*
X478266Y33449D01*
X478241Y33341D01*
X478219Y33232D01*
X478202Y33123D01*
X478188Y33013D01*
X478178Y32902D01*
X478172Y32792D01*
X478170Y32681D01*
X478169Y32681D02*
X478169Y29577D01*
X481894Y40414D02*
X484378Y43519D01*
X473202Y43519D01*
X473202Y46623D02*
X473202Y40414D01*
X793806Y13462D02*
X801878Y13462D01*
X793806Y13462D02*
X793695Y13464D01*
X793585Y13470D01*
X793474Y13480D01*
X793364Y13494D01*
X793255Y13511D01*
X793146Y13533D01*
X793038Y13558D01*
X792932Y13588D01*
X792826Y13621D01*
X792721Y13658D01*
X792618Y13698D01*
X792517Y13743D01*
X792417Y13790D01*
X792318Y13842D01*
X792222Y13897D01*
X792128Y13955D01*
X792036Y14016D01*
X791946Y14081D01*
X791858Y14149D01*
X791773Y14220D01*
X791691Y14294D01*
X791611Y14371D01*
X791534Y14451D01*
X791460Y14533D01*
X791389Y14618D01*
X791321Y14706D01*
X791256Y14796D01*
X791195Y14888D01*
X791137Y14982D01*
X791082Y15078D01*
X791030Y15177D01*
X790983Y15277D01*
X790938Y15378D01*
X790898Y15481D01*
X790861Y15586D01*
X790828Y15692D01*
X790798Y15798D01*
X790773Y15906D01*
X790751Y16015D01*
X790734Y16124D01*
X790720Y16234D01*
X790710Y16345D01*
X790704Y16455D01*
X790702Y16566D01*
X790704Y16677D01*
X790710Y16787D01*
X790720Y16898D01*
X790734Y17008D01*
X790751Y17117D01*
X790773Y17226D01*
X790798Y17334D01*
X790828Y17440D01*
X790861Y17546D01*
X790898Y17651D01*
X790938Y17754D01*
X790983Y17855D01*
X791030Y17955D01*
X791082Y18054D01*
X791137Y18150D01*
X791195Y18244D01*
X791256Y18336D01*
X791321Y18426D01*
X791389Y18514D01*
X791460Y18599D01*
X791534Y18681D01*
X791611Y18761D01*
X791691Y18838D01*
X791773Y18912D01*
X791858Y18983D01*
X791946Y19051D01*
X792036Y19116D01*
X792128Y19177D01*
X792222Y19235D01*
X792318Y19290D01*
X792417Y19342D01*
X792517Y19389D01*
X792618Y19434D01*
X792721Y19474D01*
X792826Y19511D01*
X792932Y19544D01*
X793038Y19574D01*
X793146Y19599D01*
X793255Y19621D01*
X793364Y19638D01*
X793474Y19652D01*
X793585Y19662D01*
X793695Y19668D01*
X793806Y19670D01*
X793806Y19671D02*
X801878Y19671D01*
X799394Y25273D02*
X801878Y28377D01*
X790702Y28377D01*
X790702Y25273D02*
X790702Y31482D01*
D13*
X367350Y624900D02*
X236050Y624900D01*
X367350Y624900D02*
X367350Y640000D01*
X367350Y685800D02*
X367350Y764900D01*
X236050Y764900D01*
X236050Y685800D01*
X236050Y640000D02*
X236050Y624900D01*
D14*
X265200Y618000D02*
X265202Y618077D01*
X265208Y618154D01*
X265218Y618231D01*
X265232Y618307D01*
X265249Y618382D01*
X265271Y618456D01*
X265296Y618529D01*
X265326Y618601D01*
X265358Y618671D01*
X265395Y618739D01*
X265434Y618805D01*
X265477Y618869D01*
X265524Y618931D01*
X265573Y618990D01*
X265626Y619047D01*
X265681Y619101D01*
X265739Y619152D01*
X265800Y619200D01*
X265863Y619245D01*
X265928Y619286D01*
X265995Y619324D01*
X266064Y619359D01*
X266135Y619389D01*
X266207Y619417D01*
X266281Y619440D01*
X266355Y619460D01*
X266431Y619476D01*
X266507Y619488D01*
X266584Y619496D01*
X266661Y619500D01*
X266739Y619500D01*
X266816Y619496D01*
X266893Y619488D01*
X266969Y619476D01*
X267045Y619460D01*
X267119Y619440D01*
X267193Y619417D01*
X267265Y619389D01*
X267336Y619359D01*
X267405Y619324D01*
X267472Y619286D01*
X267537Y619245D01*
X267600Y619200D01*
X267661Y619152D01*
X267719Y619101D01*
X267774Y619047D01*
X267827Y618990D01*
X267876Y618931D01*
X267923Y618869D01*
X267966Y618805D01*
X268005Y618739D01*
X268042Y618671D01*
X268074Y618601D01*
X268104Y618529D01*
X268129Y618456D01*
X268151Y618382D01*
X268168Y618307D01*
X268182Y618231D01*
X268192Y618154D01*
X268198Y618077D01*
X268200Y618000D01*
X268198Y617923D01*
X268192Y617846D01*
X268182Y617769D01*
X268168Y617693D01*
X268151Y617618D01*
X268129Y617544D01*
X268104Y617471D01*
X268074Y617399D01*
X268042Y617329D01*
X268005Y617261D01*
X267966Y617195D01*
X267923Y617131D01*
X267876Y617069D01*
X267827Y617010D01*
X267774Y616953D01*
X267719Y616899D01*
X267661Y616848D01*
X267600Y616800D01*
X267537Y616755D01*
X267472Y616714D01*
X267405Y616676D01*
X267336Y616641D01*
X267265Y616611D01*
X267193Y616583D01*
X267119Y616560D01*
X267045Y616540D01*
X266969Y616524D01*
X266893Y616512D01*
X266816Y616504D01*
X266739Y616500D01*
X266661Y616500D01*
X266584Y616504D01*
X266507Y616512D01*
X266431Y616524D01*
X266355Y616540D01*
X266281Y616560D01*
X266207Y616583D01*
X266135Y616611D01*
X266064Y616641D01*
X265995Y616676D01*
X265928Y616714D01*
X265863Y616755D01*
X265800Y616800D01*
X265739Y616848D01*
X265681Y616899D01*
X265626Y616953D01*
X265573Y617010D01*
X265524Y617069D01*
X265477Y617131D01*
X265434Y617195D01*
X265395Y617261D01*
X265358Y617329D01*
X265326Y617399D01*
X265296Y617471D01*
X265271Y617544D01*
X265249Y617618D01*
X265232Y617693D01*
X265218Y617769D01*
X265208Y617846D01*
X265202Y617923D01*
X265200Y618000D01*
D15*
X222165Y612420D02*
X222165Y603332D01*
X222167Y603233D01*
X222173Y603133D01*
X222182Y603034D01*
X222195Y602936D01*
X222212Y602838D01*
X222233Y602740D01*
X222258Y602644D01*
X222286Y602549D01*
X222318Y602455D01*
X222353Y602362D01*
X222392Y602270D01*
X222435Y602180D01*
X222480Y602092D01*
X222530Y602005D01*
X222582Y601921D01*
X222638Y601838D01*
X222696Y601758D01*
X222758Y601680D01*
X222823Y601605D01*
X222891Y601532D01*
X222961Y601462D01*
X223034Y601394D01*
X223109Y601329D01*
X223187Y601267D01*
X223267Y601209D01*
X223350Y601153D01*
X223434Y601101D01*
X223521Y601051D01*
X223609Y601006D01*
X223699Y600963D01*
X223791Y600924D01*
X223884Y600889D01*
X223978Y600857D01*
X224073Y600829D01*
X224169Y600804D01*
X224267Y600783D01*
X224365Y600766D01*
X224463Y600753D01*
X224562Y600744D01*
X224662Y600738D01*
X224761Y600736D01*
X226060Y600736D01*
X213321Y612420D02*
X213214Y612418D01*
X213108Y612412D01*
X213002Y612402D01*
X212896Y612389D01*
X212790Y612371D01*
X212686Y612350D01*
X212582Y612325D01*
X212479Y612296D01*
X212378Y612264D01*
X212278Y612227D01*
X212179Y612187D01*
X212081Y612144D01*
X211985Y612097D01*
X211891Y612046D01*
X211799Y611992D01*
X211709Y611935D01*
X211621Y611875D01*
X211536Y611811D01*
X211453Y611744D01*
X211372Y611674D01*
X211294Y611602D01*
X211218Y611526D01*
X211146Y611448D01*
X211076Y611367D01*
X211009Y611284D01*
X210945Y611199D01*
X210885Y611111D01*
X210828Y611021D01*
X210774Y610929D01*
X210723Y610835D01*
X210676Y610739D01*
X210633Y610641D01*
X210593Y610542D01*
X210556Y610442D01*
X210524Y610341D01*
X210495Y610238D01*
X210470Y610134D01*
X210449Y610030D01*
X210431Y609924D01*
X210418Y609818D01*
X210408Y609712D01*
X210402Y609606D01*
X210400Y609499D01*
X213321Y612420D02*
X213442Y612418D01*
X213563Y612412D01*
X213683Y612402D01*
X213804Y612389D01*
X213923Y612371D01*
X214043Y612350D01*
X214161Y612325D01*
X214278Y612296D01*
X214395Y612263D01*
X214510Y612227D01*
X214624Y612186D01*
X214737Y612143D01*
X214849Y612095D01*
X214958Y612044D01*
X215066Y611989D01*
X215173Y611931D01*
X215277Y611870D01*
X215379Y611805D01*
X215479Y611737D01*
X215577Y611666D01*
X215673Y611592D01*
X215766Y611515D01*
X215856Y611434D01*
X215944Y611351D01*
X216029Y611265D01*
X216112Y611176D01*
X216191Y611085D01*
X216268Y610991D01*
X216341Y610895D01*
X216411Y610797D01*
X216478Y610696D01*
X216542Y610593D01*
X216603Y610488D01*
X216660Y610381D01*
X216713Y610273D01*
X216763Y610163D01*
X216809Y610051D01*
X216852Y609938D01*
X216891Y609823D01*
X211375Y607227D02*
X211296Y607305D01*
X211220Y607385D01*
X211147Y607468D01*
X211077Y607554D01*
X211010Y607641D01*
X210946Y607732D01*
X210886Y607824D01*
X210828Y607918D01*
X210774Y608015D01*
X210724Y608113D01*
X210677Y608213D01*
X210633Y608314D01*
X210593Y608417D01*
X210557Y608522D01*
X210525Y608627D01*
X210496Y608734D01*
X210471Y608841D01*
X210449Y608950D01*
X210432Y609059D01*
X210418Y609168D01*
X210409Y609278D01*
X210403Y609389D01*
X210401Y609499D01*
X211374Y607227D02*
X216892Y600736D01*
X210400Y600736D01*
D13*
X356300Y213600D02*
X356300Y177100D01*
X273300Y177100D01*
X253300Y197100D01*
X253300Y213600D01*
X356300Y243600D02*
X356300Y280100D01*
X273300Y280100D01*
X253300Y260100D01*
X253300Y243600D01*
X269800Y258600D02*
X279800Y258600D01*
X274800Y253600D02*
X274800Y263600D01*
D12*
X380562Y181700D02*
X380562Y179781D01*
X380564Y179695D01*
X380570Y179609D01*
X380579Y179523D01*
X380593Y179438D01*
X380610Y179354D01*
X380631Y179270D01*
X380656Y179188D01*
X380684Y179107D01*
X380716Y179027D01*
X380752Y178948D01*
X380791Y178872D01*
X380834Y178797D01*
X380879Y178724D01*
X380928Y178653D01*
X380981Y178585D01*
X381036Y178518D01*
X381094Y178455D01*
X381155Y178394D01*
X381218Y178336D01*
X381285Y178281D01*
X381353Y178228D01*
X381424Y178179D01*
X381497Y178134D01*
X381572Y178091D01*
X381648Y178052D01*
X381727Y178016D01*
X381807Y177984D01*
X381888Y177956D01*
X381970Y177931D01*
X382054Y177910D01*
X382138Y177893D01*
X382223Y177879D01*
X382309Y177870D01*
X382395Y177864D01*
X382481Y177862D01*
X387279Y177862D01*
X387365Y177864D01*
X387451Y177870D01*
X387537Y177879D01*
X387622Y177893D01*
X387706Y177910D01*
X387790Y177931D01*
X387872Y177956D01*
X387953Y177984D01*
X388033Y178016D01*
X388112Y178052D01*
X388188Y178091D01*
X388263Y178134D01*
X388336Y178179D01*
X388407Y178228D01*
X388475Y178281D01*
X388542Y178336D01*
X388605Y178394D01*
X388666Y178455D01*
X388724Y178518D01*
X388779Y178585D01*
X388831Y178653D01*
X388881Y178724D01*
X388926Y178797D01*
X388969Y178872D01*
X389008Y178948D01*
X389044Y179027D01*
X389076Y179107D01*
X389104Y179188D01*
X389129Y179270D01*
X389150Y179354D01*
X389167Y179438D01*
X389181Y179523D01*
X389190Y179609D01*
X389196Y179695D01*
X389198Y179781D01*
X389198Y181700D01*
X387279Y185520D02*
X389198Y187919D01*
X380562Y187919D01*
X380562Y185520D02*
X380562Y190318D01*
M02*
