G04 EAGLE Gerber RS-274X export*
G75*
%MOMM*%
%FSLAX34Y34*%
%LPD*%
%INBottom Copper*%
%IPPOS*%
%AMOC8*
5,1,8,0,0,1.08239X$1,22.5*%
G01*
%ADD10R,1.524000X1.524000*%
%ADD11P,1.649562X8X112.500000*%
%ADD12C,1.400000*%
%ADD13C,1.960000*%
%ADD14R,1.676400X1.676400*%
%ADD15C,1.676400*%
%ADD16C,4.016000*%
%ADD17R,1.288000X1.288000*%
%ADD18C,1.288000*%
%ADD19C,3.220000*%
%ADD20C,4.445000*%
%ADD21R,4.100000X2.000000*%
%ADD22C,0.609600*%
%ADD23C,0.381000*%
%ADD24C,0.254000*%
%ADD25C,0.654800*%


D10*
X469640Y59100D03*
D11*
X495040Y59100D03*
X469640Y84500D03*
X495040Y84500D03*
X469640Y109900D03*
X495040Y109900D03*
X469640Y135300D03*
X495040Y135300D03*
X469640Y160700D03*
X495040Y160700D03*
X469640Y186100D03*
X495040Y186100D03*
X469640Y211500D03*
X495040Y211500D03*
X469640Y236900D03*
X495040Y236900D03*
X469640Y262300D03*
X495040Y262300D03*
X469640Y287700D03*
X495040Y287700D03*
X469640Y313100D03*
X495040Y313100D03*
X469640Y338500D03*
X495040Y338500D03*
X469640Y363900D03*
X495040Y363900D03*
X469640Y389300D03*
X495040Y389300D03*
X469640Y414700D03*
X495040Y414700D03*
X469640Y440100D03*
X495040Y440100D03*
X469640Y465500D03*
X495040Y465500D03*
X469640Y490900D03*
X495040Y490900D03*
D10*
X723640Y59100D03*
D11*
X749040Y59100D03*
X723640Y84500D03*
X749040Y84500D03*
X723640Y109900D03*
X749040Y109900D03*
X723640Y135300D03*
X749040Y135300D03*
X723640Y160700D03*
X749040Y160700D03*
X723640Y186100D03*
X749040Y186100D03*
X723640Y211500D03*
X749040Y211500D03*
X723640Y236900D03*
X749040Y236900D03*
X723640Y262300D03*
X749040Y262300D03*
X723640Y287700D03*
X749040Y287700D03*
X723640Y313100D03*
X749040Y313100D03*
X723640Y338500D03*
X749040Y338500D03*
X723640Y363900D03*
X749040Y363900D03*
X723640Y389300D03*
X749040Y389300D03*
X723640Y414700D03*
X749040Y414700D03*
X723640Y440100D03*
X749040Y440100D03*
X723640Y465500D03*
X749040Y465500D03*
X723640Y490900D03*
X749040Y490900D03*
D12*
X406400Y41040D03*
X406400Y66040D03*
X406400Y91040D03*
D13*
X999760Y693020D03*
X999760Y643020D03*
X874760Y643020D03*
X874760Y693020D03*
D14*
X828040Y689610D03*
D15*
X828040Y664210D03*
X828040Y638810D03*
X828040Y613410D03*
X828040Y588010D03*
X828040Y562610D03*
X828040Y537210D03*
X828040Y511810D03*
X828040Y486410D03*
X828040Y461010D03*
X828040Y435610D03*
X828040Y410210D03*
X828040Y384810D03*
X828040Y359410D03*
X828040Y334010D03*
X828040Y308610D03*
X828040Y283210D03*
X828040Y257810D03*
X828040Y232410D03*
X828040Y207010D03*
D14*
X66040Y689610D03*
D15*
X66040Y664210D03*
X66040Y638810D03*
X66040Y613410D03*
X66040Y588010D03*
X66040Y562610D03*
X66040Y537210D03*
X66040Y511810D03*
X66040Y486410D03*
X66040Y461010D03*
X66040Y435610D03*
X66040Y410210D03*
X66040Y384810D03*
X66040Y359410D03*
X66040Y334010D03*
X66040Y308610D03*
X66040Y283210D03*
X66040Y257810D03*
X66040Y232410D03*
X66040Y207010D03*
D16*
X66040Y734060D03*
X66040Y162560D03*
X828040Y734060D03*
X828040Y162560D03*
D12*
X228600Y41040D03*
X228600Y66040D03*
X228600Y91040D03*
D17*
X266700Y635000D03*
D18*
X291700Y635000D03*
X311700Y635000D03*
X336700Y635000D03*
D19*
X236000Y662100D03*
X367400Y662100D03*
D13*
X999760Y256140D03*
X999760Y206140D03*
X874760Y206140D03*
X874760Y256140D03*
D20*
X63500Y50800D03*
X977900Y50800D03*
X977900Y457200D03*
X152400Y736600D03*
D21*
X261300Y228600D03*
X348300Y228600D03*
D22*
X44450Y88900D03*
D23*
X285750Y171450D02*
X342900Y228600D01*
X82550Y114300D02*
X57150Y88900D01*
X44450Y88900D01*
D24*
X342900Y228600D02*
X348300Y228600D01*
D23*
X127000Y114300D02*
X82550Y114300D01*
D22*
X285750Y171450D03*
D23*
X241300Y127000D01*
X217770Y127000D02*
X204135Y113365D01*
X217770Y127000D02*
X241300Y127000D01*
X190500Y88900D02*
X152400Y88900D01*
X190500Y88900D02*
X204135Y102535D01*
X204135Y113365D01*
X152400Y88900D02*
X127000Y114300D01*
D22*
X996950Y327025D03*
D24*
X723900Y466725D02*
X723900Y473075D01*
X736600Y485775D01*
X736600Y596900D01*
X863600Y682625D02*
X873125Y692150D01*
X876300Y695325D02*
X996950Y695325D01*
X999255Y693020D02*
X999760Y693020D01*
X999255Y693020D02*
X996950Y695325D01*
X874760Y693020D02*
X873890Y692150D01*
X873125Y692150D01*
X874760Y693020D02*
X874760Y693785D01*
X876300Y695325D01*
X723640Y466465D02*
X723640Y465500D01*
X723640Y466465D02*
X723900Y466725D01*
X817118Y677418D02*
X824230Y677418D01*
X838000Y677418D01*
X843207Y682625D01*
X817118Y677418D02*
X736600Y596900D01*
X843207Y682625D02*
X863600Y682625D01*
X495300Y142875D02*
X495300Y136525D01*
X495300Y142875D02*
X514350Y161925D01*
X514350Y546100D01*
X371475Y688975D01*
X168275Y688975D01*
X79375Y600075D01*
X66040Y613410D01*
X495040Y136265D02*
X495040Y135300D01*
X495040Y136265D02*
X495300Y136525D01*
X495300Y161925D02*
X495300Y168275D01*
X508000Y180975D01*
X508000Y495300D01*
X361950Y641350D01*
X346075Y641350D01*
X304800Y682625D01*
X184150Y682625D01*
X495040Y161665D02*
X495040Y160700D01*
X495040Y161665D02*
X495300Y161925D01*
X89535Y588010D02*
X66040Y588010D01*
X89535Y588010D02*
X184150Y682625D01*
X485775Y466725D02*
X492125Y466725D01*
X485775Y466725D02*
X473075Y479425D01*
X431800Y479425D01*
X279400Y631825D01*
X279400Y641350D01*
X273050Y647700D01*
X250825Y647700D01*
X493350Y465500D02*
X495040Y465500D01*
X493350Y465500D02*
X492125Y466725D01*
X114935Y511810D02*
X66040Y511810D01*
X114935Y511810D02*
X250825Y647700D01*
X247650Y304800D02*
X441325Y304800D01*
X247650Y304800D02*
X66040Y486410D01*
D22*
X441325Y304800D03*
D23*
X266700Y549275D02*
X266700Y635000D01*
X266700Y549275D02*
X457200Y358775D01*
X466725Y120650D02*
X466725Y111125D01*
X466725Y120650D02*
X457200Y130175D01*
X457200Y266700D02*
X457200Y358775D01*
X457200Y241300D02*
X457200Y130175D01*
D24*
X467950Y109900D02*
X469640Y109900D01*
D23*
X467950Y109900D02*
X466725Y111125D01*
D24*
X493350Y338500D02*
X495040Y338500D01*
D23*
X285750Y247650D02*
X266700Y228600D01*
X431800Y247650D02*
X450850Y247650D01*
X431800Y247650D02*
X285750Y247650D01*
D24*
X266700Y228600D02*
X261300Y228600D01*
D23*
X450850Y247650D02*
X457200Y241300D01*
X444500Y254000D02*
X457200Y266700D01*
X438150Y254000D02*
X431800Y247650D01*
X438150Y254000D02*
X444500Y254000D01*
X474638Y351835D02*
X475228Y352425D01*
X464140Y351835D02*
X457200Y358775D01*
X464140Y351835D02*
X474638Y351835D01*
X480015Y351835D01*
X493350Y338500D01*
D22*
X441325Y228600D03*
D23*
X441325Y101600D01*
X228600Y91040D02*
X228600Y90488D01*
X403143Y90488D02*
X406400Y91040D01*
X403143Y90488D02*
X228600Y90488D01*
D24*
X406400Y91040D02*
X411245Y92075D01*
D23*
X431800Y92075D01*
X441325Y101600D01*
D24*
X333375Y65088D02*
X228600Y65088D01*
X333375Y65088D02*
X368300Y30163D01*
X228600Y65088D02*
X228600Y66040D01*
D22*
X368300Y30163D03*
D24*
X466725Y98425D02*
X476250Y98425D01*
X482600Y104775D01*
X482600Y298450D01*
X469900Y311150D01*
X469900Y312840D02*
X469640Y313100D01*
X469900Y312840D02*
X469900Y311150D01*
X430530Y62230D02*
X406400Y66040D01*
X430530Y62230D02*
X466725Y98425D01*
X874760Y256140D02*
X875795Y257175D01*
X996950Y257175D01*
X997985Y256140D02*
X999760Y256140D01*
X997985Y256140D02*
X996950Y257175D01*
D25*
X863600Y660400D03*
M02*
