G04 EAGLE Gerber RS-274X export*
G75*
%MOMM*%
%FSLAX34Y34*%
%LPD*%
%INTop Copper*%
%IPPOS*%
%AMOC8*
5,1,8,0,0,1.08239X$1,22.5*%
G01*
%ADD10R,0.800000X0.800000*%
%ADD11R,1.524000X1.524000*%
%ADD12P,1.649562X8X112.500000*%
%ADD13C,1.400000*%
%ADD14C,1.960000*%
%ADD15R,1.676400X1.676400*%
%ADD16C,1.676400*%
%ADD17C,4.016000*%
%ADD18R,0.949959X1.031241*%
%ADD19R,1.288000X1.288000*%
%ADD20C,1.288000*%
%ADD21C,3.220000*%
%ADD22C,1.016000*%
%ADD23C,4.445000*%
%ADD24C,0.381000*%
%ADD25C,0.254000*%
%ADD26C,0.609600*%
%ADD27C,0.654800*%


D10*
X929760Y402590D03*
X944760Y402590D03*
D11*
X469640Y59100D03*
D12*
X495040Y59100D03*
X469640Y84500D03*
X495040Y84500D03*
X469640Y109900D03*
X495040Y109900D03*
X469640Y135300D03*
X495040Y135300D03*
X469640Y160700D03*
X495040Y160700D03*
X469640Y186100D03*
X495040Y186100D03*
X469640Y211500D03*
X495040Y211500D03*
X469640Y236900D03*
X495040Y236900D03*
X469640Y262300D03*
X495040Y262300D03*
X469640Y287700D03*
X495040Y287700D03*
X469640Y313100D03*
X495040Y313100D03*
X469640Y338500D03*
X495040Y338500D03*
X469640Y363900D03*
X495040Y363900D03*
X469640Y389300D03*
X495040Y389300D03*
X469640Y414700D03*
X495040Y414700D03*
X469640Y440100D03*
X495040Y440100D03*
X469640Y465500D03*
X495040Y465500D03*
X469640Y490900D03*
X495040Y490900D03*
D11*
X723640Y59100D03*
D12*
X749040Y59100D03*
X723640Y84500D03*
X749040Y84500D03*
X723640Y109900D03*
X749040Y109900D03*
X723640Y135300D03*
X749040Y135300D03*
X723640Y160700D03*
X749040Y160700D03*
X723640Y186100D03*
X749040Y186100D03*
X723640Y211500D03*
X749040Y211500D03*
X723640Y236900D03*
X749040Y236900D03*
X723640Y262300D03*
X749040Y262300D03*
X723640Y287700D03*
X749040Y287700D03*
X723640Y313100D03*
X749040Y313100D03*
X723640Y338500D03*
X749040Y338500D03*
X723640Y363900D03*
X749040Y363900D03*
X723640Y389300D03*
X749040Y389300D03*
X723640Y414700D03*
X749040Y414700D03*
X723640Y440100D03*
X749040Y440100D03*
X723640Y465500D03*
X749040Y465500D03*
X723640Y490900D03*
X749040Y490900D03*
D13*
X406400Y41040D03*
X406400Y66040D03*
X406400Y91040D03*
D14*
X999760Y693020D03*
X999760Y643020D03*
X874760Y643020D03*
X874760Y693020D03*
D15*
X828040Y689610D03*
D16*
X828040Y664210D03*
X828040Y638810D03*
X828040Y613410D03*
X828040Y588010D03*
X828040Y562610D03*
X828040Y537210D03*
X828040Y511810D03*
X828040Y486410D03*
X828040Y461010D03*
X828040Y435610D03*
X828040Y410210D03*
X828040Y384810D03*
X828040Y359410D03*
X828040Y334010D03*
X828040Y308610D03*
X828040Y283210D03*
X828040Y257810D03*
X828040Y232410D03*
X828040Y207010D03*
D15*
X66040Y689610D03*
D16*
X66040Y664210D03*
X66040Y638810D03*
X66040Y613410D03*
X66040Y588010D03*
X66040Y562610D03*
X66040Y537210D03*
X66040Y511810D03*
X66040Y486410D03*
X66040Y461010D03*
X66040Y435610D03*
X66040Y410210D03*
X66040Y384810D03*
X66040Y359410D03*
X66040Y334010D03*
X66040Y308610D03*
X66040Y283210D03*
X66040Y257810D03*
X66040Y232410D03*
X66040Y207010D03*
D17*
X66040Y734060D03*
X66040Y162560D03*
X828040Y734060D03*
X828040Y162560D03*
D10*
X929760Y448310D03*
X944760Y448310D03*
X929760Y494030D03*
X944760Y494030D03*
D18*
X969899Y558800D03*
X985901Y558800D03*
D13*
X228600Y41040D03*
X228600Y66040D03*
X228600Y91040D03*
D19*
X266700Y635000D03*
D20*
X291700Y635000D03*
X311700Y635000D03*
X336700Y635000D03*
D21*
X236000Y662100D03*
X367400Y662100D03*
D14*
X999760Y256140D03*
X999760Y206140D03*
X874760Y206140D03*
X874760Y256140D03*
D18*
X969899Y317500D03*
X985901Y317500D03*
X17399Y88900D03*
X33401Y88900D03*
D22*
X889000Y63500D03*
X25400Y63500D03*
X889000Y749300D03*
X406400Y-215900D03*
X406400Y-241300D03*
X406400Y-266700D03*
D23*
X63500Y50800D03*
X977900Y50800D03*
X977900Y457200D03*
X152400Y736600D03*
D24*
X44450Y88900D02*
X33401Y88900D01*
D25*
X946150Y403225D02*
X946150Y447675D01*
D24*
X76200Y88900D02*
X44450Y88900D01*
X942975Y38100D02*
X942975Y400050D01*
D26*
X44450Y88900D03*
D24*
X285750Y174625D02*
X415925Y304800D01*
X285750Y174625D02*
X285750Y171450D01*
X415925Y304800D02*
X415925Y461963D01*
X277813Y630238D02*
X277813Y639763D01*
X295275Y657225D01*
X339725Y657225D01*
X358775Y638175D01*
X735013Y638175D01*
X777081Y680244D01*
X946150Y588963D02*
X946150Y493713D01*
D25*
X949325Y493713D01*
D26*
X285750Y171450D03*
D24*
X777081Y680244D02*
X812079Y680244D01*
X845058Y677418D02*
X857695Y677418D01*
X946150Y588963D01*
X127000Y44450D02*
X88900Y82550D01*
D25*
X944760Y448310D02*
X945395Y447675D01*
X946150Y447675D01*
X945395Y403225D02*
X944760Y402590D01*
X945395Y403225D02*
X946150Y403225D01*
X944760Y402590D02*
X944760Y401835D01*
X942975Y400050D01*
D24*
X942975Y38100D02*
X911225Y6350D01*
X88900Y82550D02*
X82550Y82550D01*
X76200Y88900D01*
D25*
X944760Y494030D02*
X949008Y494030D01*
X949325Y493713D01*
D24*
X415925Y461963D02*
X396081Y481806D01*
X396081Y495300D01*
X280815Y610566D01*
X280815Y627235D02*
X277813Y630238D01*
X280815Y627235D02*
X280815Y610566D01*
X182630Y44450D02*
X127000Y44450D01*
X182630Y44450D02*
X196850Y30230D01*
X324086Y30230D02*
X329381Y35525D01*
X345330Y35525D01*
X374505Y6350D01*
X911225Y6350D01*
X324086Y30230D02*
X245110Y30230D01*
X843280Y675640D02*
X845058Y677418D01*
X843280Y675640D02*
X834750Y675640D01*
X815540Y676783D02*
X812079Y680244D01*
X815540Y676783D02*
X822473Y676783D01*
D25*
X833852Y675640D02*
X834750Y675640D01*
X832709Y676783D02*
X822473Y676783D01*
X832709Y676783D02*
X833852Y675640D01*
D24*
X222500Y30230D02*
X229870Y22860D01*
X237740Y22860D01*
X245110Y30230D01*
X222500Y30230D02*
X196850Y30230D01*
X996950Y327025D02*
X1006475Y336550D01*
X996950Y327025D02*
X987425Y317500D01*
X1006475Y336550D02*
X1006475Y539750D01*
X987425Y558800D01*
D25*
X987425Y317500D02*
X985901Y317500D01*
X985901Y558800D02*
X987425Y558800D01*
D26*
X996950Y327025D03*
D25*
X971550Y558800D02*
X974725Y561975D01*
X974725Y669925D01*
X996950Y692150D01*
X971550Y558800D02*
X969899Y558800D01*
X998890Y692150D02*
X999760Y693020D01*
X998890Y692150D02*
X996950Y692150D01*
X492125Y184150D02*
X482600Y174625D01*
X482600Y155575D01*
X476250Y149225D01*
X127000Y149225D01*
X98425Y177800D02*
X98425Y530225D01*
X66040Y562610D01*
X98425Y177800D02*
X127000Y149225D01*
X493090Y184150D02*
X495040Y186100D01*
X493090Y184150D02*
X492125Y184150D01*
X92075Y511175D02*
X66040Y537210D01*
X92075Y173791D02*
X126583Y139283D01*
X406400Y123825D02*
X479425Y123825D01*
X92075Y173791D02*
X92075Y511175D01*
X493350Y109900D02*
X495040Y109900D01*
X493350Y109900D02*
X479425Y123825D01*
X406400Y123825D02*
X390942Y139283D01*
X126583Y139283D01*
X441325Y301625D02*
X479425Y301625D01*
X441325Y301625D02*
X441325Y304800D01*
D26*
X441325Y304800D03*
D25*
X493350Y287700D02*
X495040Y287700D01*
X493350Y287700D02*
X479425Y301625D01*
D24*
X495300Y336550D02*
X596900Y336550D01*
X495300Y338240D02*
X495040Y338500D01*
D25*
X495300Y338240D02*
X495300Y336550D01*
X721950Y211500D02*
X723640Y211500D01*
D24*
X721950Y211500D02*
X596900Y336550D01*
X508000Y247650D02*
X495300Y260350D01*
X508000Y247650D02*
X508000Y53975D01*
X498475Y44450D01*
X406400Y44450D02*
X228600Y44450D01*
X406400Y44450D02*
X498475Y44450D01*
X495300Y262040D02*
X495040Y262300D01*
X495300Y262040D02*
X495300Y260350D01*
X228600Y44450D02*
X228600Y41040D01*
X406400Y41040D02*
X406400Y44450D01*
D25*
X441325Y234950D02*
X466725Y260350D01*
X441325Y234950D02*
X441325Y228600D01*
D26*
X441325Y228600D03*
D25*
X467690Y260350D02*
X469640Y262300D01*
X467690Y260350D02*
X466725Y260350D01*
X514350Y260350D02*
X514350Y25400D01*
X514350Y260350D02*
X498475Y276225D01*
X469900Y287440D02*
X469640Y287700D01*
X469900Y287440D02*
X469900Y279400D01*
X368300Y30163D02*
X368300Y20638D01*
X369888Y19050D01*
X508000Y19050D01*
D26*
X368300Y30163D03*
D25*
X508000Y19050D02*
X514350Y25400D01*
X473075Y276225D02*
X469900Y279400D01*
X473075Y276225D02*
X498475Y276225D01*
X847725Y320675D02*
X927100Y400050D01*
X847725Y320675D02*
X847725Y292100D01*
X927220Y400050D02*
X929760Y402590D01*
X927220Y400050D02*
X927100Y400050D01*
X749300Y287440D02*
X749040Y287700D01*
X822990Y295402D02*
X833090Y295402D01*
X815028Y287440D02*
X749300Y287440D01*
X815028Y287440D02*
X822990Y295402D01*
X836392Y292100D02*
X847725Y292100D01*
X836392Y292100D02*
X833090Y295402D01*
X841375Y361950D02*
X925513Y446088D01*
X841375Y361950D02*
X841375Y317500D01*
X749300Y312840D02*
X749040Y313100D01*
X749300Y312840D02*
X749300Y311150D01*
X822990Y320802D02*
X833090Y320802D01*
X836392Y317500D02*
X841375Y317500D01*
X836392Y317500D02*
X833090Y320802D01*
X813338Y311150D02*
X749300Y311150D01*
X813338Y311150D02*
X822990Y320802D01*
X927538Y446088D02*
X929760Y448310D01*
X927538Y446088D02*
X925513Y446088D01*
D24*
X787400Y482600D02*
X787400Y377825D01*
D25*
X749040Y339465D02*
X749040Y338500D01*
X749040Y339465D02*
X787400Y377825D01*
X837662Y494030D02*
X833090Y498602D01*
X837662Y494030D02*
X929760Y494030D01*
X803402Y498602D02*
X787400Y482600D01*
X803402Y498602D02*
X833090Y498602D01*
X425450Y457200D02*
X425450Y203200D01*
X292100Y635000D02*
X291700Y635000D01*
X467950Y160700D02*
X469640Y160700D01*
X467950Y160700D02*
X425450Y203200D01*
X425450Y457200D02*
X431800Y463550D01*
X431800Y495300D02*
X292100Y635000D01*
X431800Y495300D02*
X431800Y463550D01*
X385763Y563563D02*
X360363Y588963D01*
X334963Y614363D02*
X314325Y635000D01*
X431800Y431800D02*
X431800Y222250D01*
X314325Y635000D02*
X311700Y635000D01*
X467950Y186100D02*
X469640Y186100D01*
X467950Y186100D02*
X431800Y222250D01*
X350838Y614363D02*
X334963Y614363D01*
X360363Y604838D02*
X360363Y588963D01*
X360363Y604838D02*
X350838Y614363D01*
X385763Y563563D02*
X401638Y563563D01*
X411163Y554038D02*
X411163Y538163D01*
X411163Y554038D02*
X401638Y563563D01*
X411163Y538163D02*
X457200Y492125D01*
X457200Y457200D01*
X431800Y431800D01*
X971550Y317500D02*
X974725Y314325D01*
X974725Y279400D01*
X971550Y317500D02*
X969899Y317500D01*
X860425Y241300D02*
X860425Y127000D01*
X843325Y109900D02*
X749040Y109900D01*
X843325Y109900D02*
X860425Y127000D01*
X874760Y255635D02*
X874760Y256140D01*
X874760Y255635D02*
X860425Y241300D01*
X997985Y256140D02*
X999760Y256140D01*
X997985Y256140D02*
X974725Y279400D01*
D24*
X958850Y69850D02*
X977900Y50800D01*
X958850Y69850D02*
X958850Y438150D01*
X977900Y457200D01*
X22225Y85725D02*
X19050Y88900D01*
X22225Y85725D02*
X22225Y82550D01*
X53975Y50800D01*
X63500Y50800D01*
X22225Y92075D02*
X19050Y88900D01*
X22225Y92075D02*
X22225Y644525D01*
X95250Y682625D02*
X139700Y682625D01*
X152400Y695325D02*
X152400Y736600D01*
X152400Y695325D02*
X152400Y673100D01*
D25*
X19050Y88900D02*
X17399Y88900D01*
D24*
X955675Y479425D02*
X977900Y457200D01*
X955675Y479425D02*
X955675Y590550D01*
X368300Y663575D02*
X368300Y711200D01*
X237475Y663575D02*
X236000Y662100D01*
X237475Y663575D02*
X365125Y663575D01*
X236000Y662100D02*
X234950Y663150D01*
D25*
X234950Y663575D01*
X366600Y662100D02*
X367400Y662100D01*
D24*
X366600Y662100D02*
X365125Y663575D01*
X367400Y662675D02*
X367400Y662100D01*
X367400Y662675D02*
X368300Y663575D01*
X842963Y703263D02*
X955675Y590550D01*
X390525Y733425D02*
X368300Y711200D01*
X390525Y733425D02*
X768350Y733425D01*
X161925Y663575D02*
X152400Y673100D01*
X161925Y663575D02*
X234950Y663575D01*
X152400Y695325D02*
X139700Y682625D01*
X47625Y669925D02*
X22225Y644525D01*
X47625Y669925D02*
X47625Y695325D01*
X57150Y704850D01*
X78867Y699833D02*
X78867Y699008D01*
X95250Y682625D01*
X73850Y704850D02*
X57150Y704850D01*
X73850Y704850D02*
X78867Y699833D01*
X798513Y703263D02*
X842963Y703263D01*
X798513Y703263D02*
X768350Y733425D01*
D27*
X863600Y660400D03*
M02*
