G04 EAGLE Gerber RS-274X export*
G75*
%MOMM*%
%FSLAX34Y34*%
%LPD*%
%IN*%
%IPPOS*%
%AMOC8*
5,1,8,0,0,1.08239X$1,22.5*%
G01*
%ADD10C,0.254000*%


D10*
X0Y0D02*
X1016000Y0D01*
X1016000Y762000D01*
X0Y762000D01*
X0Y0D01*
X336891Y28540D02*
X337870Y28463D01*
X338841Y28309D01*
X339796Y28080D01*
X340730Y27776D01*
X341637Y27401D01*
X342512Y26955D01*
X343350Y26441D01*
X344145Y25864D01*
X344892Y25226D01*
X345586Y24532D01*
X346224Y23785D01*
X346801Y22990D01*
X347315Y22152D01*
X347761Y21277D01*
X348136Y20370D01*
X348440Y19436D01*
X348669Y18481D01*
X348823Y17510D01*
X348900Y16531D01*
X348900Y15549D01*
X348823Y14570D01*
X348669Y13600D01*
X348440Y12644D01*
X348136Y11710D01*
X347761Y10803D01*
X347315Y9928D01*
X346801Y9090D01*
X346224Y8295D01*
X345586Y7548D01*
X344892Y6854D01*
X344145Y6216D01*
X343350Y5639D01*
X342512Y5125D01*
X341637Y4679D01*
X340730Y4304D01*
X339796Y4000D01*
X338841Y3771D01*
X337870Y3617D01*
X336891Y3540D01*
X335909Y3540D01*
X334930Y3617D01*
X333960Y3771D01*
X333004Y4000D01*
X332070Y4304D01*
X331163Y4679D01*
X330288Y5125D01*
X329450Y5639D01*
X328655Y6216D01*
X327908Y6854D01*
X327214Y7548D01*
X326576Y8295D01*
X325999Y9090D01*
X325485Y9928D01*
X325039Y10803D01*
X324664Y11710D01*
X324360Y12644D01*
X324131Y13600D01*
X323977Y14570D01*
X323900Y15549D01*
X323900Y16531D01*
X323977Y17510D01*
X324131Y18481D01*
X324360Y19436D01*
X324664Y20370D01*
X325039Y21277D01*
X325485Y22152D01*
X325999Y22990D01*
X326576Y23785D01*
X327214Y24532D01*
X327908Y25226D01*
X328655Y25864D01*
X329450Y26441D01*
X330288Y26955D01*
X331163Y27401D01*
X332070Y27776D01*
X333004Y28080D01*
X333960Y28309D01*
X334930Y28463D01*
X335909Y28540D01*
X336891Y28540D01*
X336891Y128540D02*
X337870Y128463D01*
X338841Y128309D01*
X339796Y128080D01*
X340730Y127776D01*
X341637Y127401D01*
X342512Y126955D01*
X343350Y126441D01*
X344145Y125864D01*
X344892Y125226D01*
X345586Y124532D01*
X346224Y123785D01*
X346801Y122990D01*
X347315Y122152D01*
X347761Y121277D01*
X348136Y120370D01*
X348440Y119436D01*
X348669Y118481D01*
X348823Y117510D01*
X348900Y116531D01*
X348900Y115549D01*
X348823Y114570D01*
X348669Y113600D01*
X348440Y112644D01*
X348136Y111710D01*
X347761Y110803D01*
X347315Y109928D01*
X346801Y109090D01*
X346224Y108295D01*
X345586Y107548D01*
X344892Y106854D01*
X344145Y106216D01*
X343350Y105639D01*
X342512Y105125D01*
X341637Y104679D01*
X340730Y104304D01*
X339796Y104000D01*
X338841Y103771D01*
X337870Y103617D01*
X336891Y103540D01*
X335909Y103540D01*
X334930Y103617D01*
X333960Y103771D01*
X333004Y104000D01*
X332070Y104304D01*
X331163Y104679D01*
X330288Y105125D01*
X329450Y105639D01*
X328655Y106216D01*
X327908Y106854D01*
X327214Y107548D01*
X326576Y108295D01*
X325999Y109090D01*
X325485Y109928D01*
X325039Y110803D01*
X324664Y111710D01*
X324360Y112644D01*
X324131Y113600D01*
X323977Y114570D01*
X323900Y115549D01*
X323900Y116531D01*
X323977Y117510D01*
X324131Y118481D01*
X324360Y119436D01*
X324664Y120370D01*
X325039Y121277D01*
X325485Y122152D01*
X325999Y122990D01*
X326576Y123785D01*
X327214Y124532D01*
X327908Y125226D01*
X328655Y125864D01*
X329450Y126441D01*
X330288Y126955D01*
X331163Y127401D01*
X332070Y127776D01*
X333004Y128080D01*
X333960Y128309D01*
X334930Y128463D01*
X335909Y128540D01*
X336891Y128540D01*
X159091Y28540D02*
X160070Y28463D01*
X161041Y28309D01*
X161996Y28080D01*
X162930Y27776D01*
X163837Y27401D01*
X164712Y26955D01*
X165550Y26441D01*
X166345Y25864D01*
X167092Y25226D01*
X167786Y24532D01*
X168424Y23785D01*
X169001Y22990D01*
X169515Y22152D01*
X169961Y21277D01*
X170336Y20370D01*
X170640Y19436D01*
X170869Y18481D01*
X171023Y17510D01*
X171100Y16531D01*
X171100Y15549D01*
X171023Y14570D01*
X170869Y13600D01*
X170640Y12644D01*
X170336Y11710D01*
X169961Y10803D01*
X169515Y9928D01*
X169001Y9090D01*
X168424Y8295D01*
X167786Y7548D01*
X167092Y6854D01*
X166345Y6216D01*
X165550Y5639D01*
X164712Y5125D01*
X163837Y4679D01*
X162930Y4304D01*
X161996Y4000D01*
X161041Y3771D01*
X160070Y3617D01*
X159091Y3540D01*
X158109Y3540D01*
X157130Y3617D01*
X156160Y3771D01*
X155204Y4000D01*
X154270Y4304D01*
X153363Y4679D01*
X152488Y5125D01*
X151650Y5639D01*
X150855Y6216D01*
X150108Y6854D01*
X149414Y7548D01*
X148776Y8295D01*
X148199Y9090D01*
X147685Y9928D01*
X147239Y10803D01*
X146864Y11710D01*
X146560Y12644D01*
X146331Y13600D01*
X146177Y14570D01*
X146100Y15549D01*
X146100Y16531D01*
X146177Y17510D01*
X146331Y18481D01*
X146560Y19436D01*
X146864Y20370D01*
X147239Y21277D01*
X147685Y22152D01*
X148199Y22990D01*
X148776Y23785D01*
X149414Y24532D01*
X150108Y25226D01*
X150855Y25864D01*
X151650Y26441D01*
X152488Y26955D01*
X153363Y27401D01*
X154270Y27776D01*
X155204Y28080D01*
X156160Y28309D01*
X157130Y28463D01*
X158109Y28540D01*
X159091Y28540D01*
X159091Y128540D02*
X160070Y128463D01*
X161041Y128309D01*
X161996Y128080D01*
X162930Y127776D01*
X163837Y127401D01*
X164712Y126955D01*
X165550Y126441D01*
X166345Y125864D01*
X167092Y125226D01*
X167786Y124532D01*
X168424Y123785D01*
X169001Y122990D01*
X169515Y122152D01*
X169961Y121277D01*
X170336Y120370D01*
X170640Y119436D01*
X170869Y118481D01*
X171023Y117510D01*
X171100Y116531D01*
X171100Y115549D01*
X171023Y114570D01*
X170869Y113600D01*
X170640Y112644D01*
X170336Y111710D01*
X169961Y110803D01*
X169515Y109928D01*
X169001Y109090D01*
X168424Y108295D01*
X167786Y107548D01*
X167092Y106854D01*
X166345Y106216D01*
X165550Y105639D01*
X164712Y105125D01*
X163837Y104679D01*
X162930Y104304D01*
X161996Y104000D01*
X161041Y103771D01*
X160070Y103617D01*
X159091Y103540D01*
X158109Y103540D01*
X157130Y103617D01*
X156160Y103771D01*
X155204Y104000D01*
X154270Y104304D01*
X153363Y104679D01*
X152488Y105125D01*
X151650Y105639D01*
X150855Y106216D01*
X150108Y106854D01*
X149414Y107548D01*
X148776Y108295D01*
X148199Y109090D01*
X147685Y109928D01*
X147239Y110803D01*
X146864Y111710D01*
X146560Y112644D01*
X146331Y113600D01*
X146177Y114570D01*
X146100Y115549D01*
X146100Y116531D01*
X146177Y117510D01*
X146331Y118481D01*
X146560Y119436D01*
X146864Y120370D01*
X147239Y121277D01*
X147685Y122152D01*
X148199Y122990D01*
X148776Y123785D01*
X149414Y124532D01*
X150108Y125226D01*
X150855Y125864D01*
X151650Y126441D01*
X152488Y126955D01*
X153363Y127401D01*
X154270Y127776D01*
X155204Y128080D01*
X156160Y128309D01*
X157130Y128463D01*
X158109Y128540D01*
X159091Y128540D01*
M02*
