G04 EAGLE Gerber RS-274X export*
G75*
%MOMM*%
%FSLAX34Y34*%
%LPD*%
%INSoldermask Top*%
%IPPOS*%
%AMOC8*
5,1,8,0,0,1.08239X$1,22.5*%
G01*
%ADD10R,0.952400X0.952400*%
%ADD11R,1.676400X1.676400*%
%ADD12P,1.814519X8X112.500000*%
%ADD13C,1.552400*%
%ADD14C,2.652400*%
%ADD15C,2.112400*%
%ADD16R,1.828800X1.828800*%
%ADD17C,1.828800*%
%ADD18C,4.168400*%
%ADD19R,1.102359X1.183641*%
%ADD20R,1.440400X1.440400*%
%ADD21C,1.440400*%
%ADD22C,3.372400*%
%ADD23C,0.609600*%
%ADD24C,1.168400*%
%ADD25C,4.597400*%


D10*
X929760Y402590D03*
X944760Y402590D03*
D11*
X469640Y59100D03*
D12*
X495040Y59100D03*
X469640Y84500D03*
X495040Y84500D03*
X469640Y109900D03*
X495040Y109900D03*
X469640Y135300D03*
X495040Y135300D03*
X469640Y160700D03*
X495040Y160700D03*
X469640Y186100D03*
X495040Y186100D03*
X469640Y211500D03*
X495040Y211500D03*
X469640Y236900D03*
X495040Y236900D03*
X469640Y262300D03*
X495040Y262300D03*
X469640Y287700D03*
X495040Y287700D03*
X469640Y313100D03*
X495040Y313100D03*
X469640Y338500D03*
X495040Y338500D03*
X469640Y363900D03*
X495040Y363900D03*
X469640Y389300D03*
X495040Y389300D03*
X469640Y414700D03*
X495040Y414700D03*
X469640Y440100D03*
X495040Y440100D03*
X469640Y465500D03*
X495040Y465500D03*
X469640Y490900D03*
X495040Y490900D03*
D11*
X723640Y59100D03*
D12*
X749040Y59100D03*
X723640Y84500D03*
X749040Y84500D03*
X723640Y109900D03*
X749040Y109900D03*
X723640Y135300D03*
X749040Y135300D03*
X723640Y160700D03*
X749040Y160700D03*
X723640Y186100D03*
X749040Y186100D03*
X723640Y211500D03*
X749040Y211500D03*
X723640Y236900D03*
X749040Y236900D03*
X723640Y262300D03*
X749040Y262300D03*
X723640Y287700D03*
X749040Y287700D03*
X723640Y313100D03*
X749040Y313100D03*
X723640Y338500D03*
X749040Y338500D03*
X723640Y363900D03*
X749040Y363900D03*
X723640Y389300D03*
X749040Y389300D03*
X723640Y414700D03*
X749040Y414700D03*
X723640Y440100D03*
X749040Y440100D03*
X723640Y465500D03*
X749040Y465500D03*
X723640Y490900D03*
X749040Y490900D03*
D13*
X406400Y43580D03*
X406400Y68580D03*
X406400Y93580D03*
D14*
X336400Y18580D03*
X336400Y118580D03*
D15*
X999760Y693020D03*
X999760Y643020D03*
X874760Y643020D03*
X874760Y693020D03*
D16*
X828040Y689610D03*
D17*
X828040Y664210D03*
X828040Y638810D03*
X828040Y613410D03*
X828040Y588010D03*
X828040Y562610D03*
X828040Y537210D03*
X828040Y511810D03*
X828040Y486410D03*
X828040Y461010D03*
X828040Y435610D03*
X828040Y410210D03*
X828040Y384810D03*
X828040Y359410D03*
X828040Y334010D03*
X828040Y308610D03*
X828040Y283210D03*
X828040Y257810D03*
X828040Y232410D03*
X828040Y207010D03*
D16*
X66040Y689610D03*
D17*
X66040Y664210D03*
X66040Y638810D03*
X66040Y613410D03*
X66040Y588010D03*
X66040Y562610D03*
X66040Y537210D03*
X66040Y511810D03*
X66040Y486410D03*
X66040Y461010D03*
X66040Y435610D03*
X66040Y410210D03*
X66040Y384810D03*
X66040Y359410D03*
X66040Y334010D03*
X66040Y308610D03*
X66040Y283210D03*
X66040Y257810D03*
X66040Y232410D03*
X66040Y207010D03*
D18*
X66040Y734060D03*
X66040Y162560D03*
X828040Y734060D03*
X828040Y162560D03*
D10*
X929760Y448310D03*
X944760Y448310D03*
X929760Y494030D03*
X944760Y494030D03*
D19*
X969899Y558800D03*
X985901Y558800D03*
D13*
X228600Y41040D03*
X228600Y66040D03*
X228600Y91040D03*
D14*
X158600Y16040D03*
X158600Y116040D03*
D20*
X266700Y635000D03*
D21*
X291700Y635000D03*
X311700Y635000D03*
X336700Y635000D03*
D22*
X236000Y662100D03*
X367400Y662100D03*
D15*
X999760Y256140D03*
X999760Y206140D03*
X874760Y206140D03*
X874760Y256140D03*
D19*
X969899Y317500D03*
X985901Y317500D03*
X17399Y88900D03*
X33401Y88900D03*
D23*
X881380Y63500D02*
X881382Y63687D01*
X881389Y63874D01*
X881401Y64061D01*
X881417Y64247D01*
X881437Y64433D01*
X881462Y64618D01*
X881492Y64803D01*
X881526Y64987D01*
X881565Y65170D01*
X881608Y65352D01*
X881656Y65532D01*
X881708Y65712D01*
X881765Y65890D01*
X881825Y66067D01*
X881891Y66242D01*
X881960Y66416D01*
X882034Y66588D01*
X882112Y66758D01*
X882194Y66926D01*
X882280Y67092D01*
X882370Y67256D01*
X882464Y67417D01*
X882562Y67577D01*
X882664Y67733D01*
X882770Y67888D01*
X882880Y68039D01*
X882993Y68188D01*
X883110Y68334D01*
X883230Y68477D01*
X883354Y68617D01*
X883481Y68754D01*
X883612Y68888D01*
X883746Y69019D01*
X883883Y69146D01*
X884023Y69270D01*
X884166Y69390D01*
X884312Y69507D01*
X884461Y69620D01*
X884612Y69730D01*
X884767Y69836D01*
X884923Y69938D01*
X885083Y70036D01*
X885244Y70130D01*
X885408Y70220D01*
X885574Y70306D01*
X885742Y70388D01*
X885912Y70466D01*
X886084Y70540D01*
X886258Y70609D01*
X886433Y70675D01*
X886610Y70735D01*
X886788Y70792D01*
X886968Y70844D01*
X887148Y70892D01*
X887330Y70935D01*
X887513Y70974D01*
X887697Y71008D01*
X887882Y71038D01*
X888067Y71063D01*
X888253Y71083D01*
X888439Y71099D01*
X888626Y71111D01*
X888813Y71118D01*
X889000Y71120D01*
X889187Y71118D01*
X889374Y71111D01*
X889561Y71099D01*
X889747Y71083D01*
X889933Y71063D01*
X890118Y71038D01*
X890303Y71008D01*
X890487Y70974D01*
X890670Y70935D01*
X890852Y70892D01*
X891032Y70844D01*
X891212Y70792D01*
X891390Y70735D01*
X891567Y70675D01*
X891742Y70609D01*
X891916Y70540D01*
X892088Y70466D01*
X892258Y70388D01*
X892426Y70306D01*
X892592Y70220D01*
X892756Y70130D01*
X892917Y70036D01*
X893077Y69938D01*
X893233Y69836D01*
X893388Y69730D01*
X893539Y69620D01*
X893688Y69507D01*
X893834Y69390D01*
X893977Y69270D01*
X894117Y69146D01*
X894254Y69019D01*
X894388Y68888D01*
X894519Y68754D01*
X894646Y68617D01*
X894770Y68477D01*
X894890Y68334D01*
X895007Y68188D01*
X895120Y68039D01*
X895230Y67888D01*
X895336Y67733D01*
X895438Y67577D01*
X895536Y67417D01*
X895630Y67256D01*
X895720Y67092D01*
X895806Y66926D01*
X895888Y66758D01*
X895966Y66588D01*
X896040Y66416D01*
X896109Y66242D01*
X896175Y66067D01*
X896235Y65890D01*
X896292Y65712D01*
X896344Y65532D01*
X896392Y65352D01*
X896435Y65170D01*
X896474Y64987D01*
X896508Y64803D01*
X896538Y64618D01*
X896563Y64433D01*
X896583Y64247D01*
X896599Y64061D01*
X896611Y63874D01*
X896618Y63687D01*
X896620Y63500D01*
X896618Y63313D01*
X896611Y63126D01*
X896599Y62939D01*
X896583Y62753D01*
X896563Y62567D01*
X896538Y62382D01*
X896508Y62197D01*
X896474Y62013D01*
X896435Y61830D01*
X896392Y61648D01*
X896344Y61468D01*
X896292Y61288D01*
X896235Y61110D01*
X896175Y60933D01*
X896109Y60758D01*
X896040Y60584D01*
X895966Y60412D01*
X895888Y60242D01*
X895806Y60074D01*
X895720Y59908D01*
X895630Y59744D01*
X895536Y59583D01*
X895438Y59423D01*
X895336Y59267D01*
X895230Y59112D01*
X895120Y58961D01*
X895007Y58812D01*
X894890Y58666D01*
X894770Y58523D01*
X894646Y58383D01*
X894519Y58246D01*
X894388Y58112D01*
X894254Y57981D01*
X894117Y57854D01*
X893977Y57730D01*
X893834Y57610D01*
X893688Y57493D01*
X893539Y57380D01*
X893388Y57270D01*
X893233Y57164D01*
X893077Y57062D01*
X892917Y56964D01*
X892756Y56870D01*
X892592Y56780D01*
X892426Y56694D01*
X892258Y56612D01*
X892088Y56534D01*
X891916Y56460D01*
X891742Y56391D01*
X891567Y56325D01*
X891390Y56265D01*
X891212Y56208D01*
X891032Y56156D01*
X890852Y56108D01*
X890670Y56065D01*
X890487Y56026D01*
X890303Y55992D01*
X890118Y55962D01*
X889933Y55937D01*
X889747Y55917D01*
X889561Y55901D01*
X889374Y55889D01*
X889187Y55882D01*
X889000Y55880D01*
X888813Y55882D01*
X888626Y55889D01*
X888439Y55901D01*
X888253Y55917D01*
X888067Y55937D01*
X887882Y55962D01*
X887697Y55992D01*
X887513Y56026D01*
X887330Y56065D01*
X887148Y56108D01*
X886968Y56156D01*
X886788Y56208D01*
X886610Y56265D01*
X886433Y56325D01*
X886258Y56391D01*
X886084Y56460D01*
X885912Y56534D01*
X885742Y56612D01*
X885574Y56694D01*
X885408Y56780D01*
X885244Y56870D01*
X885083Y56964D01*
X884923Y57062D01*
X884767Y57164D01*
X884612Y57270D01*
X884461Y57380D01*
X884312Y57493D01*
X884166Y57610D01*
X884023Y57730D01*
X883883Y57854D01*
X883746Y57981D01*
X883612Y58112D01*
X883481Y58246D01*
X883354Y58383D01*
X883230Y58523D01*
X883110Y58666D01*
X882993Y58812D01*
X882880Y58961D01*
X882770Y59112D01*
X882664Y59267D01*
X882562Y59423D01*
X882464Y59583D01*
X882370Y59744D01*
X882280Y59908D01*
X882194Y60074D01*
X882112Y60242D01*
X882034Y60412D01*
X881960Y60584D01*
X881891Y60758D01*
X881825Y60933D01*
X881765Y61110D01*
X881708Y61288D01*
X881656Y61468D01*
X881608Y61648D01*
X881565Y61830D01*
X881526Y62013D01*
X881492Y62197D01*
X881462Y62382D01*
X881437Y62567D01*
X881417Y62753D01*
X881401Y62939D01*
X881389Y63126D01*
X881382Y63313D01*
X881380Y63500D01*
D24*
X889000Y63500D03*
D23*
X17780Y63500D02*
X17782Y63687D01*
X17789Y63874D01*
X17801Y64061D01*
X17817Y64247D01*
X17837Y64433D01*
X17862Y64618D01*
X17892Y64803D01*
X17926Y64987D01*
X17965Y65170D01*
X18008Y65352D01*
X18056Y65532D01*
X18108Y65712D01*
X18165Y65890D01*
X18225Y66067D01*
X18291Y66242D01*
X18360Y66416D01*
X18434Y66588D01*
X18512Y66758D01*
X18594Y66926D01*
X18680Y67092D01*
X18770Y67256D01*
X18864Y67417D01*
X18962Y67577D01*
X19064Y67733D01*
X19170Y67888D01*
X19280Y68039D01*
X19393Y68188D01*
X19510Y68334D01*
X19630Y68477D01*
X19754Y68617D01*
X19881Y68754D01*
X20012Y68888D01*
X20146Y69019D01*
X20283Y69146D01*
X20423Y69270D01*
X20566Y69390D01*
X20712Y69507D01*
X20861Y69620D01*
X21012Y69730D01*
X21167Y69836D01*
X21323Y69938D01*
X21483Y70036D01*
X21644Y70130D01*
X21808Y70220D01*
X21974Y70306D01*
X22142Y70388D01*
X22312Y70466D01*
X22484Y70540D01*
X22658Y70609D01*
X22833Y70675D01*
X23010Y70735D01*
X23188Y70792D01*
X23368Y70844D01*
X23548Y70892D01*
X23730Y70935D01*
X23913Y70974D01*
X24097Y71008D01*
X24282Y71038D01*
X24467Y71063D01*
X24653Y71083D01*
X24839Y71099D01*
X25026Y71111D01*
X25213Y71118D01*
X25400Y71120D01*
X25587Y71118D01*
X25774Y71111D01*
X25961Y71099D01*
X26147Y71083D01*
X26333Y71063D01*
X26518Y71038D01*
X26703Y71008D01*
X26887Y70974D01*
X27070Y70935D01*
X27252Y70892D01*
X27432Y70844D01*
X27612Y70792D01*
X27790Y70735D01*
X27967Y70675D01*
X28142Y70609D01*
X28316Y70540D01*
X28488Y70466D01*
X28658Y70388D01*
X28826Y70306D01*
X28992Y70220D01*
X29156Y70130D01*
X29317Y70036D01*
X29477Y69938D01*
X29633Y69836D01*
X29788Y69730D01*
X29939Y69620D01*
X30088Y69507D01*
X30234Y69390D01*
X30377Y69270D01*
X30517Y69146D01*
X30654Y69019D01*
X30788Y68888D01*
X30919Y68754D01*
X31046Y68617D01*
X31170Y68477D01*
X31290Y68334D01*
X31407Y68188D01*
X31520Y68039D01*
X31630Y67888D01*
X31736Y67733D01*
X31838Y67577D01*
X31936Y67417D01*
X32030Y67256D01*
X32120Y67092D01*
X32206Y66926D01*
X32288Y66758D01*
X32366Y66588D01*
X32440Y66416D01*
X32509Y66242D01*
X32575Y66067D01*
X32635Y65890D01*
X32692Y65712D01*
X32744Y65532D01*
X32792Y65352D01*
X32835Y65170D01*
X32874Y64987D01*
X32908Y64803D01*
X32938Y64618D01*
X32963Y64433D01*
X32983Y64247D01*
X32999Y64061D01*
X33011Y63874D01*
X33018Y63687D01*
X33020Y63500D01*
X33018Y63313D01*
X33011Y63126D01*
X32999Y62939D01*
X32983Y62753D01*
X32963Y62567D01*
X32938Y62382D01*
X32908Y62197D01*
X32874Y62013D01*
X32835Y61830D01*
X32792Y61648D01*
X32744Y61468D01*
X32692Y61288D01*
X32635Y61110D01*
X32575Y60933D01*
X32509Y60758D01*
X32440Y60584D01*
X32366Y60412D01*
X32288Y60242D01*
X32206Y60074D01*
X32120Y59908D01*
X32030Y59744D01*
X31936Y59583D01*
X31838Y59423D01*
X31736Y59267D01*
X31630Y59112D01*
X31520Y58961D01*
X31407Y58812D01*
X31290Y58666D01*
X31170Y58523D01*
X31046Y58383D01*
X30919Y58246D01*
X30788Y58112D01*
X30654Y57981D01*
X30517Y57854D01*
X30377Y57730D01*
X30234Y57610D01*
X30088Y57493D01*
X29939Y57380D01*
X29788Y57270D01*
X29633Y57164D01*
X29477Y57062D01*
X29317Y56964D01*
X29156Y56870D01*
X28992Y56780D01*
X28826Y56694D01*
X28658Y56612D01*
X28488Y56534D01*
X28316Y56460D01*
X28142Y56391D01*
X27967Y56325D01*
X27790Y56265D01*
X27612Y56208D01*
X27432Y56156D01*
X27252Y56108D01*
X27070Y56065D01*
X26887Y56026D01*
X26703Y55992D01*
X26518Y55962D01*
X26333Y55937D01*
X26147Y55917D01*
X25961Y55901D01*
X25774Y55889D01*
X25587Y55882D01*
X25400Y55880D01*
X25213Y55882D01*
X25026Y55889D01*
X24839Y55901D01*
X24653Y55917D01*
X24467Y55937D01*
X24282Y55962D01*
X24097Y55992D01*
X23913Y56026D01*
X23730Y56065D01*
X23548Y56108D01*
X23368Y56156D01*
X23188Y56208D01*
X23010Y56265D01*
X22833Y56325D01*
X22658Y56391D01*
X22484Y56460D01*
X22312Y56534D01*
X22142Y56612D01*
X21974Y56694D01*
X21808Y56780D01*
X21644Y56870D01*
X21483Y56964D01*
X21323Y57062D01*
X21167Y57164D01*
X21012Y57270D01*
X20861Y57380D01*
X20712Y57493D01*
X20566Y57610D01*
X20423Y57730D01*
X20283Y57854D01*
X20146Y57981D01*
X20012Y58112D01*
X19881Y58246D01*
X19754Y58383D01*
X19630Y58523D01*
X19510Y58666D01*
X19393Y58812D01*
X19280Y58961D01*
X19170Y59112D01*
X19064Y59267D01*
X18962Y59423D01*
X18864Y59583D01*
X18770Y59744D01*
X18680Y59908D01*
X18594Y60074D01*
X18512Y60242D01*
X18434Y60412D01*
X18360Y60584D01*
X18291Y60758D01*
X18225Y60933D01*
X18165Y61110D01*
X18108Y61288D01*
X18056Y61468D01*
X18008Y61648D01*
X17965Y61830D01*
X17926Y62013D01*
X17892Y62197D01*
X17862Y62382D01*
X17837Y62567D01*
X17817Y62753D01*
X17801Y62939D01*
X17789Y63126D01*
X17782Y63313D01*
X17780Y63500D01*
D24*
X25400Y63500D03*
D23*
X881380Y749300D02*
X881382Y749487D01*
X881389Y749674D01*
X881401Y749861D01*
X881417Y750047D01*
X881437Y750233D01*
X881462Y750418D01*
X881492Y750603D01*
X881526Y750787D01*
X881565Y750970D01*
X881608Y751152D01*
X881656Y751332D01*
X881708Y751512D01*
X881765Y751690D01*
X881825Y751867D01*
X881891Y752042D01*
X881960Y752216D01*
X882034Y752388D01*
X882112Y752558D01*
X882194Y752726D01*
X882280Y752892D01*
X882370Y753056D01*
X882464Y753217D01*
X882562Y753377D01*
X882664Y753533D01*
X882770Y753688D01*
X882880Y753839D01*
X882993Y753988D01*
X883110Y754134D01*
X883230Y754277D01*
X883354Y754417D01*
X883481Y754554D01*
X883612Y754688D01*
X883746Y754819D01*
X883883Y754946D01*
X884023Y755070D01*
X884166Y755190D01*
X884312Y755307D01*
X884461Y755420D01*
X884612Y755530D01*
X884767Y755636D01*
X884923Y755738D01*
X885083Y755836D01*
X885244Y755930D01*
X885408Y756020D01*
X885574Y756106D01*
X885742Y756188D01*
X885912Y756266D01*
X886084Y756340D01*
X886258Y756409D01*
X886433Y756475D01*
X886610Y756535D01*
X886788Y756592D01*
X886968Y756644D01*
X887148Y756692D01*
X887330Y756735D01*
X887513Y756774D01*
X887697Y756808D01*
X887882Y756838D01*
X888067Y756863D01*
X888253Y756883D01*
X888439Y756899D01*
X888626Y756911D01*
X888813Y756918D01*
X889000Y756920D01*
X889187Y756918D01*
X889374Y756911D01*
X889561Y756899D01*
X889747Y756883D01*
X889933Y756863D01*
X890118Y756838D01*
X890303Y756808D01*
X890487Y756774D01*
X890670Y756735D01*
X890852Y756692D01*
X891032Y756644D01*
X891212Y756592D01*
X891390Y756535D01*
X891567Y756475D01*
X891742Y756409D01*
X891916Y756340D01*
X892088Y756266D01*
X892258Y756188D01*
X892426Y756106D01*
X892592Y756020D01*
X892756Y755930D01*
X892917Y755836D01*
X893077Y755738D01*
X893233Y755636D01*
X893388Y755530D01*
X893539Y755420D01*
X893688Y755307D01*
X893834Y755190D01*
X893977Y755070D01*
X894117Y754946D01*
X894254Y754819D01*
X894388Y754688D01*
X894519Y754554D01*
X894646Y754417D01*
X894770Y754277D01*
X894890Y754134D01*
X895007Y753988D01*
X895120Y753839D01*
X895230Y753688D01*
X895336Y753533D01*
X895438Y753377D01*
X895536Y753217D01*
X895630Y753056D01*
X895720Y752892D01*
X895806Y752726D01*
X895888Y752558D01*
X895966Y752388D01*
X896040Y752216D01*
X896109Y752042D01*
X896175Y751867D01*
X896235Y751690D01*
X896292Y751512D01*
X896344Y751332D01*
X896392Y751152D01*
X896435Y750970D01*
X896474Y750787D01*
X896508Y750603D01*
X896538Y750418D01*
X896563Y750233D01*
X896583Y750047D01*
X896599Y749861D01*
X896611Y749674D01*
X896618Y749487D01*
X896620Y749300D01*
X896618Y749113D01*
X896611Y748926D01*
X896599Y748739D01*
X896583Y748553D01*
X896563Y748367D01*
X896538Y748182D01*
X896508Y747997D01*
X896474Y747813D01*
X896435Y747630D01*
X896392Y747448D01*
X896344Y747268D01*
X896292Y747088D01*
X896235Y746910D01*
X896175Y746733D01*
X896109Y746558D01*
X896040Y746384D01*
X895966Y746212D01*
X895888Y746042D01*
X895806Y745874D01*
X895720Y745708D01*
X895630Y745544D01*
X895536Y745383D01*
X895438Y745223D01*
X895336Y745067D01*
X895230Y744912D01*
X895120Y744761D01*
X895007Y744612D01*
X894890Y744466D01*
X894770Y744323D01*
X894646Y744183D01*
X894519Y744046D01*
X894388Y743912D01*
X894254Y743781D01*
X894117Y743654D01*
X893977Y743530D01*
X893834Y743410D01*
X893688Y743293D01*
X893539Y743180D01*
X893388Y743070D01*
X893233Y742964D01*
X893077Y742862D01*
X892917Y742764D01*
X892756Y742670D01*
X892592Y742580D01*
X892426Y742494D01*
X892258Y742412D01*
X892088Y742334D01*
X891916Y742260D01*
X891742Y742191D01*
X891567Y742125D01*
X891390Y742065D01*
X891212Y742008D01*
X891032Y741956D01*
X890852Y741908D01*
X890670Y741865D01*
X890487Y741826D01*
X890303Y741792D01*
X890118Y741762D01*
X889933Y741737D01*
X889747Y741717D01*
X889561Y741701D01*
X889374Y741689D01*
X889187Y741682D01*
X889000Y741680D01*
X888813Y741682D01*
X888626Y741689D01*
X888439Y741701D01*
X888253Y741717D01*
X888067Y741737D01*
X887882Y741762D01*
X887697Y741792D01*
X887513Y741826D01*
X887330Y741865D01*
X887148Y741908D01*
X886968Y741956D01*
X886788Y742008D01*
X886610Y742065D01*
X886433Y742125D01*
X886258Y742191D01*
X886084Y742260D01*
X885912Y742334D01*
X885742Y742412D01*
X885574Y742494D01*
X885408Y742580D01*
X885244Y742670D01*
X885083Y742764D01*
X884923Y742862D01*
X884767Y742964D01*
X884612Y743070D01*
X884461Y743180D01*
X884312Y743293D01*
X884166Y743410D01*
X884023Y743530D01*
X883883Y743654D01*
X883746Y743781D01*
X883612Y743912D01*
X883481Y744046D01*
X883354Y744183D01*
X883230Y744323D01*
X883110Y744466D01*
X882993Y744612D01*
X882880Y744761D01*
X882770Y744912D01*
X882664Y745067D01*
X882562Y745223D01*
X882464Y745383D01*
X882370Y745544D01*
X882280Y745708D01*
X882194Y745874D01*
X882112Y746042D01*
X882034Y746212D01*
X881960Y746384D01*
X881891Y746558D01*
X881825Y746733D01*
X881765Y746910D01*
X881708Y747088D01*
X881656Y747268D01*
X881608Y747448D01*
X881565Y747630D01*
X881526Y747813D01*
X881492Y747997D01*
X881462Y748182D01*
X881437Y748367D01*
X881417Y748553D01*
X881401Y748739D01*
X881389Y748926D01*
X881382Y749113D01*
X881380Y749300D01*
D24*
X889000Y749300D03*
D23*
X398780Y-215900D02*
X398782Y-215713D01*
X398789Y-215526D01*
X398801Y-215339D01*
X398817Y-215153D01*
X398837Y-214967D01*
X398862Y-214782D01*
X398892Y-214597D01*
X398926Y-214413D01*
X398965Y-214230D01*
X399008Y-214048D01*
X399056Y-213868D01*
X399108Y-213688D01*
X399165Y-213510D01*
X399225Y-213333D01*
X399291Y-213158D01*
X399360Y-212984D01*
X399434Y-212812D01*
X399512Y-212642D01*
X399594Y-212474D01*
X399680Y-212308D01*
X399770Y-212144D01*
X399864Y-211983D01*
X399962Y-211823D01*
X400064Y-211667D01*
X400170Y-211512D01*
X400280Y-211361D01*
X400393Y-211212D01*
X400510Y-211066D01*
X400630Y-210923D01*
X400754Y-210783D01*
X400881Y-210646D01*
X401012Y-210512D01*
X401146Y-210381D01*
X401283Y-210254D01*
X401423Y-210130D01*
X401566Y-210010D01*
X401712Y-209893D01*
X401861Y-209780D01*
X402012Y-209670D01*
X402167Y-209564D01*
X402323Y-209462D01*
X402483Y-209364D01*
X402644Y-209270D01*
X402808Y-209180D01*
X402974Y-209094D01*
X403142Y-209012D01*
X403312Y-208934D01*
X403484Y-208860D01*
X403658Y-208791D01*
X403833Y-208725D01*
X404010Y-208665D01*
X404188Y-208608D01*
X404368Y-208556D01*
X404548Y-208508D01*
X404730Y-208465D01*
X404913Y-208426D01*
X405097Y-208392D01*
X405282Y-208362D01*
X405467Y-208337D01*
X405653Y-208317D01*
X405839Y-208301D01*
X406026Y-208289D01*
X406213Y-208282D01*
X406400Y-208280D01*
X406587Y-208282D01*
X406774Y-208289D01*
X406961Y-208301D01*
X407147Y-208317D01*
X407333Y-208337D01*
X407518Y-208362D01*
X407703Y-208392D01*
X407887Y-208426D01*
X408070Y-208465D01*
X408252Y-208508D01*
X408432Y-208556D01*
X408612Y-208608D01*
X408790Y-208665D01*
X408967Y-208725D01*
X409142Y-208791D01*
X409316Y-208860D01*
X409488Y-208934D01*
X409658Y-209012D01*
X409826Y-209094D01*
X409992Y-209180D01*
X410156Y-209270D01*
X410317Y-209364D01*
X410477Y-209462D01*
X410633Y-209564D01*
X410788Y-209670D01*
X410939Y-209780D01*
X411088Y-209893D01*
X411234Y-210010D01*
X411377Y-210130D01*
X411517Y-210254D01*
X411654Y-210381D01*
X411788Y-210512D01*
X411919Y-210646D01*
X412046Y-210783D01*
X412170Y-210923D01*
X412290Y-211066D01*
X412407Y-211212D01*
X412520Y-211361D01*
X412630Y-211512D01*
X412736Y-211667D01*
X412838Y-211823D01*
X412936Y-211983D01*
X413030Y-212144D01*
X413120Y-212308D01*
X413206Y-212474D01*
X413288Y-212642D01*
X413366Y-212812D01*
X413440Y-212984D01*
X413509Y-213158D01*
X413575Y-213333D01*
X413635Y-213510D01*
X413692Y-213688D01*
X413744Y-213868D01*
X413792Y-214048D01*
X413835Y-214230D01*
X413874Y-214413D01*
X413908Y-214597D01*
X413938Y-214782D01*
X413963Y-214967D01*
X413983Y-215153D01*
X413999Y-215339D01*
X414011Y-215526D01*
X414018Y-215713D01*
X414020Y-215900D01*
X414018Y-216087D01*
X414011Y-216274D01*
X413999Y-216461D01*
X413983Y-216647D01*
X413963Y-216833D01*
X413938Y-217018D01*
X413908Y-217203D01*
X413874Y-217387D01*
X413835Y-217570D01*
X413792Y-217752D01*
X413744Y-217932D01*
X413692Y-218112D01*
X413635Y-218290D01*
X413575Y-218467D01*
X413509Y-218642D01*
X413440Y-218816D01*
X413366Y-218988D01*
X413288Y-219158D01*
X413206Y-219326D01*
X413120Y-219492D01*
X413030Y-219656D01*
X412936Y-219817D01*
X412838Y-219977D01*
X412736Y-220133D01*
X412630Y-220288D01*
X412520Y-220439D01*
X412407Y-220588D01*
X412290Y-220734D01*
X412170Y-220877D01*
X412046Y-221017D01*
X411919Y-221154D01*
X411788Y-221288D01*
X411654Y-221419D01*
X411517Y-221546D01*
X411377Y-221670D01*
X411234Y-221790D01*
X411088Y-221907D01*
X410939Y-222020D01*
X410788Y-222130D01*
X410633Y-222236D01*
X410477Y-222338D01*
X410317Y-222436D01*
X410156Y-222530D01*
X409992Y-222620D01*
X409826Y-222706D01*
X409658Y-222788D01*
X409488Y-222866D01*
X409316Y-222940D01*
X409142Y-223009D01*
X408967Y-223075D01*
X408790Y-223135D01*
X408612Y-223192D01*
X408432Y-223244D01*
X408252Y-223292D01*
X408070Y-223335D01*
X407887Y-223374D01*
X407703Y-223408D01*
X407518Y-223438D01*
X407333Y-223463D01*
X407147Y-223483D01*
X406961Y-223499D01*
X406774Y-223511D01*
X406587Y-223518D01*
X406400Y-223520D01*
X406213Y-223518D01*
X406026Y-223511D01*
X405839Y-223499D01*
X405653Y-223483D01*
X405467Y-223463D01*
X405282Y-223438D01*
X405097Y-223408D01*
X404913Y-223374D01*
X404730Y-223335D01*
X404548Y-223292D01*
X404368Y-223244D01*
X404188Y-223192D01*
X404010Y-223135D01*
X403833Y-223075D01*
X403658Y-223009D01*
X403484Y-222940D01*
X403312Y-222866D01*
X403142Y-222788D01*
X402974Y-222706D01*
X402808Y-222620D01*
X402644Y-222530D01*
X402483Y-222436D01*
X402323Y-222338D01*
X402167Y-222236D01*
X402012Y-222130D01*
X401861Y-222020D01*
X401712Y-221907D01*
X401566Y-221790D01*
X401423Y-221670D01*
X401283Y-221546D01*
X401146Y-221419D01*
X401012Y-221288D01*
X400881Y-221154D01*
X400754Y-221017D01*
X400630Y-220877D01*
X400510Y-220734D01*
X400393Y-220588D01*
X400280Y-220439D01*
X400170Y-220288D01*
X400064Y-220133D01*
X399962Y-219977D01*
X399864Y-219817D01*
X399770Y-219656D01*
X399680Y-219492D01*
X399594Y-219326D01*
X399512Y-219158D01*
X399434Y-218988D01*
X399360Y-218816D01*
X399291Y-218642D01*
X399225Y-218467D01*
X399165Y-218290D01*
X399108Y-218112D01*
X399056Y-217932D01*
X399008Y-217752D01*
X398965Y-217570D01*
X398926Y-217387D01*
X398892Y-217203D01*
X398862Y-217018D01*
X398837Y-216833D01*
X398817Y-216647D01*
X398801Y-216461D01*
X398789Y-216274D01*
X398782Y-216087D01*
X398780Y-215900D01*
D24*
X406400Y-215900D03*
D23*
X398780Y-241300D02*
X398782Y-241113D01*
X398789Y-240926D01*
X398801Y-240739D01*
X398817Y-240553D01*
X398837Y-240367D01*
X398862Y-240182D01*
X398892Y-239997D01*
X398926Y-239813D01*
X398965Y-239630D01*
X399008Y-239448D01*
X399056Y-239268D01*
X399108Y-239088D01*
X399165Y-238910D01*
X399225Y-238733D01*
X399291Y-238558D01*
X399360Y-238384D01*
X399434Y-238212D01*
X399512Y-238042D01*
X399594Y-237874D01*
X399680Y-237708D01*
X399770Y-237544D01*
X399864Y-237383D01*
X399962Y-237223D01*
X400064Y-237067D01*
X400170Y-236912D01*
X400280Y-236761D01*
X400393Y-236612D01*
X400510Y-236466D01*
X400630Y-236323D01*
X400754Y-236183D01*
X400881Y-236046D01*
X401012Y-235912D01*
X401146Y-235781D01*
X401283Y-235654D01*
X401423Y-235530D01*
X401566Y-235410D01*
X401712Y-235293D01*
X401861Y-235180D01*
X402012Y-235070D01*
X402167Y-234964D01*
X402323Y-234862D01*
X402483Y-234764D01*
X402644Y-234670D01*
X402808Y-234580D01*
X402974Y-234494D01*
X403142Y-234412D01*
X403312Y-234334D01*
X403484Y-234260D01*
X403658Y-234191D01*
X403833Y-234125D01*
X404010Y-234065D01*
X404188Y-234008D01*
X404368Y-233956D01*
X404548Y-233908D01*
X404730Y-233865D01*
X404913Y-233826D01*
X405097Y-233792D01*
X405282Y-233762D01*
X405467Y-233737D01*
X405653Y-233717D01*
X405839Y-233701D01*
X406026Y-233689D01*
X406213Y-233682D01*
X406400Y-233680D01*
X406587Y-233682D01*
X406774Y-233689D01*
X406961Y-233701D01*
X407147Y-233717D01*
X407333Y-233737D01*
X407518Y-233762D01*
X407703Y-233792D01*
X407887Y-233826D01*
X408070Y-233865D01*
X408252Y-233908D01*
X408432Y-233956D01*
X408612Y-234008D01*
X408790Y-234065D01*
X408967Y-234125D01*
X409142Y-234191D01*
X409316Y-234260D01*
X409488Y-234334D01*
X409658Y-234412D01*
X409826Y-234494D01*
X409992Y-234580D01*
X410156Y-234670D01*
X410317Y-234764D01*
X410477Y-234862D01*
X410633Y-234964D01*
X410788Y-235070D01*
X410939Y-235180D01*
X411088Y-235293D01*
X411234Y-235410D01*
X411377Y-235530D01*
X411517Y-235654D01*
X411654Y-235781D01*
X411788Y-235912D01*
X411919Y-236046D01*
X412046Y-236183D01*
X412170Y-236323D01*
X412290Y-236466D01*
X412407Y-236612D01*
X412520Y-236761D01*
X412630Y-236912D01*
X412736Y-237067D01*
X412838Y-237223D01*
X412936Y-237383D01*
X413030Y-237544D01*
X413120Y-237708D01*
X413206Y-237874D01*
X413288Y-238042D01*
X413366Y-238212D01*
X413440Y-238384D01*
X413509Y-238558D01*
X413575Y-238733D01*
X413635Y-238910D01*
X413692Y-239088D01*
X413744Y-239268D01*
X413792Y-239448D01*
X413835Y-239630D01*
X413874Y-239813D01*
X413908Y-239997D01*
X413938Y-240182D01*
X413963Y-240367D01*
X413983Y-240553D01*
X413999Y-240739D01*
X414011Y-240926D01*
X414018Y-241113D01*
X414020Y-241300D01*
X414018Y-241487D01*
X414011Y-241674D01*
X413999Y-241861D01*
X413983Y-242047D01*
X413963Y-242233D01*
X413938Y-242418D01*
X413908Y-242603D01*
X413874Y-242787D01*
X413835Y-242970D01*
X413792Y-243152D01*
X413744Y-243332D01*
X413692Y-243512D01*
X413635Y-243690D01*
X413575Y-243867D01*
X413509Y-244042D01*
X413440Y-244216D01*
X413366Y-244388D01*
X413288Y-244558D01*
X413206Y-244726D01*
X413120Y-244892D01*
X413030Y-245056D01*
X412936Y-245217D01*
X412838Y-245377D01*
X412736Y-245533D01*
X412630Y-245688D01*
X412520Y-245839D01*
X412407Y-245988D01*
X412290Y-246134D01*
X412170Y-246277D01*
X412046Y-246417D01*
X411919Y-246554D01*
X411788Y-246688D01*
X411654Y-246819D01*
X411517Y-246946D01*
X411377Y-247070D01*
X411234Y-247190D01*
X411088Y-247307D01*
X410939Y-247420D01*
X410788Y-247530D01*
X410633Y-247636D01*
X410477Y-247738D01*
X410317Y-247836D01*
X410156Y-247930D01*
X409992Y-248020D01*
X409826Y-248106D01*
X409658Y-248188D01*
X409488Y-248266D01*
X409316Y-248340D01*
X409142Y-248409D01*
X408967Y-248475D01*
X408790Y-248535D01*
X408612Y-248592D01*
X408432Y-248644D01*
X408252Y-248692D01*
X408070Y-248735D01*
X407887Y-248774D01*
X407703Y-248808D01*
X407518Y-248838D01*
X407333Y-248863D01*
X407147Y-248883D01*
X406961Y-248899D01*
X406774Y-248911D01*
X406587Y-248918D01*
X406400Y-248920D01*
X406213Y-248918D01*
X406026Y-248911D01*
X405839Y-248899D01*
X405653Y-248883D01*
X405467Y-248863D01*
X405282Y-248838D01*
X405097Y-248808D01*
X404913Y-248774D01*
X404730Y-248735D01*
X404548Y-248692D01*
X404368Y-248644D01*
X404188Y-248592D01*
X404010Y-248535D01*
X403833Y-248475D01*
X403658Y-248409D01*
X403484Y-248340D01*
X403312Y-248266D01*
X403142Y-248188D01*
X402974Y-248106D01*
X402808Y-248020D01*
X402644Y-247930D01*
X402483Y-247836D01*
X402323Y-247738D01*
X402167Y-247636D01*
X402012Y-247530D01*
X401861Y-247420D01*
X401712Y-247307D01*
X401566Y-247190D01*
X401423Y-247070D01*
X401283Y-246946D01*
X401146Y-246819D01*
X401012Y-246688D01*
X400881Y-246554D01*
X400754Y-246417D01*
X400630Y-246277D01*
X400510Y-246134D01*
X400393Y-245988D01*
X400280Y-245839D01*
X400170Y-245688D01*
X400064Y-245533D01*
X399962Y-245377D01*
X399864Y-245217D01*
X399770Y-245056D01*
X399680Y-244892D01*
X399594Y-244726D01*
X399512Y-244558D01*
X399434Y-244388D01*
X399360Y-244216D01*
X399291Y-244042D01*
X399225Y-243867D01*
X399165Y-243690D01*
X399108Y-243512D01*
X399056Y-243332D01*
X399008Y-243152D01*
X398965Y-242970D01*
X398926Y-242787D01*
X398892Y-242603D01*
X398862Y-242418D01*
X398837Y-242233D01*
X398817Y-242047D01*
X398801Y-241861D01*
X398789Y-241674D01*
X398782Y-241487D01*
X398780Y-241300D01*
D24*
X406400Y-241300D03*
D23*
X398780Y-266700D02*
X398782Y-266513D01*
X398789Y-266326D01*
X398801Y-266139D01*
X398817Y-265953D01*
X398837Y-265767D01*
X398862Y-265582D01*
X398892Y-265397D01*
X398926Y-265213D01*
X398965Y-265030D01*
X399008Y-264848D01*
X399056Y-264668D01*
X399108Y-264488D01*
X399165Y-264310D01*
X399225Y-264133D01*
X399291Y-263958D01*
X399360Y-263784D01*
X399434Y-263612D01*
X399512Y-263442D01*
X399594Y-263274D01*
X399680Y-263108D01*
X399770Y-262944D01*
X399864Y-262783D01*
X399962Y-262623D01*
X400064Y-262467D01*
X400170Y-262312D01*
X400280Y-262161D01*
X400393Y-262012D01*
X400510Y-261866D01*
X400630Y-261723D01*
X400754Y-261583D01*
X400881Y-261446D01*
X401012Y-261312D01*
X401146Y-261181D01*
X401283Y-261054D01*
X401423Y-260930D01*
X401566Y-260810D01*
X401712Y-260693D01*
X401861Y-260580D01*
X402012Y-260470D01*
X402167Y-260364D01*
X402323Y-260262D01*
X402483Y-260164D01*
X402644Y-260070D01*
X402808Y-259980D01*
X402974Y-259894D01*
X403142Y-259812D01*
X403312Y-259734D01*
X403484Y-259660D01*
X403658Y-259591D01*
X403833Y-259525D01*
X404010Y-259465D01*
X404188Y-259408D01*
X404368Y-259356D01*
X404548Y-259308D01*
X404730Y-259265D01*
X404913Y-259226D01*
X405097Y-259192D01*
X405282Y-259162D01*
X405467Y-259137D01*
X405653Y-259117D01*
X405839Y-259101D01*
X406026Y-259089D01*
X406213Y-259082D01*
X406400Y-259080D01*
X406587Y-259082D01*
X406774Y-259089D01*
X406961Y-259101D01*
X407147Y-259117D01*
X407333Y-259137D01*
X407518Y-259162D01*
X407703Y-259192D01*
X407887Y-259226D01*
X408070Y-259265D01*
X408252Y-259308D01*
X408432Y-259356D01*
X408612Y-259408D01*
X408790Y-259465D01*
X408967Y-259525D01*
X409142Y-259591D01*
X409316Y-259660D01*
X409488Y-259734D01*
X409658Y-259812D01*
X409826Y-259894D01*
X409992Y-259980D01*
X410156Y-260070D01*
X410317Y-260164D01*
X410477Y-260262D01*
X410633Y-260364D01*
X410788Y-260470D01*
X410939Y-260580D01*
X411088Y-260693D01*
X411234Y-260810D01*
X411377Y-260930D01*
X411517Y-261054D01*
X411654Y-261181D01*
X411788Y-261312D01*
X411919Y-261446D01*
X412046Y-261583D01*
X412170Y-261723D01*
X412290Y-261866D01*
X412407Y-262012D01*
X412520Y-262161D01*
X412630Y-262312D01*
X412736Y-262467D01*
X412838Y-262623D01*
X412936Y-262783D01*
X413030Y-262944D01*
X413120Y-263108D01*
X413206Y-263274D01*
X413288Y-263442D01*
X413366Y-263612D01*
X413440Y-263784D01*
X413509Y-263958D01*
X413575Y-264133D01*
X413635Y-264310D01*
X413692Y-264488D01*
X413744Y-264668D01*
X413792Y-264848D01*
X413835Y-265030D01*
X413874Y-265213D01*
X413908Y-265397D01*
X413938Y-265582D01*
X413963Y-265767D01*
X413983Y-265953D01*
X413999Y-266139D01*
X414011Y-266326D01*
X414018Y-266513D01*
X414020Y-266700D01*
X414018Y-266887D01*
X414011Y-267074D01*
X413999Y-267261D01*
X413983Y-267447D01*
X413963Y-267633D01*
X413938Y-267818D01*
X413908Y-268003D01*
X413874Y-268187D01*
X413835Y-268370D01*
X413792Y-268552D01*
X413744Y-268732D01*
X413692Y-268912D01*
X413635Y-269090D01*
X413575Y-269267D01*
X413509Y-269442D01*
X413440Y-269616D01*
X413366Y-269788D01*
X413288Y-269958D01*
X413206Y-270126D01*
X413120Y-270292D01*
X413030Y-270456D01*
X412936Y-270617D01*
X412838Y-270777D01*
X412736Y-270933D01*
X412630Y-271088D01*
X412520Y-271239D01*
X412407Y-271388D01*
X412290Y-271534D01*
X412170Y-271677D01*
X412046Y-271817D01*
X411919Y-271954D01*
X411788Y-272088D01*
X411654Y-272219D01*
X411517Y-272346D01*
X411377Y-272470D01*
X411234Y-272590D01*
X411088Y-272707D01*
X410939Y-272820D01*
X410788Y-272930D01*
X410633Y-273036D01*
X410477Y-273138D01*
X410317Y-273236D01*
X410156Y-273330D01*
X409992Y-273420D01*
X409826Y-273506D01*
X409658Y-273588D01*
X409488Y-273666D01*
X409316Y-273740D01*
X409142Y-273809D01*
X408967Y-273875D01*
X408790Y-273935D01*
X408612Y-273992D01*
X408432Y-274044D01*
X408252Y-274092D01*
X408070Y-274135D01*
X407887Y-274174D01*
X407703Y-274208D01*
X407518Y-274238D01*
X407333Y-274263D01*
X407147Y-274283D01*
X406961Y-274299D01*
X406774Y-274311D01*
X406587Y-274318D01*
X406400Y-274320D01*
X406213Y-274318D01*
X406026Y-274311D01*
X405839Y-274299D01*
X405653Y-274283D01*
X405467Y-274263D01*
X405282Y-274238D01*
X405097Y-274208D01*
X404913Y-274174D01*
X404730Y-274135D01*
X404548Y-274092D01*
X404368Y-274044D01*
X404188Y-273992D01*
X404010Y-273935D01*
X403833Y-273875D01*
X403658Y-273809D01*
X403484Y-273740D01*
X403312Y-273666D01*
X403142Y-273588D01*
X402974Y-273506D01*
X402808Y-273420D01*
X402644Y-273330D01*
X402483Y-273236D01*
X402323Y-273138D01*
X402167Y-273036D01*
X402012Y-272930D01*
X401861Y-272820D01*
X401712Y-272707D01*
X401566Y-272590D01*
X401423Y-272470D01*
X401283Y-272346D01*
X401146Y-272219D01*
X401012Y-272088D01*
X400881Y-271954D01*
X400754Y-271817D01*
X400630Y-271677D01*
X400510Y-271534D01*
X400393Y-271388D01*
X400280Y-271239D01*
X400170Y-271088D01*
X400064Y-270933D01*
X399962Y-270777D01*
X399864Y-270617D01*
X399770Y-270456D01*
X399680Y-270292D01*
X399594Y-270126D01*
X399512Y-269958D01*
X399434Y-269788D01*
X399360Y-269616D01*
X399291Y-269442D01*
X399225Y-269267D01*
X399165Y-269090D01*
X399108Y-268912D01*
X399056Y-268732D01*
X399008Y-268552D01*
X398965Y-268370D01*
X398926Y-268187D01*
X398892Y-268003D01*
X398862Y-267818D01*
X398837Y-267633D01*
X398817Y-267447D01*
X398801Y-267261D01*
X398789Y-267074D01*
X398782Y-266887D01*
X398780Y-266700D01*
D24*
X406400Y-266700D03*
D25*
X63500Y50800D03*
X977900Y50800D03*
X977900Y457200D03*
X152400Y736600D03*
M02*
