M48
;GenerationSoftware,Autodesk,EAGLE,9.6.2*%
;CreationDate,2022-12-13T17:55:38Z*%
FMAT,2
ICI,OFF
METRIC,TZ,000.000
T10C0.305
T9C0.350
T8C0.889
T7C0.920
T6C1.000
T5C1.400
T4C2.300
T3C2.500
T2C3.000
T1C3.175
%
G90
M71
T1
X15240Y73660
X6350Y5080
X97790Y5080
X97790Y45720
T2
X82804Y73406
X6604Y73406
X6604Y16256
X82804Y16256
T3
X15860Y1604
X33640Y1858
X33640Y11858
X15860Y11604
T4
X23600Y66210
X36740Y66210
T5
X87476Y69302
X87476Y64302
X99976Y64302
X99976Y69302
X99976Y25614
X99976Y20614
X87476Y20614
X87476Y25614
T6
X82804Y46101
X82804Y43561
X82804Y41021
X82804Y38481
X82804Y35941
X82804Y33401
X82804Y28321
X82804Y25781
X82804Y23241
X82804Y20701
X6604Y68961
X6604Y66421
X6604Y63881
X6604Y61341
X82804Y61341
X6604Y56261
X6604Y53721
X6604Y51181
X6604Y48641
X6604Y46101
X6604Y43561
X6604Y41021
X6604Y38481
X6604Y35941
X6604Y33401
X6604Y30861
X6604Y28321
X6604Y25781
X6604Y23241
X6604Y20701
X40640Y9358
X40640Y6858
X40640Y4358
X22860Y4104
X22860Y6604
X22860Y9104
X82804Y30861
X82804Y68961
X82804Y66421
X82804Y63881
X82804Y58801
X82804Y56261
X82804Y53721
X82804Y51181
X82804Y48641
X6604Y58801
T7
X31170Y63500
X33670Y63500
X26670Y63500
X29170Y63500
T8
X74904Y36390
X72364Y38930
X74904Y38930
X49504Y36390
X74904Y41470
X72364Y44010
X74904Y44010
X72364Y46550
X74904Y46550
X72364Y49090
X74904Y49090
X49504Y13530
X46964Y5910
X49504Y5910
X72364Y41470
X46964Y8450
X49504Y8450
X46964Y10990
X49504Y10990
X46964Y13530
X46964Y16070
X49504Y16070
X46964Y18610
X49504Y18610
X46964Y21150
X49504Y21150
X46964Y23690
X49504Y23690
X46964Y26230
X49504Y26230
X46964Y28770
X49504Y28770
X46964Y31310
X49504Y31310
X46964Y33850
X49504Y33850
X46964Y36390
X46964Y38930
X49504Y38930
X46964Y41470
X49504Y41470
X46964Y44010
X49504Y44010
X46964Y46550
X49504Y46550
X46964Y49090
X49504Y49090
X72364Y5910
X74904Y5910
X72364Y8450
X74904Y8450
X72364Y10990
X74904Y10990
X72364Y18610
X72364Y13530
X74904Y13530
X72364Y16070
X74904Y16070
X74904Y18610
X72364Y21150
X74904Y21150
X72364Y23690
X74904Y23690
X72364Y26230
X74904Y26230
X72364Y28770
X74904Y28770
X72364Y31310
X74904Y31310
X72364Y33850
X74904Y33850
X72364Y36390
T9
X86360Y66040
T10
X99695Y32702
X28575Y17145
X4445Y8890
X36830Y3016
X44132Y22860
X44132Y30480
M30